%
M48
M72
T01C0.00787
T02C0.02559
T03C0.02953
T04C0.03543
T05C0.04724
T06C0.05200
T07C0.06200
T08C0.06700
T09C0.10600
T10C0.10630
%
T01
X81906Y83874
X81906Y103559
X81906Y123244
X81906Y142929
X81906Y162614
X81906Y182299
X81906Y201984
X81906Y221669
X81906Y241354
X81906Y261039
X81906Y280724
X111827Y261039
X121276Y243323
X130724Y238598
X143717Y238992
X154740Y250803
X164189Y256709
X173244Y257102
X185449Y256709
X196866Y258677
X200409Y269701
X217732Y269701
X228362Y259071
X240173Y268913
X252772Y258677
X265370Y268520
X275606Y258677
X294504Y268913
X305921Y259071
X324819Y258677
X333480Y259009
X334268Y263008
X334268Y265370
X333874Y269245
X326394Y268520
X333874Y274425
X333480Y279150
X334268Y283874
X319701Y293717
X316157Y316157
X296472Y316157
X276787Y316157
X257102Y316157
X237417Y316157
X217732Y316157
X198047Y316157
X178362Y316157
X168520Y310252
X162614Y304346
X146866Y304346
X131118Y304346
X159071Y268126
X149228Y257496
X138598Y263008
X167339Y241748
X183087Y242535
X196472Y242535
X207102Y244504
X220094Y244110
X236630Y244504
X251984Y244504
X264976Y244110
X250803Y226394
X237024Y225213
X238992Y214583
X252378Y214189
X253559Y201984
X244898Y198441
X238205Y201984
X229937Y197260
X222063Y202378
X215370Y197654
X206709Y202378
X211039Y213795
X197654Y214189
X190961Y202378
X193717Y195685
X199228Y190567
X182299Y188992
X168126Y193323
X157496Y202378
X140173Y201984
X140567Y193717
X122850Y193717
X115370Y202378
X149622Y214583
X163795Y228362
X170882Y215764
X183087Y214189
X182299Y227575
X207496Y226000
X222850Y225213
X224819Y213795
X266551Y198835
X278756Y198047
X286236Y205528
X301591Y205528
X296079Y216157
X301591Y228756
X313402Y228756
X325213Y229150
X333874Y229088
X334661Y233087
X334523Y235377
X343323Y236236
X353953Y239324
X353953Y243717
X353953Y249228
X348441Y243323
X354346Y234661
X358677Y229150
X353559Y223970
X353559Y219245
X353559Y209403
X353559Y203891
X354346Y195685
X354346Y192929
X353559Y189324
X349228Y185843
X349228Y183087
X353559Y179088
X353559Y173970
X353559Y168852
X353559Y163733
X334268Y160646
X334268Y158283
X333874Y154678
X325213Y154346
X333874Y149167
X334268Y145685
X334268Y143323
X333874Y139324
X326000Y138992
X333874Y134206
X334268Y130331
X334268Y127969
X333874Y124363
X333874Y119245
X334268Y115370
X334268Y113008
X333874Y109009
X326000Y105528
X325213Y102378
X333480Y99167
X333480Y94442
X333480Y88930
X331118Y81512
X338598Y73638
X346079Y83480
X353559Y83812
X353559Y88930
X353559Y94442
X353953Y99167
X353953Y104285
X353953Y109009
X353953Y114127
X353953Y118852
X353953Y123970
X353953Y129088
X353953Y134206
X359465Y131906
X359465Y137024
X353559Y144048
X353559Y149167
X375213Y158677
X375213Y138992
X348047Y126394
X348835Y120882
X326787Y124425
X314976Y124031
X292535Y124031
X280331Y122850
X265764Y121276
X255528Y123244
X251197Y138598
X262220Y138205
X277181Y138598
X293323Y138992
X301591Y154346
X302378Y169307
X298047Y180724
X285843Y180331
X272063Y180331
X270488Y168126
X258283Y169307
X246866Y169307
X235449Y169701
X223244Y169701
X211433Y169307
X197260Y170094
X182693Y174819
X174819Y164189
X183480Y151984
X197654Y153165
X212614Y153165
X226000Y152772
X240961Y151984
X254346Y151984
X268520Y151984
X283480Y169307
X258677Y180331
X244110Y180331
X229150Y180724
X226787Y137417
X239780Y137417
X222457Y123244
X211433Y123638
X200016Y123244
X188205Y123244
X171669Y124425
X185055Y135843
X199228Y135843
X213795Y137024
X235449Y122457
X239386Y109465
X250409Y109465
X264189Y100803
X272850Y109858
X287417Y92142
X295685Y93323
X304346Y82299
X319307Y81512
X319701Y70094
X300016Y70882
X283480Y81512
X244504Y97260
X227181Y109465
X213402Y109858
X189780Y109858
X176394Y109465
X158283Y108677
X142929Y99622
X139386Y109071
X123638Y109071
X111827Y114189
X107890Y101984
X127575Y123638
X148047Y124031
X157890Y138992
X156315Y153165
X149228Y164189
X146472Y174819
X126394Y164189
X131118Y153165
X133480Y138992
X118913Y174819
X119701Y228362
X130331Y228362
X178362Y267732
X198441Y296866
X237417Y296079
X286236Y294504
X333480Y254285
X334268Y250803
X334661Y248441
X333480Y244442
X324819Y243717
X353953Y253953
X353953Y259071
X353953Y264189
X353953Y268913
X353559Y274031
X353559Y279150
X353559Y284661
X375213Y276787
X375213Y257102
X371276Y243717
X375213Y237417
X371669Y231906
X375213Y217732
X375213Y198047
X375213Y178362
X334268Y175606
X334268Y173244
X333480Y169639
X333874Y164521
X333480Y179088
X328362Y187749
X329543Y193323
X329150Y195685
X333874Y194442
X333480Y202710
X333874Y209403
X329150Y210252
X329150Y207890
X325606Y205528
X322457Y198441
X333874Y218064
X294898Y244110
X286236Y226394
X375213Y296472
X375213Y316157
X375213Y119307
X375213Y99622
X375213Y79937
X375213Y60252
X322063Y52378
X302378Y52378
X282693Y52378
X263008Y52378
X243323Y52378
X223638Y52378
X203953Y52378
X188205Y52378
X184268Y64189
X168520Y64189
X152772Y64189
X137024Y64189
X137811Y74819
X177181Y83087
X198047Y77575
X303953Y110252
T02
X109071Y130331
X104543Y133480
X100016Y135055
X95488Y131906
X100016Y128756
X95488Y138205
X100016Y141354
X104543Y139780
X109071Y142929
X104543Y146079
X100016Y147654
X95488Y150803
X100016Y153953
X104543Y152378
X109071Y155528
X104543Y158677
X100016Y160252
X95488Y163402
X100016Y166551
X104543Y164976
X109071Y161827
X109071Y168126
X104543Y171276
X100016Y172850
X95488Y169701
X95488Y176000
X100016Y179150
X104543Y177575
X109071Y180724
X104543Y183874
X100016Y185449
X95488Y188598
X100016Y191748
X104543Y190173
X109071Y187024
X109071Y193323
X104543Y196472
X100016Y198047
X95488Y194898
X95488Y201197
X100016Y204346
X104543Y202772
X109071Y205921
X104543Y209071
X100016Y210646
X95488Y213795
X100016Y216945
X104543Y215370
X109071Y212220
X109071Y218520
X104543Y221669
X100016Y223244
X95488Y220094
X95488Y226394
X100016Y229543
X104543Y227969
X109071Y231118
X104543Y234268
X95488Y232693
X109071Y224819
X95488Y207496
X109071Y199622
X95488Y182299
X109071Y174425
X95488Y157102
X109071Y149228
X95488Y144504
X109071Y136630
T03
X89858Y99189
X90764Y264150
T04
X96906Y274819
X106906Y274819
X116906Y274819
X126906Y274819
X126906Y88205
X116906Y88205
X106906Y88205
X96906Y88205
T05
X100213Y118028
X100213Y245429
T06
X331717Y291318
X343717Y77318
T07
X264976Y76000
X225606Y76000
T08
X215606Y86000
X235606Y86000
X254976Y86000
X274976Y86000
X274976Y66000
X254976Y66000
X235606Y66000
X215606Y66000
T09
X335717Y60268
X335717Y308268
T10
X120882Y70094
X120882Y292732
M30
