G75*
%MOIN*%
%OFA0B0*%
%FSLAX25Y25*%
%IPPOS*%
%LPD*%
%AMOC8*
5,1,8,0,0,1.08239X$1,22.5*
%
%ADD10C,0.01000*%
%ADD11C,0.00787*%
%ADD12C,0.00800*%
%ADD13C,0.02559*%
%ADD14C,0.00600*%
%ADD15C,0.00500*%
D10*
X0257891Y0146379D02*
X0262012Y0146379D01*
X0262012Y0149127D01*
X0262012Y0151092D02*
X0257891Y0151092D01*
X0257891Y0153839D02*
X0262012Y0153839D01*
X0260638Y0152465D01*
X0262012Y0151092D01*
X0259951Y0147753D02*
X0259951Y0146379D01*
X0258577Y0155804D02*
X0257891Y0156491D01*
X0257891Y0157865D01*
X0258577Y0158552D01*
X0258577Y0155804D02*
X0261325Y0155804D01*
X0262012Y0156491D01*
X0262012Y0157865D01*
X0261325Y0158552D01*
X0260638Y0165230D02*
X0260638Y0166604D01*
X0261325Y0165917D02*
X0258577Y0165917D01*
X0257891Y0166604D01*
X0258577Y0168371D02*
X0257891Y0169058D01*
X0257891Y0170432D01*
X0258577Y0171119D01*
X0259951Y0171119D01*
X0260638Y0170432D01*
X0260638Y0169058D01*
X0259951Y0168371D01*
X0258577Y0168371D01*
X0259264Y0177797D02*
X0257891Y0179171D01*
X0259264Y0180545D01*
X0262012Y0180545D01*
X0262012Y0182509D02*
X0257891Y0182509D01*
X0259951Y0182509D02*
X0259951Y0185257D01*
X0257891Y0185257D02*
X0262012Y0185257D01*
X0261325Y0187222D02*
X0258577Y0187222D01*
X0257891Y0187909D01*
X0257891Y0189283D01*
X0258577Y0189970D01*
X0257891Y0191935D02*
X0257891Y0193996D01*
X0258577Y0194683D01*
X0261325Y0194683D01*
X0262012Y0193996D01*
X0262012Y0191935D01*
X0257891Y0191935D01*
X0261325Y0189970D02*
X0262012Y0189283D01*
X0262012Y0187909D01*
X0261325Y0187222D01*
X0262012Y0196648D02*
X0262012Y0198021D01*
X0262012Y0197334D02*
X0257891Y0197334D01*
X0257891Y0196648D02*
X0257891Y0198021D01*
X0257891Y0204502D02*
X0257891Y0206563D01*
X0258577Y0207250D01*
X0259264Y0207250D01*
X0259951Y0206563D01*
X0259951Y0204502D01*
X0257891Y0204502D02*
X0262012Y0204502D01*
X0262012Y0206563D01*
X0261325Y0207250D01*
X0260638Y0207250D01*
X0259951Y0206563D01*
X0259951Y0209215D02*
X0258577Y0209215D01*
X0257891Y0209902D01*
X0257891Y0211275D01*
X0258577Y0211962D01*
X0259951Y0211962D01*
X0260638Y0211275D01*
X0260638Y0209902D01*
X0259951Y0209215D01*
X0258577Y0213927D02*
X0259264Y0214614D01*
X0259264Y0216675D01*
X0259951Y0216675D02*
X0257891Y0216675D01*
X0257891Y0214614D01*
X0258577Y0213927D01*
X0260638Y0214614D02*
X0260638Y0215988D01*
X0259951Y0216675D01*
X0259264Y0218640D02*
X0260638Y0220014D01*
X0260638Y0220701D01*
X0259951Y0222567D02*
X0258577Y0222567D01*
X0257891Y0223254D01*
X0257891Y0225315D01*
X0262012Y0225315D01*
X0260638Y0225315D02*
X0260638Y0223254D01*
X0259951Y0222567D01*
X0260638Y0218640D02*
X0257891Y0218640D01*
X0235032Y0207347D02*
X0234345Y0208034D01*
X0232284Y0208034D01*
X0232284Y0205287D02*
X0235032Y0205287D01*
X0235032Y0207347D01*
X0234345Y0203322D02*
X0232284Y0203322D01*
X0232284Y0201261D01*
X0232971Y0200574D01*
X0233658Y0201261D01*
X0233658Y0203322D01*
X0234345Y0203322D02*
X0235032Y0202635D01*
X0235032Y0201261D01*
X0234345Y0198609D02*
X0232284Y0198609D01*
X0232284Y0197235D02*
X0234345Y0197235D01*
X0235032Y0197922D01*
X0234345Y0198609D01*
X0234345Y0197235D02*
X0235032Y0196548D01*
X0235032Y0195861D01*
X0232284Y0195861D01*
X0232971Y0193896D02*
X0235032Y0193896D01*
X0232971Y0193896D02*
X0232284Y0193209D01*
X0232971Y0192522D01*
X0232284Y0191835D01*
X0232971Y0191149D01*
X0235032Y0191149D01*
X0234345Y0189184D02*
X0233658Y0189184D01*
X0233658Y0186436D01*
X0232971Y0186436D02*
X0234345Y0186436D01*
X0235032Y0187123D01*
X0235032Y0188497D01*
X0234345Y0189184D01*
X0232284Y0188497D02*
X0232284Y0187123D01*
X0232971Y0186436D01*
X0232284Y0184471D02*
X0236406Y0184471D01*
X0236406Y0181723D02*
X0232284Y0181723D01*
X0232284Y0184471D02*
X0236406Y0181723D01*
X0239961Y0180741D02*
X0242709Y0182115D01*
X0242709Y0179367D02*
X0239961Y0180741D01*
X0239961Y0184080D02*
X0239961Y0184766D01*
X0240648Y0184766D01*
X0240648Y0184080D01*
X0239961Y0184080D01*
X0228729Y0185552D02*
X0228729Y0186926D01*
X0228042Y0187613D01*
X0226668Y0187613D01*
X0225981Y0186926D01*
X0227355Y0186926D01*
X0227355Y0185552D01*
X0225981Y0185552D01*
X0225981Y0186926D01*
X0225294Y0187613D02*
X0224607Y0186926D01*
X0224607Y0185552D01*
X0225294Y0184865D01*
X0228042Y0184865D01*
X0228729Y0185552D01*
X0228729Y0189578D02*
X0224607Y0189578D01*
X0224607Y0192325D02*
X0228729Y0192325D01*
X0227355Y0190952D01*
X0228729Y0189578D01*
X0224607Y0182900D02*
X0224607Y0180152D01*
X0228729Y0180152D01*
X0228729Y0178187D02*
X0224607Y0178187D01*
X0225981Y0176813D01*
X0224607Y0175440D01*
X0228729Y0175440D01*
X0228729Y0173475D02*
X0224607Y0173475D01*
X0224607Y0170727D02*
X0228729Y0170727D01*
X0227355Y0172101D01*
X0228729Y0173475D01*
X0232284Y0172298D02*
X0235032Y0172298D01*
X0235032Y0174359D01*
X0234345Y0175046D01*
X0232284Y0175046D01*
X0232971Y0170333D02*
X0234345Y0170333D01*
X0235032Y0169646D01*
X0235032Y0168272D01*
X0234345Y0167585D01*
X0232971Y0167585D01*
X0232284Y0168272D01*
X0232284Y0169646D01*
X0232971Y0170333D01*
X0239961Y0169941D02*
X0244083Y0169941D01*
X0244083Y0172002D01*
X0243396Y0172689D01*
X0242022Y0172689D01*
X0241335Y0172002D01*
X0241335Y0169941D01*
X0241335Y0171315D02*
X0239961Y0172689D01*
X0240648Y0174654D02*
X0239961Y0175341D01*
X0239961Y0176715D01*
X0241335Y0177402D02*
X0241335Y0174654D01*
X0240648Y0174654D02*
X0242022Y0174654D01*
X0242709Y0175341D01*
X0242709Y0176715D01*
X0242022Y0177402D01*
X0241335Y0177402D01*
X0236406Y0165620D02*
X0236406Y0164246D01*
X0236406Y0164933D02*
X0232971Y0164933D01*
X0232284Y0164246D01*
X0232284Y0163559D01*
X0232971Y0162872D01*
X0220365Y0177010D02*
X0221052Y0177697D01*
X0221052Y0179071D01*
X0220365Y0179758D01*
X0219678Y0179758D01*
X0216930Y0177010D01*
X0216930Y0179758D01*
X0217617Y0181723D02*
X0220365Y0184471D01*
X0217617Y0184471D01*
X0216930Y0183784D01*
X0216930Y0182410D01*
X0217617Y0181723D01*
X0220365Y0181723D01*
X0221052Y0182410D01*
X0221052Y0183784D01*
X0220365Y0184471D01*
X0220365Y0186436D02*
X0221052Y0187123D01*
X0221052Y0188497D01*
X0220365Y0189184D01*
X0219678Y0189184D01*
X0216930Y0186436D01*
X0216930Y0189184D01*
X0217617Y0191149D02*
X0220365Y0193896D01*
X0217617Y0193896D01*
X0216930Y0193209D01*
X0216930Y0191835D01*
X0217617Y0191149D01*
X0220365Y0191149D01*
X0221052Y0191835D01*
X0221052Y0193209D01*
X0220365Y0193896D01*
X0224607Y0194290D02*
X0224607Y0195664D01*
X0224607Y0194977D02*
X0228729Y0194977D01*
X0228729Y0194290D02*
X0228729Y0195664D01*
X0228729Y0197432D02*
X0228729Y0200180D01*
X0228729Y0198806D02*
X0224607Y0198806D01*
X0239961Y0198904D02*
X0240648Y0198218D01*
X0243396Y0200965D01*
X0240648Y0200965D01*
X0239961Y0200278D01*
X0239961Y0198904D01*
X0240648Y0198218D02*
X0243396Y0198218D01*
X0244083Y0198904D01*
X0244083Y0200278D01*
X0243396Y0200965D01*
X0240648Y0196548D02*
X0239961Y0196548D01*
X0239961Y0195861D01*
X0240648Y0195861D01*
X0240648Y0196548D01*
X0239961Y0193896D02*
X0239961Y0191149D01*
X0239961Y0192522D02*
X0244083Y0192522D01*
X0242709Y0191149D01*
X0259264Y0177797D02*
X0262012Y0177797D01*
D11*
X0212220Y0154346D02*
X0212220Y0216551D01*
X0248441Y0216551D01*
X0248441Y0154346D01*
X0212220Y0154346D01*
X0252772Y0137024D02*
X0252772Y0233874D01*
X0266157Y0233874D01*
X0266157Y0137024D01*
X0252772Y0137024D01*
D12*
X0351000Y0232299D02*
X0351000Y0243323D01*
X0367929Y0243323D01*
X0367929Y0232299D01*
X0351000Y0232299D01*
D13*
X0365862Y0240370D03*
D14*
X0363200Y0230525D02*
X0363200Y0228399D01*
X0362775Y0227973D01*
X0361924Y0227973D01*
X0361499Y0228399D01*
X0361499Y0230525D01*
X0360300Y0230100D02*
X0359875Y0230525D01*
X0359024Y0230525D01*
X0358599Y0230100D01*
X0358599Y0229674D01*
X0360300Y0227973D01*
X0358599Y0227973D01*
X0357400Y0228399D02*
X0356974Y0227973D01*
X0356124Y0227973D01*
X0355699Y0228399D01*
X0355699Y0228824D01*
X0356124Y0229249D01*
X0356549Y0229249D01*
X0356124Y0229249D02*
X0355699Y0229674D01*
X0355699Y0230100D01*
X0356124Y0230525D01*
X0356974Y0230525D01*
X0357400Y0230100D01*
X0351836Y0255040D02*
X0350985Y0255040D01*
X0350560Y0255465D01*
X0349361Y0255040D02*
X0347660Y0255040D01*
X0348510Y0255040D02*
X0348510Y0257592D01*
X0349361Y0256741D01*
X0350560Y0257167D02*
X0350985Y0257592D01*
X0351836Y0257592D01*
X0352261Y0257167D01*
X0352261Y0255465D01*
X0351836Y0255040D01*
X0346461Y0255465D02*
X0346036Y0255040D01*
X0345185Y0255040D01*
X0344760Y0255465D01*
X0344760Y0255891D01*
X0345185Y0256316D01*
X0345610Y0256316D01*
X0345185Y0256316D02*
X0344760Y0256741D01*
X0344760Y0257167D01*
X0345185Y0257592D01*
X0346036Y0257592D01*
X0346461Y0257167D01*
X0343561Y0257592D02*
X0343561Y0256316D01*
X0342710Y0256741D01*
X0342285Y0256741D01*
X0341860Y0256316D01*
X0341860Y0255465D01*
X0342285Y0255040D01*
X0343135Y0255040D01*
X0343561Y0255465D01*
X0343561Y0257592D02*
X0341860Y0257592D01*
D15*
X0346241Y0253035D02*
X0350641Y0253035D01*
X0350641Y0244635D01*
X0346241Y0244635D01*
X0346241Y0253035D01*
M02*
