G75*
%MOIN*%
%OFA0B0*%
%FSLAX25Y25*%
%IPPOS*%
%LPD*%
%AMOC8*
5,1,8,0,0,1.08239X$1,22.5*
%
%ADD10C,0.16348*%
%ADD11R,0.05324X0.01978*%
%ADD12R,0.03600X0.03300*%
%ADD13C,0.04439*%
%ADD14C,0.09458*%
%ADD15C,0.03553*%
%ADD16OC8,0.05915*%
%ADD17C,0.09900*%
%ADD18C,0.10650*%
%ADD19C,0.15200*%
%ADD20C,0.05800*%
D10*
X0120882Y0070094D03*
X0120882Y0292732D03*
D11*
X0347949Y0241650D03*
X0347949Y0239091D03*
X0347949Y0236531D03*
X0347949Y0233972D03*
X0370980Y0233972D03*
X0370980Y0236531D03*
X0370980Y0239091D03*
X0370980Y0241650D03*
D12*
X0348441Y0246735D03*
X0348441Y0250935D03*
D13*
X0109071Y0231118D03*
X0104543Y0227969D03*
X0100016Y0229543D03*
X0095488Y0226394D03*
X0100016Y0223244D03*
X0104543Y0221669D03*
X0109071Y0218520D03*
X0104543Y0215370D03*
X0100016Y0216945D03*
X0095488Y0220094D03*
X0095488Y0213795D03*
X0100016Y0210646D03*
X0104543Y0209071D03*
X0109071Y0212220D03*
X0109071Y0205921D03*
X0104543Y0202772D03*
X0100016Y0204346D03*
X0095488Y0201197D03*
X0100016Y0198047D03*
X0104543Y0196472D03*
X0109071Y0193323D03*
X0104543Y0190173D03*
X0100016Y0191748D03*
X0095488Y0188598D03*
X0100016Y0185449D03*
X0104543Y0183874D03*
X0109071Y0180724D03*
X0104543Y0177575D03*
X0100016Y0179150D03*
X0095488Y0182299D03*
X0095488Y0176000D03*
X0100016Y0172850D03*
X0104543Y0171276D03*
X0109071Y0174425D03*
X0109071Y0168126D03*
X0104543Y0164976D03*
X0100016Y0166551D03*
X0095488Y0163402D03*
X0100016Y0160252D03*
X0104543Y0158677D03*
X0109071Y0155528D03*
X0104543Y0152378D03*
X0100016Y0153953D03*
X0095488Y0157102D03*
X0095488Y0150803D03*
X0100016Y0147654D03*
X0104543Y0146079D03*
X0109071Y0149228D03*
X0109071Y0142929D03*
X0104543Y0139780D03*
X0100016Y0141354D03*
X0095488Y0138205D03*
X0100016Y0135055D03*
X0104543Y0133480D03*
X0109071Y0130331D03*
X0109071Y0136630D03*
X0100016Y0128756D03*
X0095488Y0131906D03*
X0095488Y0144504D03*
X0109071Y0161827D03*
X0095488Y0169701D03*
X0109071Y0187024D03*
X0095488Y0194898D03*
X0109071Y0199622D03*
X0095488Y0207496D03*
X0109071Y0224819D03*
X0095488Y0232693D03*
X0104543Y0234268D03*
D14*
X0100213Y0245429D03*
X0100213Y0118028D03*
D15*
X0089858Y0099189D03*
X0090764Y0264150D03*
D16*
X0096906Y0274819D03*
X0106906Y0274819D03*
X0116906Y0274819D03*
X0126906Y0274819D03*
X0126906Y0088205D03*
X0116906Y0088205D03*
X0106906Y0088205D03*
X0096906Y0088205D03*
D17*
X0225606Y0076000D03*
X0264976Y0076000D03*
D18*
X0254976Y0086000D03*
X0235606Y0086000D03*
X0215606Y0086000D03*
X0215606Y0066000D03*
X0235606Y0066000D03*
X0254976Y0066000D03*
X0274976Y0066000D03*
X0274976Y0086000D03*
D19*
X0335717Y0060268D03*
X0335717Y0308268D03*
D20*
X0331717Y0291318D03*
X0343717Y0077318D03*
M02*
