G75*
%MOIN*%
%OFA0B0*%
%FSLAX25Y25*%
%IPPOS*%
%LPD*%
%AMOC8*
5,1,8,0,0,1.08239X$1,22.5*
%
%ADD10C,0.14630*%
%ADD11C,0.03839*%
%ADD12C,0.07087*%
%ADD13C,0.05315*%
%ADD14C,0.09300*%
%ADD15C,0.10050*%
%ADD16C,0.14600*%
%ADD17C,0.01587*%
%ADD18C,0.00394*%
D10*
X0120882Y0070094D03*
X0120882Y0292732D03*
D11*
X0104543Y0234268D03*
X0109071Y0231118D03*
X0104543Y0227969D03*
X0100016Y0229543D03*
X0095488Y0226394D03*
X0100016Y0223244D03*
X0104543Y0221669D03*
X0109071Y0218520D03*
X0104543Y0215370D03*
X0100016Y0216945D03*
X0095488Y0220094D03*
X0095488Y0213795D03*
X0100016Y0210646D03*
X0104543Y0209071D03*
X0109071Y0212220D03*
X0109071Y0205921D03*
X0104543Y0202772D03*
X0100016Y0204346D03*
X0095488Y0201197D03*
X0100016Y0198047D03*
X0104543Y0196472D03*
X0109071Y0193323D03*
X0104543Y0190173D03*
X0100016Y0191748D03*
X0095488Y0188598D03*
X0100016Y0185449D03*
X0104543Y0183874D03*
X0109071Y0180724D03*
X0104543Y0177575D03*
X0100016Y0179150D03*
X0095488Y0182299D03*
X0095488Y0176000D03*
X0100016Y0172850D03*
X0104543Y0171276D03*
X0109071Y0174425D03*
X0109071Y0168126D03*
X0104543Y0164976D03*
X0100016Y0166551D03*
X0095488Y0163402D03*
X0100016Y0160252D03*
X0104543Y0158677D03*
X0109071Y0155528D03*
X0104543Y0152378D03*
X0100016Y0153953D03*
X0095488Y0157102D03*
X0095488Y0150803D03*
X0100016Y0147654D03*
X0104543Y0146079D03*
X0109071Y0149228D03*
X0109071Y0142929D03*
X0104543Y0139780D03*
X0100016Y0141354D03*
X0095488Y0138205D03*
X0100016Y0135055D03*
X0104543Y0133480D03*
X0109071Y0130331D03*
X0109071Y0136630D03*
X0100016Y0128756D03*
X0095488Y0131906D03*
X0095488Y0144504D03*
X0109071Y0161827D03*
X0095488Y0169701D03*
X0109071Y0187024D03*
X0095488Y0194898D03*
X0109071Y0199622D03*
X0095488Y0207496D03*
X0109071Y0224819D03*
X0095488Y0232693D03*
D12*
X0100213Y0245429D03*
X0100213Y0118028D03*
D13*
X0096906Y0088205D03*
X0106906Y0088205D03*
X0116906Y0088205D03*
X0126906Y0088205D03*
X0126906Y0274819D03*
X0116906Y0274819D03*
X0106906Y0274819D03*
X0096906Y0274819D03*
D14*
X0225606Y0076000D03*
X0264976Y0076000D03*
D15*
X0254976Y0086000D03*
X0235606Y0086000D03*
X0215606Y0086000D03*
X0215606Y0066000D03*
X0235606Y0066000D03*
X0254976Y0066000D03*
X0274976Y0066000D03*
X0274976Y0086000D03*
D16*
X0335717Y0060268D03*
X0335717Y0308268D03*
D17*
X0316157Y0316157D03*
X0296472Y0316157D03*
X0276787Y0316157D03*
X0257102Y0316157D03*
X0237417Y0316157D03*
X0217732Y0316157D03*
X0198047Y0316157D03*
X0178362Y0316157D03*
X0168520Y0310252D03*
X0162614Y0304346D03*
X0146866Y0304346D03*
X0131118Y0304346D03*
X0081906Y0280724D03*
X0081906Y0261039D03*
X0081906Y0241354D03*
X0081906Y0221669D03*
X0081906Y0201984D03*
X0081906Y0182299D03*
X0081906Y0162614D03*
X0081906Y0142929D03*
X0081906Y0123244D03*
X0081906Y0103559D03*
X0081906Y0083874D03*
X0107890Y0101984D03*
X0123638Y0109071D03*
X0111827Y0114189D03*
X0127575Y0123638D03*
X0148047Y0124031D03*
X0139386Y0109071D03*
X0142929Y0099622D03*
X0158283Y0108677D03*
X0176394Y0109465D03*
X0189780Y0109858D03*
X0201591Y0108283D03*
X0213402Y0109858D03*
X0227181Y0109465D03*
X0239386Y0109465D03*
X0250409Y0109465D03*
X0264189Y0100803D03*
X0272850Y0109858D03*
X0290173Y0108677D03*
X0303953Y0110252D03*
X0320882Y0109071D03*
X0326000Y0105528D03*
X0325213Y0102378D03*
X0333480Y0099167D03*
X0333480Y0094442D03*
X0333480Y0088930D03*
X0331118Y0081512D03*
X0338598Y0073638D03*
X0346079Y0083480D03*
X0353559Y0083812D03*
X0353559Y0088930D03*
X0353559Y0094442D03*
X0353953Y0099167D03*
X0353953Y0104285D03*
X0353953Y0109009D03*
X0353953Y0114127D03*
X0353953Y0118852D03*
X0353953Y0123970D03*
X0353953Y0129088D03*
X0353953Y0134206D03*
X0359465Y0131906D03*
X0359465Y0137024D03*
X0353559Y0144048D03*
X0353559Y0149167D03*
X0334268Y0145685D03*
X0334268Y0143323D03*
X0333874Y0139324D03*
X0326000Y0138992D03*
X0333874Y0134206D03*
X0334268Y0130331D03*
X0334268Y0127969D03*
X0333874Y0124363D03*
X0333874Y0119245D03*
X0334268Y0115370D03*
X0334268Y0113008D03*
X0333874Y0109009D03*
X0348835Y0120882D03*
X0348047Y0126394D03*
X0326787Y0124425D03*
X0314976Y0124031D03*
X0292535Y0124031D03*
X0280331Y0122850D03*
X0265764Y0121276D03*
X0249228Y0122063D03*
X0235449Y0122457D03*
X0222457Y0123244D03*
X0211433Y0123638D03*
X0200016Y0123244D03*
X0188205Y0123244D03*
X0171669Y0124425D03*
X0175606Y0138598D03*
X0185055Y0135843D03*
X0199228Y0135843D03*
X0213795Y0137024D03*
X0226787Y0137417D03*
X0239780Y0137417D03*
X0251197Y0138598D03*
X0262220Y0138205D03*
X0277181Y0138598D03*
X0293323Y0138992D03*
X0297260Y0153953D03*
X0310646Y0155134D03*
X0325213Y0154346D03*
X0333874Y0154678D03*
X0334268Y0158283D03*
X0334268Y0160646D03*
X0333874Y0164521D03*
X0333480Y0169639D03*
X0334268Y0173244D03*
X0334268Y0175606D03*
X0333480Y0179088D03*
X0328362Y0187749D03*
X0329543Y0193323D03*
X0329150Y0195685D03*
X0333874Y0194442D03*
X0333480Y0202710D03*
X0333874Y0209403D03*
X0329150Y0210252D03*
X0329150Y0207890D03*
X0325606Y0205528D03*
X0322457Y0198441D03*
X0314189Y0205528D03*
X0296079Y0216157D03*
X0279543Y0214976D03*
X0286236Y0205528D03*
X0287811Y0197260D03*
X0275213Y0198441D03*
X0268126Y0202378D03*
X0261433Y0198441D03*
X0253559Y0201984D03*
X0244898Y0198441D03*
X0238205Y0201984D03*
X0229937Y0197260D03*
X0222063Y0202378D03*
X0215370Y0197654D03*
X0206709Y0202378D03*
X0211039Y0213795D03*
X0197654Y0214189D03*
X0190961Y0202378D03*
X0193717Y0195685D03*
X0199228Y0190567D03*
X0182299Y0188992D03*
X0168126Y0193323D03*
X0157496Y0202378D03*
X0140173Y0201984D03*
X0140567Y0193717D03*
X0122850Y0193717D03*
X0115370Y0202378D03*
X0149622Y0214583D03*
X0156709Y0221669D03*
X0163795Y0228362D03*
X0170882Y0215764D03*
X0183087Y0214189D03*
X0182299Y0227575D03*
X0196472Y0228756D03*
X0207496Y0226000D03*
X0222850Y0225213D03*
X0237024Y0225213D03*
X0238992Y0214583D03*
X0252378Y0214189D03*
X0264583Y0215370D03*
X0264976Y0227969D03*
X0276000Y0228756D03*
X0285843Y0228756D03*
X0301591Y0228756D03*
X0313402Y0228756D03*
X0325213Y0229150D03*
X0333874Y0229088D03*
X0334661Y0233087D03*
X0334523Y0235377D03*
X0343323Y0236236D03*
X0353953Y0239324D03*
X0353953Y0243717D03*
X0353953Y0249228D03*
X0348441Y0243323D03*
X0354346Y0234661D03*
X0358677Y0229150D03*
X0353559Y0223970D03*
X0353559Y0219245D03*
X0353559Y0209403D03*
X0353559Y0203891D03*
X0354346Y0195685D03*
X0354346Y0192929D03*
X0353559Y0189324D03*
X0349228Y0185843D03*
X0349228Y0183087D03*
X0353559Y0179088D03*
X0353559Y0173970D03*
X0353559Y0168852D03*
X0353559Y0163733D03*
X0375213Y0158677D03*
X0375213Y0138992D03*
X0375213Y0119307D03*
X0375213Y0099622D03*
X0375213Y0079937D03*
X0375213Y0060252D03*
X0322063Y0052378D03*
X0302378Y0052378D03*
X0282693Y0052378D03*
X0263008Y0052378D03*
X0243323Y0052378D03*
X0223638Y0052378D03*
X0203953Y0052378D03*
X0188205Y0052378D03*
X0184268Y0064189D03*
X0168520Y0064189D03*
X0152772Y0064189D03*
X0137024Y0064189D03*
X0137811Y0074819D03*
X0177181Y0083087D03*
X0198047Y0077575D03*
X0244504Y0097260D03*
X0283480Y0081512D03*
X0287417Y0092142D03*
X0295685Y0093323D03*
X0304346Y0082299D03*
X0319307Y0081512D03*
X0319701Y0070094D03*
X0300016Y0070882D03*
X0333874Y0149167D03*
X0302378Y0169307D03*
X0298047Y0180724D03*
X0285843Y0180331D03*
X0272063Y0180331D03*
X0270488Y0168126D03*
X0258283Y0169307D03*
X0246866Y0169307D03*
X0235449Y0169701D03*
X0223244Y0169701D03*
X0211433Y0169307D03*
X0203165Y0166551D03*
X0197260Y0170094D03*
X0182693Y0174819D03*
X0177575Y0163008D03*
X0183480Y0151984D03*
X0197654Y0153165D03*
X0212614Y0153165D03*
X0226000Y0152772D03*
X0240961Y0151984D03*
X0254346Y0151984D03*
X0268520Y0151984D03*
X0283874Y0153559D03*
X0283480Y0169307D03*
X0258677Y0180331D03*
X0244110Y0180331D03*
X0229150Y0180724D03*
X0224819Y0213795D03*
X0250803Y0226394D03*
X0228362Y0240961D03*
X0236630Y0244504D03*
X0251984Y0244504D03*
X0264976Y0244110D03*
X0282693Y0245291D03*
X0294898Y0244110D03*
X0310252Y0244110D03*
X0324819Y0243717D03*
X0333480Y0244442D03*
X0334661Y0248441D03*
X0334268Y0250803D03*
X0333480Y0254285D03*
X0333480Y0259009D03*
X0334268Y0263008D03*
X0334268Y0265370D03*
X0333874Y0269245D03*
X0326394Y0268520D03*
X0333874Y0274425D03*
X0333480Y0279150D03*
X0334268Y0283874D03*
X0319701Y0293717D03*
X0286236Y0294504D03*
X0279543Y0268913D03*
X0275606Y0258677D03*
X0265370Y0268520D03*
X0252772Y0258677D03*
X0243323Y0259465D03*
X0240173Y0268913D03*
X0228362Y0269307D03*
X0228362Y0259071D03*
X0218913Y0258283D03*
X0207890Y0258283D03*
X0196866Y0256709D03*
X0185449Y0256709D03*
X0173244Y0257102D03*
X0164189Y0256709D03*
X0154740Y0250803D03*
X0149228Y0257496D03*
X0138598Y0263008D03*
X0129150Y0253165D03*
X0121276Y0243323D03*
X0130724Y0238598D03*
X0143717Y0238992D03*
X0130331Y0228362D03*
X0119701Y0228362D03*
X0111827Y0261039D03*
X0159071Y0268126D03*
X0168126Y0268126D03*
X0178362Y0267732D03*
X0200409Y0269701D03*
X0217732Y0269701D03*
X0237417Y0296079D03*
X0198441Y0296866D03*
X0207102Y0244504D03*
X0196472Y0242535D03*
X0183087Y0242535D03*
X0167339Y0241748D03*
X0216551Y0243717D03*
X0293717Y0259071D03*
X0294504Y0268913D03*
X0305921Y0259071D03*
X0310646Y0268913D03*
X0324819Y0258677D03*
X0353953Y0259071D03*
X0353953Y0264189D03*
X0353953Y0268913D03*
X0353559Y0274031D03*
X0353559Y0279150D03*
X0353559Y0284661D03*
X0375213Y0276787D03*
X0375213Y0257102D03*
X0371276Y0243717D03*
X0375213Y0237417D03*
X0371669Y0231906D03*
X0375213Y0217732D03*
X0375213Y0198047D03*
X0375213Y0178362D03*
X0317339Y0174819D03*
X0333874Y0218064D03*
X0353953Y0253953D03*
X0375213Y0296472D03*
X0375213Y0316157D03*
X0146472Y0174819D03*
X0149228Y0164189D03*
X0156315Y0153165D03*
X0157890Y0138992D03*
X0133480Y0138992D03*
X0131118Y0153165D03*
X0126394Y0164189D03*
X0118913Y0174819D03*
D18*
X0078415Y0061093D02*
X0078415Y0300750D01*
X0119864Y0300750D01*
X0121620Y0301477D01*
X0122964Y0302821D01*
X0123691Y0304577D01*
X0123691Y0309018D01*
X0162383Y0309018D01*
X0164139Y0309745D01*
X0164139Y0309745D01*
X0165483Y0311089D01*
X0166211Y0312845D01*
X0166211Y0319254D01*
X0377915Y0319254D01*
X0377915Y0049281D01*
X0185108Y0049281D01*
X0185108Y0056663D01*
X0185108Y0057265D01*
X0184381Y0059021D01*
X0184381Y0059021D01*
X0183037Y0060365D01*
X0181281Y0061093D01*
X0078415Y0061093D01*
X0078415Y0061429D02*
X0211379Y0061429D01*
X0211553Y0061254D02*
X0212345Y0060679D01*
X0213218Y0060234D01*
X0214149Y0059931D01*
X0215117Y0059778D01*
X0215409Y0059778D01*
X0215409Y0065803D01*
X0209384Y0065803D01*
X0209384Y0065510D01*
X0209538Y0064543D01*
X0209840Y0063612D01*
X0210285Y0062739D01*
X0210861Y0061947D01*
X0211553Y0061254D01*
X0211853Y0061036D02*
X0181416Y0061036D01*
X0182363Y0060644D02*
X0212413Y0060644D01*
X0213183Y0060252D02*
X0183150Y0060252D01*
X0183037Y0060365D02*
X0183037Y0060365D01*
X0183542Y0059860D02*
X0214601Y0059860D01*
X0215409Y0059860D02*
X0215803Y0059860D01*
X0215803Y0059778D02*
X0216096Y0059778D01*
X0217063Y0059931D01*
X0217995Y0060234D01*
X0218867Y0060679D01*
X0219660Y0061254D01*
X0220352Y0061947D01*
X0220928Y0062739D01*
X0221372Y0063612D01*
X0221675Y0064543D01*
X0221828Y0065510D01*
X0221828Y0065803D01*
X0215803Y0065803D01*
X0215803Y0059778D01*
X0215803Y0060252D02*
X0215409Y0060252D01*
X0215409Y0060644D02*
X0215803Y0060644D01*
X0215803Y0061036D02*
X0215409Y0061036D01*
X0215409Y0061429D02*
X0215803Y0061429D01*
X0215803Y0061821D02*
X0215409Y0061821D01*
X0215409Y0062213D02*
X0215803Y0062213D01*
X0215803Y0062605D02*
X0215409Y0062605D01*
X0215409Y0062997D02*
X0215803Y0062997D01*
X0215803Y0063390D02*
X0215409Y0063390D01*
X0215409Y0063782D02*
X0215803Y0063782D01*
X0215803Y0064174D02*
X0215409Y0064174D01*
X0215409Y0064566D02*
X0215803Y0064566D01*
X0215803Y0064959D02*
X0215409Y0064959D01*
X0215409Y0065351D02*
X0215803Y0065351D01*
X0215803Y0065743D02*
X0215409Y0065743D01*
X0215409Y0065803D02*
X0215803Y0065803D01*
X0215803Y0066197D01*
X0215409Y0066197D01*
X0215409Y0065803D01*
X0215409Y0066135D02*
X0127914Y0066135D01*
X0127751Y0065743D02*
X0209384Y0065743D01*
X0209410Y0065351D02*
X0127469Y0065351D01*
X0127674Y0065556D02*
X0128894Y0068501D01*
X0128894Y0071688D01*
X0127674Y0074633D01*
X0125420Y0076887D01*
X0122476Y0078106D01*
X0119288Y0078106D01*
X0116344Y0076887D01*
X0114090Y0074633D01*
X0112870Y0071688D01*
X0112870Y0068501D01*
X0114090Y0065556D01*
X0116344Y0063302D01*
X0119288Y0062083D01*
X0122476Y0062083D01*
X0125420Y0063302D01*
X0127674Y0065556D01*
X0127076Y0064959D02*
X0209472Y0064959D01*
X0209534Y0064566D02*
X0126684Y0064566D01*
X0126292Y0064174D02*
X0209658Y0064174D01*
X0209785Y0063782D02*
X0125900Y0063782D01*
X0125507Y0063390D02*
X0209953Y0063390D01*
X0210153Y0062997D02*
X0124684Y0062997D01*
X0123737Y0062605D02*
X0210382Y0062605D01*
X0210667Y0062213D02*
X0122790Y0062213D01*
X0118974Y0062213D02*
X0078415Y0062213D01*
X0078415Y0061821D02*
X0210986Y0061821D01*
X0209384Y0066197D02*
X0215409Y0066197D01*
X0215409Y0072222D01*
X0215117Y0072222D01*
X0214149Y0072069D01*
X0213218Y0071766D01*
X0212345Y0071321D01*
X0211553Y0070746D01*
X0210861Y0070053D01*
X0210285Y0069261D01*
X0209840Y0068388D01*
X0209538Y0067457D01*
X0209384Y0066490D01*
X0209384Y0066197D01*
X0209390Y0066527D02*
X0128076Y0066527D01*
X0128239Y0066920D02*
X0209453Y0066920D01*
X0209515Y0067312D02*
X0128401Y0067312D01*
X0128564Y0067704D02*
X0209618Y0067704D01*
X0209745Y0068096D02*
X0128726Y0068096D01*
X0128889Y0068488D02*
X0209891Y0068488D01*
X0210091Y0068881D02*
X0128894Y0068881D01*
X0128894Y0069273D02*
X0210294Y0069273D01*
X0210578Y0069665D02*
X0128894Y0069665D01*
X0128894Y0070057D02*
X0210865Y0070057D01*
X0211257Y0070449D02*
X0128894Y0070449D01*
X0128894Y0070842D02*
X0211685Y0070842D01*
X0212225Y0071234D02*
X0128894Y0071234D01*
X0128894Y0071626D02*
X0212943Y0071626D01*
X0213995Y0072018D02*
X0128757Y0072018D01*
X0128594Y0072411D02*
X0221634Y0072411D01*
X0221242Y0072803D02*
X0128432Y0072803D01*
X0128270Y0073195D02*
X0220981Y0073195D01*
X0221073Y0072971D02*
X0222578Y0071467D01*
X0224543Y0070653D01*
X0226670Y0070653D01*
X0228635Y0071467D01*
X0230139Y0072971D01*
X0230953Y0074936D01*
X0230953Y0077064D01*
X0230139Y0079029D01*
X0228635Y0080533D01*
X0226670Y0081347D01*
X0224543Y0081347D01*
X0222578Y0080533D01*
X0221073Y0079029D01*
X0220259Y0077064D01*
X0220259Y0074936D01*
X0221073Y0072971D01*
X0220818Y0073587D02*
X0128107Y0073587D01*
X0127945Y0073979D02*
X0220656Y0073979D01*
X0220493Y0074372D02*
X0127782Y0074372D01*
X0127543Y0074764D02*
X0220331Y0074764D01*
X0220259Y0075156D02*
X0127151Y0075156D01*
X0126759Y0075548D02*
X0220259Y0075548D01*
X0220259Y0075940D02*
X0126366Y0075940D01*
X0125974Y0076333D02*
X0220259Y0076333D01*
X0220259Y0076725D02*
X0125582Y0076725D01*
X0124864Y0077117D02*
X0220282Y0077117D01*
X0220444Y0077509D02*
X0123917Y0077509D01*
X0122970Y0077902D02*
X0220607Y0077902D01*
X0220769Y0078294D02*
X0078415Y0078294D01*
X0078415Y0078686D02*
X0220931Y0078686D01*
X0221123Y0079078D02*
X0078415Y0079078D01*
X0078415Y0079470D02*
X0221515Y0079470D01*
X0221907Y0079863D02*
X0216629Y0079863D01*
X0217063Y0079931D02*
X0217995Y0080234D01*
X0218867Y0080679D01*
X0219660Y0081254D01*
X0220352Y0081947D01*
X0220928Y0082739D01*
X0221372Y0083612D01*
X0221675Y0084543D01*
X0221828Y0085510D01*
X0221828Y0085803D01*
X0215803Y0085803D01*
X0215803Y0079778D01*
X0216096Y0079778D01*
X0217063Y0079931D01*
X0218035Y0080255D02*
X0222300Y0080255D01*
X0222853Y0080647D02*
X0218805Y0080647D01*
X0219364Y0081039D02*
X0223800Y0081039D01*
X0220833Y0082608D02*
X0230380Y0082608D01*
X0230285Y0082739D02*
X0230861Y0081947D01*
X0231553Y0081254D01*
X0232345Y0080679D01*
X0233218Y0080234D01*
X0234149Y0079931D01*
X0235117Y0079778D01*
X0235409Y0079778D01*
X0235409Y0085803D01*
X0229384Y0085803D01*
X0229384Y0085510D01*
X0229538Y0084543D01*
X0229840Y0083612D01*
X0230285Y0082739D01*
X0230152Y0083000D02*
X0221061Y0083000D01*
X0221261Y0083392D02*
X0229952Y0083392D01*
X0229784Y0083785D02*
X0221429Y0083785D01*
X0221556Y0084177D02*
X0229657Y0084177D01*
X0229534Y0084569D02*
X0221679Y0084569D01*
X0221741Y0084961D02*
X0229471Y0084961D01*
X0229409Y0085354D02*
X0221803Y0085354D01*
X0221828Y0085746D02*
X0229384Y0085746D01*
X0229384Y0086197D02*
X0235409Y0086197D01*
X0235409Y0085803D01*
X0235803Y0085803D01*
X0235803Y0079778D01*
X0236096Y0079778D01*
X0237063Y0079931D01*
X0237995Y0080234D01*
X0238867Y0080679D01*
X0239660Y0081254D01*
X0240352Y0081947D01*
X0240928Y0082739D01*
X0241372Y0083612D01*
X0241675Y0084543D01*
X0241828Y0085510D01*
X0241828Y0085803D01*
X0235803Y0085803D01*
X0235803Y0086197D01*
X0235409Y0086197D01*
X0235409Y0092222D01*
X0235117Y0092222D01*
X0234149Y0092069D01*
X0233218Y0091766D01*
X0232345Y0091321D01*
X0231553Y0090746D01*
X0230861Y0090053D01*
X0230285Y0089261D01*
X0229840Y0088388D01*
X0229538Y0087457D01*
X0229384Y0086490D01*
X0229384Y0086197D01*
X0229391Y0086530D02*
X0221822Y0086530D01*
X0221828Y0086490D02*
X0221675Y0087457D01*
X0221372Y0088388D01*
X0220928Y0089261D01*
X0220352Y0090053D01*
X0219660Y0090746D01*
X0218867Y0091321D01*
X0217995Y0091766D01*
X0217063Y0092069D01*
X0216096Y0092222D01*
X0215803Y0092222D01*
X0215803Y0086197D01*
X0215409Y0086197D01*
X0215409Y0085803D01*
X0209384Y0085803D01*
X0209384Y0085510D01*
X0209538Y0084543D01*
X0209840Y0083612D01*
X0210285Y0082739D01*
X0210861Y0081947D01*
X0211553Y0081254D01*
X0212345Y0080679D01*
X0213218Y0080234D01*
X0214149Y0079931D01*
X0215117Y0079778D01*
X0215409Y0079778D01*
X0215409Y0085803D01*
X0215803Y0085803D01*
X0215803Y0086197D01*
X0221828Y0086197D01*
X0221828Y0086490D01*
X0221760Y0086922D02*
X0229453Y0086922D01*
X0229515Y0087315D02*
X0221697Y0087315D01*
X0221594Y0087707D02*
X0229619Y0087707D01*
X0229746Y0088099D02*
X0221466Y0088099D01*
X0221320Y0088491D02*
X0229893Y0088491D01*
X0230093Y0088883D02*
X0221120Y0088883D01*
X0220917Y0089276D02*
X0230296Y0089276D01*
X0230581Y0089668D02*
X0220632Y0089668D01*
X0220345Y0090060D02*
X0230867Y0090060D01*
X0231260Y0090452D02*
X0219953Y0090452D01*
X0219524Y0090845D02*
X0231689Y0090845D01*
X0232229Y0091237D02*
X0218984Y0091237D01*
X0218264Y0091629D02*
X0232949Y0091629D01*
X0234003Y0092021D02*
X0217209Y0092021D01*
X0215803Y0092021D02*
X0215409Y0092021D01*
X0215409Y0092222D02*
X0215117Y0092222D01*
X0214149Y0092069D01*
X0213218Y0091766D01*
X0212345Y0091321D01*
X0211553Y0090746D01*
X0210861Y0090053D01*
X0210285Y0089261D01*
X0209840Y0088388D01*
X0209538Y0087457D01*
X0209384Y0086490D01*
X0209384Y0086197D01*
X0215409Y0086197D01*
X0215409Y0092222D01*
X0215409Y0091629D02*
X0215803Y0091629D01*
X0215803Y0091237D02*
X0215409Y0091237D01*
X0215409Y0090845D02*
X0215803Y0090845D01*
X0215803Y0090452D02*
X0215409Y0090452D01*
X0215409Y0090060D02*
X0215803Y0090060D01*
X0215803Y0089668D02*
X0215409Y0089668D01*
X0215409Y0089276D02*
X0215803Y0089276D01*
X0215803Y0088883D02*
X0215409Y0088883D01*
X0215409Y0088491D02*
X0215803Y0088491D01*
X0215803Y0088099D02*
X0215409Y0088099D01*
X0215409Y0087707D02*
X0215803Y0087707D01*
X0215803Y0087315D02*
X0215409Y0087315D01*
X0215409Y0086922D02*
X0215803Y0086922D01*
X0215803Y0086530D02*
X0215409Y0086530D01*
X0215409Y0086138D02*
X0129582Y0086138D01*
X0129749Y0086305D02*
X0130260Y0087537D01*
X0130260Y0088872D01*
X0129749Y0090105D01*
X0128806Y0091048D01*
X0127573Y0091559D01*
X0126238Y0091559D01*
X0125005Y0091048D01*
X0124062Y0090105D01*
X0123551Y0088872D01*
X0123551Y0087537D01*
X0124062Y0086305D01*
X0125005Y0085361D01*
X0126238Y0084850D01*
X0127573Y0084850D01*
X0128806Y0085361D01*
X0129749Y0086305D01*
X0129843Y0086530D02*
X0209391Y0086530D01*
X0209453Y0086922D02*
X0130005Y0086922D01*
X0130167Y0087315D02*
X0209515Y0087315D01*
X0209619Y0087707D02*
X0130260Y0087707D01*
X0130260Y0088099D02*
X0209746Y0088099D01*
X0209893Y0088491D02*
X0130260Y0088491D01*
X0130255Y0088883D02*
X0210093Y0088883D01*
X0210296Y0089276D02*
X0130093Y0089276D01*
X0129930Y0089668D02*
X0210581Y0089668D01*
X0210867Y0090060D02*
X0129768Y0090060D01*
X0129402Y0090452D02*
X0211260Y0090452D01*
X0211689Y0090845D02*
X0129009Y0090845D01*
X0128351Y0091237D02*
X0212229Y0091237D01*
X0212949Y0091629D02*
X0118711Y0091629D01*
X0118731Y0091620D02*
X0118030Y0091911D01*
X0117285Y0092059D01*
X0117102Y0092059D01*
X0117102Y0088402D01*
X0116709Y0088402D01*
X0116709Y0092059D01*
X0116526Y0092059D01*
X0115781Y0091911D01*
X0115080Y0091620D01*
X0114449Y0091199D01*
X0113912Y0090662D01*
X0113490Y0090030D01*
X0113199Y0089329D01*
X0113051Y0088584D01*
X0113051Y0088402D01*
X0116709Y0088402D01*
X0116709Y0088008D01*
X0117102Y0088008D01*
X0117102Y0084350D01*
X0117285Y0084350D01*
X0118030Y0084499D01*
X0118731Y0084789D01*
X0119362Y0085211D01*
X0119899Y0085748D01*
X0120321Y0086379D01*
X0120612Y0087080D01*
X0120760Y0087825D01*
X0120760Y0088008D01*
X0117102Y0088008D01*
X0117102Y0088402D01*
X0120760Y0088402D01*
X0120760Y0088584D01*
X0120612Y0089329D01*
X0120321Y0090030D01*
X0119899Y0090662D01*
X0119362Y0091199D01*
X0118731Y0091620D01*
X0119305Y0091237D02*
X0125460Y0091237D01*
X0124802Y0090845D02*
X0119717Y0090845D01*
X0120039Y0090452D02*
X0124409Y0090452D01*
X0124043Y0090060D02*
X0120301Y0090060D01*
X0120471Y0089668D02*
X0123881Y0089668D01*
X0123718Y0089276D02*
X0120622Y0089276D01*
X0120700Y0088883D02*
X0123556Y0088883D01*
X0123551Y0088491D02*
X0120760Y0088491D01*
X0120736Y0087707D02*
X0123551Y0087707D01*
X0123551Y0088099D02*
X0117102Y0088099D01*
X0117102Y0087707D02*
X0116709Y0087707D01*
X0116709Y0088008D02*
X0116709Y0084350D01*
X0116526Y0084350D01*
X0115781Y0084499D01*
X0115080Y0084789D01*
X0114449Y0085211D01*
X0113912Y0085748D01*
X0113490Y0086379D01*
X0113199Y0087080D01*
X0113051Y0087825D01*
X0113051Y0088008D01*
X0116709Y0088008D01*
X0116709Y0088099D02*
X0110260Y0088099D01*
X0110260Y0087707D02*
X0113075Y0087707D01*
X0113153Y0087315D02*
X0110167Y0087315D01*
X0110260Y0087537D02*
X0109749Y0086305D01*
X0108806Y0085361D01*
X0107573Y0084850D01*
X0106238Y0084850D01*
X0105005Y0085361D01*
X0104062Y0086305D01*
X0103551Y0087537D01*
X0103551Y0088872D01*
X0104062Y0090105D01*
X0105005Y0091048D01*
X0106238Y0091559D01*
X0107573Y0091559D01*
X0108806Y0091048D01*
X0109749Y0090105D01*
X0110260Y0088872D01*
X0110260Y0087537D01*
X0110005Y0086922D02*
X0113265Y0086922D01*
X0113427Y0086530D02*
X0109843Y0086530D01*
X0109582Y0086138D02*
X0113651Y0086138D01*
X0113914Y0085746D02*
X0109190Y0085746D01*
X0108787Y0085354D02*
X0114306Y0085354D01*
X0114822Y0084961D02*
X0107841Y0084961D01*
X0105970Y0084961D02*
X0098989Y0084961D01*
X0098731Y0084789D02*
X0099362Y0085211D01*
X0099899Y0085748D01*
X0100321Y0086379D01*
X0100612Y0087080D01*
X0100760Y0087825D01*
X0100760Y0088008D01*
X0097102Y0088008D01*
X0097102Y0084350D01*
X0097285Y0084350D01*
X0098030Y0084499D01*
X0098731Y0084789D01*
X0098200Y0084569D02*
X0115611Y0084569D01*
X0116709Y0084569D02*
X0117102Y0084569D01*
X0117102Y0084961D02*
X0116709Y0084961D01*
X0116709Y0085354D02*
X0117102Y0085354D01*
X0117102Y0085746D02*
X0116709Y0085746D01*
X0116709Y0086138D02*
X0117102Y0086138D01*
X0117102Y0086530D02*
X0116709Y0086530D01*
X0116709Y0086922D02*
X0117102Y0086922D01*
X0117102Y0087315D02*
X0116709Y0087315D01*
X0116709Y0088491D02*
X0117102Y0088491D01*
X0117102Y0088883D02*
X0116709Y0088883D01*
X0116709Y0089276D02*
X0117102Y0089276D01*
X0117102Y0089668D02*
X0116709Y0089668D01*
X0116709Y0090060D02*
X0117102Y0090060D01*
X0117102Y0090452D02*
X0116709Y0090452D01*
X0116709Y0090845D02*
X0117102Y0090845D01*
X0117102Y0091237D02*
X0116709Y0091237D01*
X0116709Y0091629D02*
X0117102Y0091629D01*
X0117102Y0092021D02*
X0116709Y0092021D01*
X0116335Y0092021D02*
X0097476Y0092021D01*
X0097285Y0092059D02*
X0097102Y0092059D01*
X0097102Y0088402D01*
X0096709Y0088402D01*
X0096709Y0092059D01*
X0096526Y0092059D01*
X0095781Y0091911D01*
X0095080Y0091620D01*
X0094449Y0091199D01*
X0093912Y0090662D01*
X0093490Y0090030D01*
X0093199Y0089329D01*
X0093051Y0088584D01*
X0093051Y0088402D01*
X0096709Y0088402D01*
X0096709Y0088008D01*
X0097102Y0088008D01*
X0097102Y0088402D01*
X0100760Y0088402D01*
X0100760Y0088584D01*
X0100612Y0089329D01*
X0100321Y0090030D01*
X0099899Y0090662D01*
X0099362Y0091199D01*
X0098731Y0091620D01*
X0098030Y0091911D01*
X0097285Y0092059D01*
X0097102Y0092021D02*
X0096709Y0092021D01*
X0096335Y0092021D02*
X0078415Y0092021D01*
X0078415Y0091629D02*
X0095100Y0091629D01*
X0094506Y0091237D02*
X0078415Y0091237D01*
X0078415Y0090845D02*
X0094094Y0090845D01*
X0093772Y0090452D02*
X0078415Y0090452D01*
X0078415Y0090060D02*
X0093510Y0090060D01*
X0093340Y0089668D02*
X0078415Y0089668D01*
X0078415Y0089276D02*
X0093189Y0089276D01*
X0093111Y0088883D02*
X0078415Y0088883D01*
X0078415Y0088491D02*
X0093051Y0088491D01*
X0093051Y0088008D02*
X0093051Y0087825D01*
X0093199Y0087080D01*
X0093490Y0086379D01*
X0093912Y0085748D01*
X0094449Y0085211D01*
X0095080Y0084789D01*
X0095781Y0084499D01*
X0096526Y0084350D01*
X0096709Y0084350D01*
X0096709Y0088008D01*
X0093051Y0088008D01*
X0093075Y0087707D02*
X0078415Y0087707D01*
X0078415Y0088099D02*
X0096709Y0088099D01*
X0096709Y0087707D02*
X0097102Y0087707D01*
X0097102Y0088099D02*
X0103551Y0088099D01*
X0103551Y0087707D02*
X0100736Y0087707D01*
X0100658Y0087315D02*
X0103644Y0087315D01*
X0103806Y0086922D02*
X0100546Y0086922D01*
X0100384Y0086530D02*
X0103968Y0086530D01*
X0104229Y0086138D02*
X0100160Y0086138D01*
X0099897Y0085746D02*
X0104621Y0085746D01*
X0105024Y0085354D02*
X0099505Y0085354D01*
X0097102Y0085354D02*
X0096709Y0085354D01*
X0096709Y0085746D02*
X0097102Y0085746D01*
X0097102Y0086138D02*
X0096709Y0086138D01*
X0096709Y0086530D02*
X0097102Y0086530D01*
X0097102Y0086922D02*
X0096709Y0086922D01*
X0096709Y0087315D02*
X0097102Y0087315D01*
X0097102Y0088491D02*
X0096709Y0088491D01*
X0096709Y0088883D02*
X0097102Y0088883D01*
X0097102Y0089276D02*
X0096709Y0089276D01*
X0096709Y0089668D02*
X0097102Y0089668D01*
X0097102Y0090060D02*
X0096709Y0090060D01*
X0096709Y0090452D02*
X0097102Y0090452D01*
X0097102Y0090845D02*
X0096709Y0090845D01*
X0096709Y0091237D02*
X0097102Y0091237D01*
X0097102Y0091629D02*
X0096709Y0091629D01*
X0098711Y0091629D02*
X0115100Y0091629D01*
X0114506Y0091237D02*
X0108351Y0091237D01*
X0109009Y0090845D02*
X0114094Y0090845D01*
X0113772Y0090452D02*
X0109402Y0090452D01*
X0109768Y0090060D02*
X0113510Y0090060D01*
X0113340Y0089668D02*
X0109930Y0089668D01*
X0110093Y0089276D02*
X0113189Y0089276D01*
X0113111Y0088883D02*
X0110255Y0088883D01*
X0110260Y0088491D02*
X0113051Y0088491D01*
X0117476Y0092021D02*
X0214003Y0092021D01*
X0215803Y0086138D02*
X0235409Y0086138D01*
X0235409Y0086530D02*
X0235803Y0086530D01*
X0235803Y0086197D02*
X0235803Y0092222D01*
X0236096Y0092222D01*
X0237063Y0092069D01*
X0237995Y0091766D01*
X0238867Y0091321D01*
X0239660Y0090746D01*
X0240352Y0090053D01*
X0240928Y0089261D01*
X0241372Y0088388D01*
X0241675Y0087457D01*
X0241828Y0086490D01*
X0241828Y0086197D01*
X0235803Y0086197D01*
X0235803Y0086138D02*
X0254779Y0086138D01*
X0254779Y0086197D02*
X0254779Y0085803D01*
X0248755Y0085803D01*
X0248755Y0085510D01*
X0248908Y0084543D01*
X0249210Y0083612D01*
X0249655Y0082739D01*
X0250231Y0081947D01*
X0250923Y0081254D01*
X0251715Y0080679D01*
X0252588Y0080234D01*
X0253519Y0079931D01*
X0254487Y0079778D01*
X0254780Y0079778D01*
X0254780Y0085803D01*
X0255173Y0085803D01*
X0255173Y0079778D01*
X0255466Y0079778D01*
X0256433Y0079931D01*
X0257365Y0080234D01*
X0258237Y0080679D01*
X0259030Y0081254D01*
X0259722Y0081947D01*
X0260298Y0082739D01*
X0260742Y0083612D01*
X0261045Y0084543D01*
X0261198Y0085510D01*
X0261198Y0085803D01*
X0255173Y0085803D01*
X0255173Y0086197D01*
X0254780Y0086197D01*
X0254780Y0092222D01*
X0254487Y0092222D01*
X0253519Y0092069D01*
X0252588Y0091766D01*
X0251715Y0091321D01*
X0250923Y0090746D01*
X0250231Y0090053D01*
X0249655Y0089261D01*
X0249210Y0088388D01*
X0248908Y0087457D01*
X0248755Y0086490D01*
X0248755Y0086197D01*
X0254779Y0086197D01*
X0254780Y0086530D02*
X0255173Y0086530D01*
X0255173Y0086197D02*
X0255173Y0092222D01*
X0255466Y0092222D01*
X0256433Y0092069D01*
X0257365Y0091766D01*
X0258237Y0091321D01*
X0259030Y0090746D01*
X0259722Y0090053D01*
X0260298Y0089261D01*
X0260742Y0088388D01*
X0261045Y0087457D01*
X0261198Y0086490D01*
X0261198Y0086197D01*
X0255173Y0086197D01*
X0255173Y0086138D02*
X0274779Y0086138D01*
X0274779Y0086197D02*
X0274779Y0085803D01*
X0268755Y0085803D01*
X0268755Y0085510D01*
X0268908Y0084543D01*
X0269210Y0083612D01*
X0269655Y0082739D01*
X0270231Y0081947D01*
X0270923Y0081254D01*
X0271715Y0080679D01*
X0272588Y0080234D01*
X0273519Y0079931D01*
X0274487Y0079778D01*
X0274780Y0079778D01*
X0274780Y0085803D01*
X0275173Y0085803D01*
X0275173Y0079778D01*
X0275466Y0079778D01*
X0276433Y0079931D01*
X0277365Y0080234D01*
X0278237Y0080679D01*
X0279030Y0081254D01*
X0279722Y0081947D01*
X0280298Y0082739D01*
X0280742Y0083612D01*
X0281045Y0084543D01*
X0281198Y0085510D01*
X0281198Y0085803D01*
X0275173Y0085803D01*
X0275173Y0086197D01*
X0274780Y0086197D01*
X0274780Y0092222D01*
X0274487Y0092222D01*
X0273519Y0092069D01*
X0272588Y0091766D01*
X0271715Y0091321D01*
X0270923Y0090746D01*
X0270231Y0090053D01*
X0269655Y0089261D01*
X0269210Y0088388D01*
X0268908Y0087457D01*
X0268755Y0086490D01*
X0268755Y0086197D01*
X0274779Y0086197D01*
X0274780Y0086530D02*
X0275173Y0086530D01*
X0275173Y0086197D02*
X0275173Y0092222D01*
X0275466Y0092222D01*
X0276433Y0092069D01*
X0277365Y0091766D01*
X0278237Y0091321D01*
X0279030Y0090746D01*
X0279722Y0090053D01*
X0280298Y0089261D01*
X0280742Y0088388D01*
X0281045Y0087457D01*
X0281198Y0086490D01*
X0281198Y0086197D01*
X0275173Y0086197D01*
X0275173Y0086138D02*
X0377915Y0086138D01*
X0377915Y0086530D02*
X0281192Y0086530D01*
X0281130Y0086922D02*
X0377915Y0086922D01*
X0377915Y0087315D02*
X0281068Y0087315D01*
X0280964Y0087707D02*
X0377915Y0087707D01*
X0377915Y0088099D02*
X0280836Y0088099D01*
X0280690Y0088491D02*
X0377915Y0088491D01*
X0377915Y0088883D02*
X0280490Y0088883D01*
X0280287Y0089276D02*
X0377915Y0089276D01*
X0377915Y0089668D02*
X0280002Y0089668D01*
X0279715Y0090060D02*
X0377915Y0090060D01*
X0377915Y0090452D02*
X0279323Y0090452D01*
X0278894Y0090845D02*
X0377915Y0090845D01*
X0377915Y0091237D02*
X0278354Y0091237D01*
X0277634Y0091629D02*
X0377915Y0091629D01*
X0377915Y0092021D02*
X0276579Y0092021D01*
X0275173Y0092021D02*
X0274780Y0092021D01*
X0274780Y0091629D02*
X0275173Y0091629D01*
X0275173Y0091237D02*
X0274780Y0091237D01*
X0274780Y0090845D02*
X0275173Y0090845D01*
X0275173Y0090452D02*
X0274780Y0090452D01*
X0274780Y0090060D02*
X0275173Y0090060D01*
X0275173Y0089668D02*
X0274780Y0089668D01*
X0274780Y0089276D02*
X0275173Y0089276D01*
X0275173Y0088883D02*
X0274780Y0088883D01*
X0274780Y0088491D02*
X0275173Y0088491D01*
X0275173Y0088099D02*
X0274780Y0088099D01*
X0274780Y0087707D02*
X0275173Y0087707D01*
X0275173Y0087315D02*
X0274780Y0087315D01*
X0274780Y0086922D02*
X0275173Y0086922D01*
X0275173Y0085746D02*
X0274780Y0085746D01*
X0274780Y0085354D02*
X0275173Y0085354D01*
X0275173Y0084961D02*
X0274780Y0084961D01*
X0274780Y0084569D02*
X0275173Y0084569D01*
X0275173Y0084177D02*
X0274780Y0084177D01*
X0274780Y0083785D02*
X0275173Y0083785D01*
X0275173Y0083392D02*
X0274780Y0083392D01*
X0274780Y0083000D02*
X0275173Y0083000D01*
X0275173Y0082608D02*
X0274780Y0082608D01*
X0274780Y0082216D02*
X0275173Y0082216D01*
X0275173Y0081824D02*
X0274780Y0081824D01*
X0274780Y0081431D02*
X0275173Y0081431D01*
X0275173Y0081039D02*
X0274780Y0081039D01*
X0274780Y0080647D02*
X0275173Y0080647D01*
X0275173Y0080255D02*
X0274780Y0080255D01*
X0274780Y0079863D02*
X0275173Y0079863D01*
X0275999Y0079863D02*
X0341749Y0079863D01*
X0341909Y0080023D02*
X0341012Y0079125D01*
X0340526Y0077952D01*
X0340526Y0076683D01*
X0341012Y0075510D01*
X0341909Y0074613D01*
X0343082Y0074127D01*
X0344351Y0074127D01*
X0345524Y0074613D01*
X0346421Y0075510D01*
X0346907Y0076683D01*
X0346907Y0077952D01*
X0346421Y0079125D01*
X0345524Y0080023D01*
X0344351Y0080508D01*
X0343082Y0080508D01*
X0341909Y0080023D01*
X0342470Y0080255D02*
X0277406Y0080255D01*
X0278175Y0080647D02*
X0377915Y0080647D01*
X0377915Y0081039D02*
X0278734Y0081039D01*
X0279207Y0081431D02*
X0377915Y0081431D01*
X0377915Y0081824D02*
X0279599Y0081824D01*
X0279918Y0082216D02*
X0377915Y0082216D01*
X0377915Y0082608D02*
X0280203Y0082608D01*
X0280431Y0083000D02*
X0377915Y0083000D01*
X0377915Y0083392D02*
X0280631Y0083392D01*
X0280799Y0083785D02*
X0377915Y0083785D01*
X0377915Y0084177D02*
X0280926Y0084177D01*
X0281049Y0084569D02*
X0377915Y0084569D01*
X0377915Y0084961D02*
X0281111Y0084961D01*
X0281173Y0085354D02*
X0377915Y0085354D01*
X0377915Y0085746D02*
X0281198Y0085746D01*
X0273954Y0079863D02*
X0268675Y0079863D01*
X0268283Y0080255D02*
X0272547Y0080255D01*
X0271777Y0080647D02*
X0267729Y0080647D01*
X0268005Y0080533D02*
X0266040Y0081347D01*
X0263913Y0081347D01*
X0261948Y0080533D01*
X0260444Y0079029D01*
X0259630Y0077064D01*
X0259630Y0074936D01*
X0260444Y0072971D01*
X0261948Y0071467D01*
X0263913Y0070653D01*
X0266040Y0070653D01*
X0268005Y0071467D01*
X0269509Y0072971D01*
X0270323Y0074936D01*
X0270323Y0077064D01*
X0269509Y0079029D01*
X0268005Y0080533D01*
X0266783Y0081039D02*
X0271219Y0081039D01*
X0270746Y0081431D02*
X0259207Y0081431D01*
X0259599Y0081824D02*
X0270354Y0081824D01*
X0270035Y0082216D02*
X0259918Y0082216D01*
X0260203Y0082608D02*
X0269750Y0082608D01*
X0269522Y0083000D02*
X0260431Y0083000D01*
X0260631Y0083392D02*
X0269322Y0083392D01*
X0269154Y0083785D02*
X0260799Y0083785D01*
X0260926Y0084177D02*
X0269027Y0084177D01*
X0268904Y0084569D02*
X0261049Y0084569D01*
X0261111Y0084961D02*
X0268841Y0084961D01*
X0268779Y0085354D02*
X0261173Y0085354D01*
X0261198Y0085746D02*
X0268755Y0085746D01*
X0268761Y0086530D02*
X0261192Y0086530D01*
X0261130Y0086922D02*
X0268823Y0086922D01*
X0268885Y0087315D02*
X0261068Y0087315D01*
X0260964Y0087707D02*
X0268989Y0087707D01*
X0269116Y0088099D02*
X0260836Y0088099D01*
X0260690Y0088491D02*
X0269263Y0088491D01*
X0269463Y0088883D02*
X0260490Y0088883D01*
X0260287Y0089276D02*
X0269666Y0089276D01*
X0269951Y0089668D02*
X0260002Y0089668D01*
X0259715Y0090060D02*
X0270237Y0090060D01*
X0270630Y0090452D02*
X0259323Y0090452D01*
X0258894Y0090845D02*
X0271059Y0090845D01*
X0271599Y0091237D02*
X0258354Y0091237D01*
X0257634Y0091629D02*
X0272319Y0091629D01*
X0273373Y0092021D02*
X0256579Y0092021D01*
X0255173Y0092021D02*
X0254780Y0092021D01*
X0254780Y0091629D02*
X0255173Y0091629D01*
X0255173Y0091237D02*
X0254780Y0091237D01*
X0254780Y0090845D02*
X0255173Y0090845D01*
X0255173Y0090452D02*
X0254780Y0090452D01*
X0254780Y0090060D02*
X0255173Y0090060D01*
X0255173Y0089668D02*
X0254780Y0089668D01*
X0254780Y0089276D02*
X0255173Y0089276D01*
X0255173Y0088883D02*
X0254780Y0088883D01*
X0254780Y0088491D02*
X0255173Y0088491D01*
X0255173Y0088099D02*
X0254780Y0088099D01*
X0254780Y0087707D02*
X0255173Y0087707D01*
X0255173Y0087315D02*
X0254780Y0087315D01*
X0254780Y0086922D02*
X0255173Y0086922D01*
X0255173Y0085746D02*
X0254780Y0085746D01*
X0254780Y0085354D02*
X0255173Y0085354D01*
X0255173Y0084961D02*
X0254780Y0084961D01*
X0254780Y0084569D02*
X0255173Y0084569D01*
X0255173Y0084177D02*
X0254780Y0084177D01*
X0254780Y0083785D02*
X0255173Y0083785D01*
X0255173Y0083392D02*
X0254780Y0083392D01*
X0254780Y0083000D02*
X0255173Y0083000D01*
X0255173Y0082608D02*
X0254780Y0082608D01*
X0254780Y0082216D02*
X0255173Y0082216D01*
X0255173Y0081824D02*
X0254780Y0081824D01*
X0254780Y0081431D02*
X0255173Y0081431D01*
X0255173Y0081039D02*
X0254780Y0081039D01*
X0254780Y0080647D02*
X0255173Y0080647D01*
X0255173Y0080255D02*
X0254780Y0080255D01*
X0254780Y0079863D02*
X0255173Y0079863D01*
X0255999Y0079863D02*
X0261277Y0079863D01*
X0261670Y0080255D02*
X0257406Y0080255D01*
X0258175Y0080647D02*
X0262223Y0080647D01*
X0263170Y0081039D02*
X0258734Y0081039D01*
X0260493Y0079078D02*
X0230090Y0079078D01*
X0230281Y0078686D02*
X0260302Y0078686D01*
X0260139Y0078294D02*
X0230444Y0078294D01*
X0230606Y0077902D02*
X0259977Y0077902D01*
X0259814Y0077509D02*
X0230769Y0077509D01*
X0230931Y0077117D02*
X0259652Y0077117D01*
X0259630Y0076725D02*
X0230953Y0076725D01*
X0230953Y0076333D02*
X0259630Y0076333D01*
X0259630Y0075940D02*
X0230953Y0075940D01*
X0230953Y0075548D02*
X0259630Y0075548D01*
X0259630Y0075156D02*
X0230953Y0075156D01*
X0230882Y0074764D02*
X0259701Y0074764D01*
X0259863Y0074372D02*
X0230719Y0074372D01*
X0230557Y0073979D02*
X0260026Y0073979D01*
X0260188Y0073587D02*
X0230394Y0073587D01*
X0230232Y0073195D02*
X0260351Y0073195D01*
X0260612Y0072803D02*
X0229971Y0072803D01*
X0229578Y0072411D02*
X0261004Y0072411D01*
X0261396Y0072018D02*
X0256588Y0072018D01*
X0256433Y0072069D02*
X0255466Y0072222D01*
X0255173Y0072222D01*
X0255173Y0066197D01*
X0254780Y0066197D01*
X0254780Y0072222D01*
X0254487Y0072222D01*
X0253519Y0072069D01*
X0252588Y0071766D01*
X0251715Y0071321D01*
X0250923Y0070746D01*
X0250231Y0070053D01*
X0249655Y0069261D01*
X0249210Y0068388D01*
X0248908Y0067457D01*
X0248755Y0066490D01*
X0248755Y0066197D01*
X0254779Y0066197D01*
X0254779Y0065803D01*
X0248755Y0065803D01*
X0248755Y0065510D01*
X0248908Y0064543D01*
X0249210Y0063612D01*
X0249655Y0062739D01*
X0250231Y0061947D01*
X0250923Y0061254D01*
X0251715Y0060679D01*
X0252588Y0060234D01*
X0253519Y0059931D01*
X0254487Y0059778D01*
X0254780Y0059778D01*
X0254780Y0065803D01*
X0255173Y0065803D01*
X0255173Y0059778D01*
X0255466Y0059778D01*
X0256433Y0059931D01*
X0257365Y0060234D01*
X0258237Y0060679D01*
X0259030Y0061254D01*
X0259722Y0061947D01*
X0260298Y0062739D01*
X0260742Y0063612D01*
X0261045Y0064543D01*
X0261198Y0065510D01*
X0261198Y0065803D01*
X0255173Y0065803D01*
X0255173Y0066197D01*
X0261198Y0066197D01*
X0261198Y0066490D01*
X0261045Y0067457D01*
X0260742Y0068388D01*
X0260298Y0069261D01*
X0259722Y0070053D01*
X0259030Y0070746D01*
X0258237Y0071321D01*
X0257365Y0071766D01*
X0256433Y0072069D01*
X0255173Y0072018D02*
X0254780Y0072018D01*
X0254780Y0071626D02*
X0255173Y0071626D01*
X0255173Y0071234D02*
X0254780Y0071234D01*
X0254780Y0070842D02*
X0255173Y0070842D01*
X0255173Y0070449D02*
X0254780Y0070449D01*
X0254780Y0070057D02*
X0255173Y0070057D01*
X0255173Y0069665D02*
X0254780Y0069665D01*
X0254780Y0069273D02*
X0255173Y0069273D01*
X0255173Y0068881D02*
X0254780Y0068881D01*
X0254780Y0068488D02*
X0255173Y0068488D01*
X0255173Y0068096D02*
X0254780Y0068096D01*
X0254780Y0067704D02*
X0255173Y0067704D01*
X0255173Y0067312D02*
X0254780Y0067312D01*
X0254780Y0066920D02*
X0255173Y0066920D01*
X0255173Y0066527D02*
X0254780Y0066527D01*
X0254779Y0066135D02*
X0235803Y0066135D01*
X0235803Y0066197D02*
X0241828Y0066197D01*
X0241828Y0066490D01*
X0241675Y0067457D01*
X0241372Y0068388D01*
X0240928Y0069261D01*
X0240352Y0070053D01*
X0239660Y0070746D01*
X0238867Y0071321D01*
X0237995Y0071766D01*
X0237063Y0072069D01*
X0236096Y0072222D01*
X0235803Y0072222D01*
X0235803Y0066197D01*
X0235409Y0066197D01*
X0235409Y0065803D01*
X0229384Y0065803D01*
X0229384Y0065510D01*
X0229538Y0064543D01*
X0229840Y0063612D01*
X0230285Y0062739D01*
X0230861Y0061947D01*
X0231553Y0061254D01*
X0232345Y0060679D01*
X0233218Y0060234D01*
X0234149Y0059931D01*
X0235117Y0059778D01*
X0235409Y0059778D01*
X0235409Y0065803D01*
X0235803Y0065803D01*
X0235803Y0059778D01*
X0236096Y0059778D01*
X0237063Y0059931D01*
X0237995Y0060234D01*
X0238867Y0060679D01*
X0239660Y0061254D01*
X0240352Y0061947D01*
X0240928Y0062739D01*
X0241372Y0063612D01*
X0241675Y0064543D01*
X0241828Y0065510D01*
X0241828Y0065803D01*
X0235803Y0065803D01*
X0235803Y0066197D01*
X0235803Y0066527D02*
X0235409Y0066527D01*
X0235409Y0066197D02*
X0235409Y0072222D01*
X0235117Y0072222D01*
X0234149Y0072069D01*
X0233218Y0071766D01*
X0232345Y0071321D01*
X0231553Y0070746D01*
X0230861Y0070053D01*
X0230285Y0069261D01*
X0229840Y0068388D01*
X0229538Y0067457D01*
X0229384Y0066490D01*
X0229384Y0066197D01*
X0235409Y0066197D01*
X0235409Y0066135D02*
X0215803Y0066135D01*
X0215803Y0066197D02*
X0221828Y0066197D01*
X0221828Y0066490D01*
X0221675Y0067457D01*
X0221372Y0068388D01*
X0220928Y0069261D01*
X0220352Y0070053D01*
X0219660Y0070746D01*
X0218867Y0071321D01*
X0217995Y0071766D01*
X0217063Y0072069D01*
X0216096Y0072222D01*
X0215803Y0072222D01*
X0215803Y0066197D01*
X0215803Y0066527D02*
X0215409Y0066527D01*
X0215409Y0066920D02*
X0215803Y0066920D01*
X0215803Y0067312D02*
X0215409Y0067312D01*
X0215409Y0067704D02*
X0215803Y0067704D01*
X0215803Y0068096D02*
X0215409Y0068096D01*
X0215409Y0068488D02*
X0215803Y0068488D01*
X0215803Y0068881D02*
X0215409Y0068881D01*
X0215409Y0069273D02*
X0215803Y0069273D01*
X0215803Y0069665D02*
X0215409Y0069665D01*
X0215409Y0070057D02*
X0215803Y0070057D01*
X0215803Y0070449D02*
X0215409Y0070449D01*
X0215409Y0070842D02*
X0215803Y0070842D01*
X0215803Y0071234D02*
X0215409Y0071234D01*
X0215409Y0071626D02*
X0215803Y0071626D01*
X0215803Y0072018D02*
X0215409Y0072018D01*
X0217218Y0072018D02*
X0222026Y0072018D01*
X0222419Y0071626D02*
X0218269Y0071626D01*
X0218988Y0071234D02*
X0223141Y0071234D01*
X0224088Y0070842D02*
X0219528Y0070842D01*
X0219956Y0070449D02*
X0231257Y0070449D01*
X0230865Y0070057D02*
X0220348Y0070057D01*
X0220634Y0069665D02*
X0230578Y0069665D01*
X0230294Y0069273D02*
X0220919Y0069273D01*
X0221121Y0068881D02*
X0230091Y0068881D01*
X0229891Y0068488D02*
X0221321Y0068488D01*
X0221467Y0068096D02*
X0229745Y0068096D01*
X0229618Y0067704D02*
X0221595Y0067704D01*
X0221698Y0067312D02*
X0229515Y0067312D01*
X0229453Y0066920D02*
X0221760Y0066920D01*
X0221822Y0066527D02*
X0229390Y0066527D01*
X0229384Y0065743D02*
X0221828Y0065743D01*
X0221803Y0065351D02*
X0229410Y0065351D01*
X0229472Y0064959D02*
X0221741Y0064959D01*
X0221679Y0064566D02*
X0229534Y0064566D01*
X0229658Y0064174D02*
X0221555Y0064174D01*
X0221428Y0063782D02*
X0229785Y0063782D01*
X0229953Y0063390D02*
X0221259Y0063390D01*
X0221059Y0062997D02*
X0230153Y0062997D01*
X0230382Y0062605D02*
X0220830Y0062605D01*
X0220546Y0062213D02*
X0230667Y0062213D01*
X0230986Y0061821D02*
X0220226Y0061821D01*
X0219834Y0061429D02*
X0231379Y0061429D01*
X0231853Y0061036D02*
X0219360Y0061036D01*
X0218800Y0060644D02*
X0232413Y0060644D01*
X0233183Y0060252D02*
X0218030Y0060252D01*
X0216611Y0059860D02*
X0234601Y0059860D01*
X0235409Y0059860D02*
X0235803Y0059860D01*
X0235803Y0060252D02*
X0235409Y0060252D01*
X0235409Y0060644D02*
X0235803Y0060644D01*
X0235803Y0061036D02*
X0235409Y0061036D01*
X0235409Y0061429D02*
X0235803Y0061429D01*
X0235803Y0061821D02*
X0235409Y0061821D01*
X0235409Y0062213D02*
X0235803Y0062213D01*
X0235803Y0062605D02*
X0235409Y0062605D01*
X0235409Y0062997D02*
X0235803Y0062997D01*
X0235803Y0063390D02*
X0235409Y0063390D01*
X0235409Y0063782D02*
X0235803Y0063782D01*
X0235803Y0064174D02*
X0235409Y0064174D01*
X0235409Y0064566D02*
X0235803Y0064566D01*
X0235803Y0064959D02*
X0235409Y0064959D01*
X0235409Y0065351D02*
X0235803Y0065351D01*
X0235803Y0065743D02*
X0235409Y0065743D01*
X0235409Y0066920D02*
X0235803Y0066920D01*
X0235803Y0067312D02*
X0235409Y0067312D01*
X0235409Y0067704D02*
X0235803Y0067704D01*
X0235803Y0068096D02*
X0235409Y0068096D01*
X0235409Y0068488D02*
X0235803Y0068488D01*
X0235803Y0068881D02*
X0235409Y0068881D01*
X0235409Y0069273D02*
X0235803Y0069273D01*
X0235803Y0069665D02*
X0235409Y0069665D01*
X0235409Y0070057D02*
X0235803Y0070057D01*
X0235803Y0070449D02*
X0235409Y0070449D01*
X0235409Y0070842D02*
X0235803Y0070842D01*
X0235803Y0071234D02*
X0235409Y0071234D01*
X0235409Y0071626D02*
X0235803Y0071626D01*
X0235803Y0072018D02*
X0235409Y0072018D01*
X0233995Y0072018D02*
X0229186Y0072018D01*
X0228794Y0071626D02*
X0232943Y0071626D01*
X0232225Y0071234D02*
X0228072Y0071234D01*
X0227125Y0070842D02*
X0231685Y0070842D01*
X0237218Y0072018D02*
X0253365Y0072018D01*
X0252313Y0071626D02*
X0238269Y0071626D01*
X0238988Y0071234D02*
X0251595Y0071234D01*
X0251055Y0070842D02*
X0239528Y0070842D01*
X0239956Y0070449D02*
X0250627Y0070449D01*
X0250235Y0070057D02*
X0240348Y0070057D01*
X0240634Y0069665D02*
X0249949Y0069665D01*
X0249664Y0069273D02*
X0240919Y0069273D01*
X0241121Y0068881D02*
X0249461Y0068881D01*
X0249261Y0068488D02*
X0241321Y0068488D01*
X0241467Y0068096D02*
X0249115Y0068096D01*
X0248988Y0067704D02*
X0241595Y0067704D01*
X0241698Y0067312D02*
X0248885Y0067312D01*
X0248823Y0066920D02*
X0241760Y0066920D01*
X0241822Y0066527D02*
X0248761Y0066527D01*
X0248755Y0065743D02*
X0241828Y0065743D01*
X0241803Y0065351D02*
X0248780Y0065351D01*
X0248842Y0064959D02*
X0241741Y0064959D01*
X0241679Y0064566D02*
X0248904Y0064566D01*
X0249028Y0064174D02*
X0241555Y0064174D01*
X0241428Y0063782D02*
X0249155Y0063782D01*
X0249323Y0063390D02*
X0241259Y0063390D01*
X0241059Y0062997D02*
X0249523Y0062997D01*
X0249752Y0062605D02*
X0240830Y0062605D01*
X0240546Y0062213D02*
X0250037Y0062213D01*
X0250357Y0061821D02*
X0240226Y0061821D01*
X0239834Y0061429D02*
X0250749Y0061429D01*
X0251223Y0061036D02*
X0239360Y0061036D01*
X0238800Y0060644D02*
X0251783Y0060644D01*
X0252553Y0060252D02*
X0238030Y0060252D01*
X0236611Y0059860D02*
X0253971Y0059860D01*
X0254780Y0059860D02*
X0255173Y0059860D01*
X0255173Y0060252D02*
X0254780Y0060252D01*
X0254780Y0060644D02*
X0255173Y0060644D01*
X0255173Y0061036D02*
X0254780Y0061036D01*
X0254780Y0061429D02*
X0255173Y0061429D01*
X0255173Y0061821D02*
X0254780Y0061821D01*
X0254780Y0062213D02*
X0255173Y0062213D01*
X0255173Y0062605D02*
X0254780Y0062605D01*
X0254780Y0062997D02*
X0255173Y0062997D01*
X0255173Y0063390D02*
X0254780Y0063390D01*
X0254780Y0063782D02*
X0255173Y0063782D01*
X0255173Y0064174D02*
X0254780Y0064174D01*
X0254780Y0064566D02*
X0255173Y0064566D01*
X0255173Y0064959D02*
X0254780Y0064959D01*
X0254780Y0065351D02*
X0255173Y0065351D01*
X0255173Y0065743D02*
X0254780Y0065743D01*
X0255173Y0066135D02*
X0274779Y0066135D01*
X0274779Y0066197D02*
X0274779Y0065803D01*
X0268755Y0065803D01*
X0268755Y0065510D01*
X0268908Y0064543D01*
X0269210Y0063612D01*
X0269655Y0062739D01*
X0270231Y0061947D01*
X0270923Y0061254D01*
X0271715Y0060679D01*
X0272588Y0060234D01*
X0273519Y0059931D01*
X0274487Y0059778D01*
X0274780Y0059778D01*
X0274780Y0065803D01*
X0275173Y0065803D01*
X0275173Y0059778D01*
X0275466Y0059778D01*
X0276433Y0059931D01*
X0277365Y0060234D01*
X0278237Y0060679D01*
X0279030Y0061254D01*
X0279722Y0061947D01*
X0280298Y0062739D01*
X0280742Y0063612D01*
X0281045Y0064543D01*
X0281198Y0065510D01*
X0281198Y0065803D01*
X0275173Y0065803D01*
X0275173Y0066197D01*
X0274780Y0066197D01*
X0274780Y0072222D01*
X0274487Y0072222D01*
X0273519Y0072069D01*
X0272588Y0071766D01*
X0271715Y0071321D01*
X0270923Y0070746D01*
X0270231Y0070053D01*
X0269655Y0069261D01*
X0269210Y0068388D01*
X0268908Y0067457D01*
X0268755Y0066490D01*
X0268755Y0066197D01*
X0274779Y0066197D01*
X0274780Y0066527D02*
X0275173Y0066527D01*
X0275173Y0066197D02*
X0275173Y0072222D01*
X0275466Y0072222D01*
X0276433Y0072069D01*
X0277365Y0071766D01*
X0278237Y0071321D01*
X0279030Y0070746D01*
X0279722Y0070053D01*
X0280298Y0069261D01*
X0280742Y0068388D01*
X0281045Y0067457D01*
X0281198Y0066490D01*
X0281198Y0066197D01*
X0275173Y0066197D01*
X0275173Y0066135D02*
X0330275Y0066135D01*
X0330667Y0066527D02*
X0281192Y0066527D01*
X0281130Y0066920D02*
X0331059Y0066920D01*
X0331187Y0067047D02*
X0328937Y0064798D01*
X0327720Y0061858D01*
X0327720Y0058677D01*
X0328937Y0055738D01*
X0331187Y0053488D01*
X0334126Y0052271D01*
X0337307Y0052271D01*
X0340246Y0053488D01*
X0342496Y0055738D01*
X0343713Y0058677D01*
X0343713Y0061858D01*
X0342496Y0064798D01*
X0340246Y0067047D01*
X0337307Y0068265D01*
X0334126Y0068265D01*
X0331187Y0067047D01*
X0331826Y0067312D02*
X0281068Y0067312D01*
X0280965Y0067704D02*
X0332773Y0067704D01*
X0333719Y0068096D02*
X0280837Y0068096D01*
X0280691Y0068488D02*
X0377915Y0068488D01*
X0377915Y0068096D02*
X0337714Y0068096D01*
X0338661Y0067704D02*
X0377915Y0067704D01*
X0377915Y0067312D02*
X0339607Y0067312D01*
X0340374Y0066920D02*
X0377915Y0066920D01*
X0377915Y0066527D02*
X0340766Y0066527D01*
X0341158Y0066135D02*
X0377915Y0066135D01*
X0377915Y0065743D02*
X0341551Y0065743D01*
X0341943Y0065351D02*
X0377915Y0065351D01*
X0377915Y0064959D02*
X0342335Y0064959D01*
X0342592Y0064566D02*
X0377915Y0064566D01*
X0377915Y0064174D02*
X0342754Y0064174D01*
X0342917Y0063782D02*
X0377915Y0063782D01*
X0377915Y0063390D02*
X0343079Y0063390D01*
X0343242Y0062997D02*
X0377915Y0062997D01*
X0377915Y0062605D02*
X0343404Y0062605D01*
X0343566Y0062213D02*
X0377915Y0062213D01*
X0377915Y0061821D02*
X0343713Y0061821D01*
X0343713Y0061429D02*
X0377915Y0061429D01*
X0377915Y0061036D02*
X0343713Y0061036D01*
X0343713Y0060644D02*
X0377915Y0060644D01*
X0377915Y0060252D02*
X0343713Y0060252D01*
X0343713Y0059860D02*
X0377915Y0059860D01*
X0377915Y0059468D02*
X0343713Y0059468D01*
X0343713Y0059075D02*
X0377915Y0059075D01*
X0377915Y0058683D02*
X0343713Y0058683D01*
X0343553Y0058291D02*
X0377915Y0058291D01*
X0377915Y0057899D02*
X0343391Y0057899D01*
X0343229Y0057506D02*
X0377915Y0057506D01*
X0377915Y0057114D02*
X0343066Y0057114D01*
X0342904Y0056722D02*
X0377915Y0056722D01*
X0377915Y0056330D02*
X0342741Y0056330D01*
X0342579Y0055938D02*
X0377915Y0055938D01*
X0377915Y0055545D02*
X0342303Y0055545D01*
X0341911Y0055153D02*
X0377915Y0055153D01*
X0377915Y0054761D02*
X0341519Y0054761D01*
X0341127Y0054369D02*
X0377915Y0054369D01*
X0377915Y0053977D02*
X0340735Y0053977D01*
X0340342Y0053584D02*
X0377915Y0053584D01*
X0377915Y0053192D02*
X0339531Y0053192D01*
X0338584Y0052800D02*
X0377915Y0052800D01*
X0377915Y0052408D02*
X0337638Y0052408D01*
X0333795Y0052408D02*
X0185108Y0052408D01*
X0185108Y0052800D02*
X0332849Y0052800D01*
X0331902Y0053192D02*
X0185108Y0053192D01*
X0185108Y0053584D02*
X0331091Y0053584D01*
X0330698Y0053977D02*
X0185108Y0053977D01*
X0185108Y0054369D02*
X0330306Y0054369D01*
X0329914Y0054761D02*
X0185108Y0054761D01*
X0185108Y0055153D02*
X0329522Y0055153D01*
X0329130Y0055545D02*
X0185108Y0055545D01*
X0185108Y0055938D02*
X0328854Y0055938D01*
X0328692Y0056330D02*
X0185108Y0056330D01*
X0185108Y0056722D02*
X0328529Y0056722D01*
X0328367Y0057114D02*
X0185108Y0057114D01*
X0185008Y0057506D02*
X0328205Y0057506D01*
X0328042Y0057899D02*
X0184846Y0057899D01*
X0184683Y0058291D02*
X0327880Y0058291D01*
X0327720Y0058683D02*
X0184521Y0058683D01*
X0184327Y0059075D02*
X0327720Y0059075D01*
X0327720Y0059468D02*
X0183935Y0059468D01*
X0185108Y0052016D02*
X0377915Y0052016D01*
X0377915Y0051623D02*
X0185108Y0051623D01*
X0185108Y0051231D02*
X0377915Y0051231D01*
X0377915Y0050839D02*
X0185108Y0050839D01*
X0185108Y0050447D02*
X0377915Y0050447D01*
X0377915Y0050054D02*
X0185108Y0050054D01*
X0185108Y0049662D02*
X0377915Y0049662D01*
X0377915Y0068881D02*
X0280492Y0068881D01*
X0280289Y0069273D02*
X0377915Y0069273D01*
X0377915Y0069665D02*
X0280004Y0069665D01*
X0279718Y0070057D02*
X0377915Y0070057D01*
X0377915Y0070449D02*
X0279326Y0070449D01*
X0278898Y0070842D02*
X0377915Y0070842D01*
X0377915Y0071234D02*
X0278358Y0071234D01*
X0277639Y0071626D02*
X0377915Y0071626D01*
X0377915Y0072018D02*
X0276588Y0072018D01*
X0275173Y0072018D02*
X0274780Y0072018D01*
X0274780Y0071626D02*
X0275173Y0071626D01*
X0275173Y0071234D02*
X0274780Y0071234D01*
X0274780Y0070842D02*
X0275173Y0070842D01*
X0275173Y0070449D02*
X0274780Y0070449D01*
X0274780Y0070057D02*
X0275173Y0070057D01*
X0275173Y0069665D02*
X0274780Y0069665D01*
X0274780Y0069273D02*
X0275173Y0069273D01*
X0275173Y0068881D02*
X0274780Y0068881D01*
X0274780Y0068488D02*
X0275173Y0068488D01*
X0275173Y0068096D02*
X0274780Y0068096D01*
X0274780Y0067704D02*
X0275173Y0067704D01*
X0275173Y0067312D02*
X0274780Y0067312D01*
X0274780Y0066920D02*
X0275173Y0066920D01*
X0275173Y0065743D02*
X0274780Y0065743D01*
X0274780Y0065351D02*
X0275173Y0065351D01*
X0275173Y0064959D02*
X0274780Y0064959D01*
X0274780Y0064566D02*
X0275173Y0064566D01*
X0275173Y0064174D02*
X0274780Y0064174D01*
X0274780Y0063782D02*
X0275173Y0063782D01*
X0275173Y0063390D02*
X0274780Y0063390D01*
X0274780Y0062997D02*
X0275173Y0062997D01*
X0275173Y0062605D02*
X0274780Y0062605D01*
X0274780Y0062213D02*
X0275173Y0062213D01*
X0275173Y0061821D02*
X0274780Y0061821D01*
X0274780Y0061429D02*
X0275173Y0061429D01*
X0275173Y0061036D02*
X0274780Y0061036D01*
X0274780Y0060644D02*
X0275173Y0060644D01*
X0275173Y0060252D02*
X0274780Y0060252D01*
X0274780Y0059860D02*
X0275173Y0059860D01*
X0275981Y0059860D02*
X0327720Y0059860D01*
X0327720Y0060252D02*
X0277400Y0060252D01*
X0278170Y0060644D02*
X0327720Y0060644D01*
X0327720Y0061036D02*
X0278730Y0061036D01*
X0279204Y0061429D02*
X0327720Y0061429D01*
X0327720Y0061821D02*
X0279596Y0061821D01*
X0279916Y0062213D02*
X0327867Y0062213D01*
X0328029Y0062605D02*
X0280201Y0062605D01*
X0280429Y0062997D02*
X0328192Y0062997D01*
X0328354Y0063390D02*
X0280629Y0063390D01*
X0280798Y0063782D02*
X0328516Y0063782D01*
X0328679Y0064174D02*
X0280925Y0064174D01*
X0281049Y0064566D02*
X0328841Y0064566D01*
X0329098Y0064959D02*
X0281111Y0064959D01*
X0281173Y0065351D02*
X0329490Y0065351D01*
X0329883Y0065743D02*
X0281198Y0065743D01*
X0273971Y0059860D02*
X0255981Y0059860D01*
X0257400Y0060252D02*
X0272553Y0060252D01*
X0271783Y0060644D02*
X0258170Y0060644D01*
X0258730Y0061036D02*
X0271223Y0061036D01*
X0270749Y0061429D02*
X0259204Y0061429D01*
X0259596Y0061821D02*
X0270357Y0061821D01*
X0270037Y0062213D02*
X0259916Y0062213D01*
X0260201Y0062605D02*
X0269752Y0062605D01*
X0269523Y0062997D02*
X0260429Y0062997D01*
X0260629Y0063390D02*
X0269323Y0063390D01*
X0269155Y0063782D02*
X0260798Y0063782D01*
X0260925Y0064174D02*
X0269028Y0064174D01*
X0268904Y0064566D02*
X0261049Y0064566D01*
X0261111Y0064959D02*
X0268842Y0064959D01*
X0268780Y0065351D02*
X0261173Y0065351D01*
X0261198Y0065743D02*
X0268755Y0065743D01*
X0268761Y0066527D02*
X0261192Y0066527D01*
X0261130Y0066920D02*
X0268823Y0066920D01*
X0268885Y0067312D02*
X0261068Y0067312D01*
X0260965Y0067704D02*
X0268988Y0067704D01*
X0269115Y0068096D02*
X0260837Y0068096D01*
X0260691Y0068488D02*
X0269261Y0068488D01*
X0269461Y0068881D02*
X0260492Y0068881D01*
X0260289Y0069273D02*
X0269664Y0069273D01*
X0269949Y0069665D02*
X0260004Y0069665D01*
X0259718Y0070057D02*
X0270235Y0070057D01*
X0270627Y0070449D02*
X0259326Y0070449D01*
X0258898Y0070842D02*
X0263458Y0070842D01*
X0262511Y0071234D02*
X0258358Y0071234D01*
X0257639Y0071626D02*
X0261789Y0071626D01*
X0266495Y0070842D02*
X0271055Y0070842D01*
X0271595Y0071234D02*
X0267442Y0071234D01*
X0268164Y0071626D02*
X0272313Y0071626D01*
X0273365Y0072018D02*
X0268556Y0072018D01*
X0268948Y0072411D02*
X0377915Y0072411D01*
X0377915Y0072803D02*
X0269341Y0072803D01*
X0269602Y0073195D02*
X0377915Y0073195D01*
X0377915Y0073587D02*
X0269764Y0073587D01*
X0269927Y0073979D02*
X0377915Y0073979D01*
X0377915Y0074372D02*
X0344941Y0074372D01*
X0345675Y0074764D02*
X0377915Y0074764D01*
X0377915Y0075156D02*
X0346067Y0075156D01*
X0346437Y0075548D02*
X0377915Y0075548D01*
X0377915Y0075940D02*
X0346599Y0075940D01*
X0346762Y0076333D02*
X0377915Y0076333D01*
X0377915Y0076725D02*
X0346907Y0076725D01*
X0346907Y0077117D02*
X0377915Y0077117D01*
X0377915Y0077509D02*
X0346907Y0077509D01*
X0346907Y0077902D02*
X0377915Y0077902D01*
X0377915Y0078294D02*
X0346766Y0078294D01*
X0346603Y0078686D02*
X0377915Y0078686D01*
X0377915Y0079078D02*
X0346441Y0079078D01*
X0346076Y0079470D02*
X0377915Y0079470D01*
X0377915Y0079863D02*
X0345684Y0079863D01*
X0344963Y0080255D02*
X0377915Y0080255D01*
X0377915Y0092413D02*
X0078415Y0092413D01*
X0078415Y0092806D02*
X0377915Y0092806D01*
X0377915Y0093198D02*
X0078415Y0093198D01*
X0078415Y0093590D02*
X0377915Y0093590D01*
X0377915Y0093982D02*
X0078415Y0093982D01*
X0078415Y0094374D02*
X0377915Y0094374D01*
X0377915Y0094767D02*
X0078415Y0094767D01*
X0078415Y0095159D02*
X0377915Y0095159D01*
X0377915Y0095551D02*
X0078415Y0095551D01*
X0078415Y0095943D02*
X0377915Y0095943D01*
X0377915Y0096335D02*
X0078415Y0096335D01*
X0078415Y0096728D02*
X0377915Y0096728D01*
X0377915Y0097120D02*
X0078415Y0097120D01*
X0078415Y0097512D02*
X0088612Y0097512D01*
X0089002Y0097122D02*
X0090714Y0097122D01*
X0091925Y0098333D01*
X0091925Y0100045D01*
X0090714Y0101256D01*
X0089002Y0101256D01*
X0087791Y0100045D01*
X0087791Y0098333D01*
X0089002Y0097122D01*
X0088220Y0097904D02*
X0078415Y0097904D01*
X0078415Y0098297D02*
X0087828Y0098297D01*
X0087791Y0098689D02*
X0078415Y0098689D01*
X0078415Y0099081D02*
X0087791Y0099081D01*
X0087791Y0099473D02*
X0078415Y0099473D01*
X0078415Y0099865D02*
X0087791Y0099865D01*
X0088004Y0100258D02*
X0078415Y0100258D01*
X0078415Y0100650D02*
X0088396Y0100650D01*
X0088788Y0101042D02*
X0078415Y0101042D01*
X0078415Y0101434D02*
X0324048Y0101434D01*
X0323722Y0101761D02*
X0324595Y0100887D01*
X0325830Y0100887D01*
X0326703Y0101761D01*
X0326703Y0102995D01*
X0325830Y0103868D01*
X0324595Y0103868D01*
X0323722Y0102995D01*
X0323722Y0101761D01*
X0323722Y0101826D02*
X0078415Y0101826D01*
X0078415Y0102219D02*
X0323722Y0102219D01*
X0323722Y0102611D02*
X0078415Y0102611D01*
X0078415Y0103003D02*
X0323730Y0103003D01*
X0324122Y0103395D02*
X0078415Y0103395D01*
X0078415Y0103788D02*
X0324514Y0103788D01*
X0325240Y0104180D02*
X0078415Y0104180D01*
X0078415Y0104572D02*
X0324848Y0104572D01*
X0324509Y0104910D02*
X0325383Y0104037D01*
X0326617Y0104037D01*
X0327491Y0104910D01*
X0327491Y0106145D01*
X0326617Y0107018D01*
X0325383Y0107018D01*
X0324509Y0106145D01*
X0324509Y0104910D01*
X0324509Y0104964D02*
X0078415Y0104964D01*
X0078415Y0105356D02*
X0324509Y0105356D01*
X0324509Y0105749D02*
X0078415Y0105749D01*
X0078415Y0106141D02*
X0324509Y0106141D01*
X0324897Y0106533D02*
X0078415Y0106533D01*
X0078415Y0106925D02*
X0325290Y0106925D01*
X0326710Y0106925D02*
X0377915Y0106925D01*
X0377915Y0106533D02*
X0327102Y0106533D01*
X0327491Y0106141D02*
X0377915Y0106141D01*
X0377915Y0105749D02*
X0327491Y0105749D01*
X0327491Y0105356D02*
X0377915Y0105356D01*
X0377915Y0104964D02*
X0327491Y0104964D01*
X0327152Y0104572D02*
X0377915Y0104572D01*
X0377915Y0104180D02*
X0326760Y0104180D01*
X0326303Y0103395D02*
X0377915Y0103395D01*
X0377915Y0103003D02*
X0326695Y0103003D01*
X0326703Y0102611D02*
X0377915Y0102611D01*
X0377915Y0102219D02*
X0326703Y0102219D01*
X0326703Y0101826D02*
X0377915Y0101826D01*
X0377915Y0101434D02*
X0326377Y0101434D01*
X0325985Y0101042D02*
X0377915Y0101042D01*
X0377915Y0100650D02*
X0091320Y0100650D01*
X0090928Y0101042D02*
X0324441Y0101042D01*
X0325911Y0103788D02*
X0377915Y0103788D01*
X0377915Y0107317D02*
X0078415Y0107317D01*
X0078415Y0107710D02*
X0377915Y0107710D01*
X0377915Y0108102D02*
X0078415Y0108102D01*
X0078415Y0108494D02*
X0377915Y0108494D01*
X0377915Y0108886D02*
X0078415Y0108886D01*
X0078415Y0109278D02*
X0377915Y0109278D01*
X0377915Y0109671D02*
X0078415Y0109671D01*
X0078415Y0110063D02*
X0377915Y0110063D01*
X0377915Y0110455D02*
X0078415Y0110455D01*
X0078415Y0110847D02*
X0377915Y0110847D01*
X0377915Y0111240D02*
X0078415Y0111240D01*
X0078415Y0111632D02*
X0333536Y0111632D01*
X0333650Y0111517D02*
X0334885Y0111517D01*
X0335758Y0112390D01*
X0335758Y0113625D01*
X0335195Y0114189D01*
X0335758Y0114753D01*
X0335758Y0115987D01*
X0334885Y0116861D01*
X0333650Y0116861D01*
X0332777Y0115987D01*
X0332777Y0114753D01*
X0333341Y0114189D01*
X0332777Y0113625D01*
X0332777Y0112390D01*
X0333650Y0111517D01*
X0333144Y0112024D02*
X0078415Y0112024D01*
X0078415Y0112416D02*
X0332777Y0112416D01*
X0332777Y0112808D02*
X0078415Y0112808D01*
X0078415Y0113201D02*
X0332777Y0113201D01*
X0332777Y0113593D02*
X0101903Y0113593D01*
X0102032Y0113635D02*
X0102697Y0113973D01*
X0103301Y0114412D01*
X0103828Y0114940D01*
X0104267Y0115543D01*
X0104605Y0116208D01*
X0104836Y0116918D01*
X0104953Y0117654D01*
X0104953Y0117831D01*
X0100409Y0117831D01*
X0100409Y0113287D01*
X0100586Y0113287D01*
X0101323Y0113404D01*
X0102032Y0113635D01*
X0102713Y0113985D02*
X0333137Y0113985D01*
X0333153Y0114377D02*
X0103253Y0114377D01*
X0103658Y0114769D02*
X0332777Y0114769D01*
X0332777Y0115162D02*
X0103990Y0115162D01*
X0104272Y0115554D02*
X0332777Y0115554D01*
X0332777Y0115946D02*
X0104472Y0115946D01*
X0104648Y0116338D02*
X0333128Y0116338D01*
X0333520Y0116731D02*
X0104775Y0116731D01*
X0104869Y0117123D02*
X0377915Y0117123D01*
X0377915Y0117515D02*
X0104931Y0117515D01*
X0104953Y0118224D02*
X0104953Y0118401D01*
X0104836Y0119138D01*
X0104605Y0119847D01*
X0104267Y0120512D01*
X0103828Y0121116D01*
X0103301Y0121643D01*
X0102697Y0122082D01*
X0102032Y0122420D01*
X0101323Y0122651D01*
X0100586Y0122768D01*
X0100409Y0122768D01*
X0100409Y0118224D01*
X0100016Y0118224D01*
X0100016Y0117831D01*
X0095472Y0117831D01*
X0095472Y0117654D01*
X0095589Y0116918D01*
X0095820Y0116208D01*
X0096158Y0115543D01*
X0096597Y0114940D01*
X0097125Y0114412D01*
X0097728Y0113973D01*
X0098393Y0113635D01*
X0099103Y0113404D01*
X0099840Y0113287D01*
X0100016Y0113287D01*
X0100016Y0117831D01*
X0100409Y0117831D01*
X0100409Y0118224D01*
X0104953Y0118224D01*
X0104953Y0118299D02*
X0377915Y0118299D01*
X0377915Y0117907D02*
X0100409Y0117907D01*
X0100409Y0117515D02*
X0100016Y0117515D01*
X0100016Y0117907D02*
X0078415Y0117907D01*
X0078415Y0117515D02*
X0095495Y0117515D01*
X0095557Y0117123D02*
X0078415Y0117123D01*
X0078415Y0116731D02*
X0095650Y0116731D01*
X0095777Y0116338D02*
X0078415Y0116338D01*
X0078415Y0115946D02*
X0095953Y0115946D01*
X0096153Y0115554D02*
X0078415Y0115554D01*
X0078415Y0115162D02*
X0096436Y0115162D01*
X0096767Y0114769D02*
X0078415Y0114769D01*
X0078415Y0114377D02*
X0097172Y0114377D01*
X0097712Y0113985D02*
X0078415Y0113985D01*
X0078415Y0113593D02*
X0098522Y0113593D01*
X0100016Y0113593D02*
X0100409Y0113593D01*
X0100409Y0113985D02*
X0100016Y0113985D01*
X0100016Y0114377D02*
X0100409Y0114377D01*
X0100409Y0114769D02*
X0100016Y0114769D01*
X0100016Y0115162D02*
X0100409Y0115162D01*
X0100409Y0115554D02*
X0100016Y0115554D01*
X0100016Y0115946D02*
X0100409Y0115946D01*
X0100409Y0116338D02*
X0100016Y0116338D01*
X0100016Y0116731D02*
X0100409Y0116731D01*
X0100409Y0117123D02*
X0100016Y0117123D01*
X0100016Y0118224D02*
X0095472Y0118224D01*
X0095472Y0118401D01*
X0095589Y0119138D01*
X0095820Y0119847D01*
X0096158Y0120512D01*
X0096597Y0121116D01*
X0097125Y0121643D01*
X0097728Y0122082D01*
X0098393Y0122420D01*
X0099103Y0122651D01*
X0099840Y0122768D01*
X0100016Y0122768D01*
X0100016Y0118224D01*
X0100016Y0118299D02*
X0100409Y0118299D01*
X0100409Y0118692D02*
X0100016Y0118692D01*
X0100016Y0119084D02*
X0100409Y0119084D01*
X0100409Y0119476D02*
X0100016Y0119476D01*
X0100016Y0119868D02*
X0100409Y0119868D01*
X0100409Y0120260D02*
X0100016Y0120260D01*
X0100016Y0120653D02*
X0100409Y0120653D01*
X0100409Y0121045D02*
X0100016Y0121045D01*
X0100016Y0121437D02*
X0100409Y0121437D01*
X0100409Y0121829D02*
X0100016Y0121829D01*
X0100016Y0122221D02*
X0100409Y0122221D01*
X0100409Y0122614D02*
X0100016Y0122614D01*
X0098988Y0122614D02*
X0078415Y0122614D01*
X0078415Y0123006D02*
X0377915Y0123006D01*
X0377915Y0123398D02*
X0078415Y0123398D01*
X0078415Y0123790D02*
X0377915Y0123790D01*
X0377915Y0124183D02*
X0078415Y0124183D01*
X0078415Y0124575D02*
X0377915Y0124575D01*
X0377915Y0124967D02*
X0348728Y0124967D01*
X0348665Y0124903D02*
X0349538Y0125776D01*
X0349538Y0127011D01*
X0348665Y0127884D01*
X0347430Y0127884D01*
X0346557Y0127011D01*
X0346557Y0125776D01*
X0347430Y0124903D01*
X0348665Y0124903D01*
X0349121Y0125359D02*
X0377915Y0125359D01*
X0377915Y0125751D02*
X0349513Y0125751D01*
X0349538Y0126144D02*
X0377915Y0126144D01*
X0377915Y0126536D02*
X0349538Y0126536D01*
X0349538Y0126928D02*
X0377915Y0126928D01*
X0377915Y0127320D02*
X0349229Y0127320D01*
X0348836Y0127712D02*
X0377915Y0127712D01*
X0377915Y0128105D02*
X0335758Y0128105D01*
X0335758Y0128497D02*
X0377915Y0128497D01*
X0377915Y0128889D02*
X0335455Y0128889D01*
X0335195Y0129150D02*
X0335758Y0129713D01*
X0335758Y0130948D01*
X0334885Y0131821D01*
X0333650Y0131821D01*
X0332777Y0130948D01*
X0332777Y0129713D01*
X0333341Y0129150D01*
X0332777Y0128586D01*
X0332777Y0127351D01*
X0333650Y0126478D01*
X0334885Y0126478D01*
X0335758Y0127351D01*
X0335758Y0128586D01*
X0335195Y0129150D01*
X0335326Y0129281D02*
X0377915Y0129281D01*
X0377915Y0129674D02*
X0335718Y0129674D01*
X0335758Y0130066D02*
X0377915Y0130066D01*
X0377915Y0130458D02*
X0360125Y0130458D01*
X0360082Y0130415D02*
X0360955Y0131288D01*
X0360955Y0132523D01*
X0360082Y0133396D01*
X0358847Y0133396D01*
X0357974Y0132523D01*
X0357974Y0131288D01*
X0358847Y0130415D01*
X0360082Y0130415D01*
X0360517Y0130850D02*
X0377915Y0130850D01*
X0377915Y0131242D02*
X0360909Y0131242D01*
X0360955Y0131635D02*
X0377915Y0131635D01*
X0377915Y0132027D02*
X0360955Y0132027D01*
X0360955Y0132419D02*
X0377915Y0132419D01*
X0377915Y0132811D02*
X0360667Y0132811D01*
X0360275Y0133203D02*
X0377915Y0133203D01*
X0377915Y0133596D02*
X0109789Y0133596D01*
X0109980Y0133634D02*
X0110547Y0133868D01*
X0111057Y0134209D01*
X0111491Y0134643D01*
X0111832Y0135154D01*
X0112067Y0135721D01*
X0112187Y0136323D01*
X0112187Y0136433D01*
X0109268Y0136433D01*
X0109268Y0136827D01*
X0112187Y0136827D01*
X0112187Y0136937D01*
X0112067Y0137539D01*
X0111832Y0138106D01*
X0111491Y0138616D01*
X0111057Y0139050D01*
X0110547Y0139391D01*
X0109980Y0139626D01*
X0109378Y0139746D01*
X0109268Y0139746D01*
X0109268Y0136827D01*
X0108874Y0136827D01*
X0108874Y0139746D01*
X0108764Y0139746D01*
X0108162Y0139626D01*
X0107595Y0139391D01*
X0107084Y0139050D01*
X0107065Y0139031D01*
X0107159Y0139259D01*
X0107159Y0140300D01*
X0106761Y0141261D01*
X0106025Y0141997D01*
X0105064Y0142396D01*
X0104023Y0142396D01*
X0103061Y0141997D01*
X0102632Y0141568D01*
X0102632Y0141875D01*
X0102234Y0142836D01*
X0101498Y0143572D01*
X0100536Y0143970D01*
X0099495Y0143970D01*
X0098534Y0143572D01*
X0098434Y0143472D01*
X0098485Y0143595D01*
X0098604Y0144197D01*
X0098604Y0144307D01*
X0095685Y0144307D01*
X0095685Y0141388D01*
X0095795Y0141388D01*
X0096397Y0141508D01*
X0096964Y0141742D01*
X0097475Y0142083D01*
X0097494Y0142103D01*
X0097400Y0141875D01*
X0097400Y0140834D01*
X0097798Y0139872D01*
X0098534Y0139136D01*
X0099495Y0138738D01*
X0100536Y0138738D01*
X0101498Y0139136D01*
X0101927Y0139566D01*
X0101927Y0139259D01*
X0102325Y0138298D01*
X0103061Y0137562D01*
X0104023Y0137163D01*
X0105064Y0137163D01*
X0106025Y0137562D01*
X0106125Y0137662D01*
X0106074Y0137539D01*
X0105955Y0136937D01*
X0105955Y0136827D01*
X0108874Y0136827D01*
X0108874Y0136433D01*
X0109268Y0136433D01*
X0109268Y0133514D01*
X0109378Y0133514D01*
X0109980Y0133634D01*
X0109268Y0133596D02*
X0108874Y0133596D01*
X0108874Y0133514D02*
X0108874Y0136433D01*
X0105955Y0136433D01*
X0105955Y0136323D01*
X0106074Y0135721D01*
X0106125Y0135598D01*
X0106025Y0135698D01*
X0105064Y0136096D01*
X0104023Y0136096D01*
X0103065Y0135700D01*
X0103012Y0135964D01*
X0102777Y0136531D01*
X0102436Y0137042D01*
X0102002Y0137476D01*
X0101492Y0137817D01*
X0100925Y0138052D01*
X0100323Y0138171D01*
X0100213Y0138171D01*
X0100213Y0135252D01*
X0099819Y0135252D01*
X0099819Y0138171D01*
X0099709Y0138171D01*
X0099107Y0138052D01*
X0098540Y0137817D01*
X0098029Y0137476D01*
X0098010Y0137456D01*
X0098104Y0137684D01*
X0098104Y0138725D01*
X0097706Y0139687D01*
X0096970Y0140423D01*
X0096009Y0140821D01*
X0094968Y0140821D01*
X0094006Y0140423D01*
X0093270Y0139687D01*
X0092872Y0138725D01*
X0092872Y0137684D01*
X0093270Y0136723D01*
X0094006Y0135987D01*
X0094968Y0135589D01*
X0096009Y0135589D01*
X0096970Y0135987D01*
X0097070Y0136087D01*
X0097019Y0135964D01*
X0096900Y0135362D01*
X0096900Y0135252D01*
X0099819Y0135252D01*
X0099819Y0134858D01*
X0100213Y0134858D01*
X0100213Y0131939D01*
X0100323Y0131939D01*
X0100925Y0132059D01*
X0101492Y0132294D01*
X0102002Y0132635D01*
X0102044Y0132677D01*
X0102325Y0131998D01*
X0103061Y0131262D01*
X0104023Y0130864D01*
X0105064Y0130864D01*
X0106025Y0131262D01*
X0106761Y0131998D01*
X0107159Y0132960D01*
X0107159Y0134001D01*
X0107065Y0134229D01*
X0107084Y0134209D01*
X0107595Y0133868D01*
X0108162Y0133634D01*
X0108764Y0133514D01*
X0108874Y0133514D01*
X0108874Y0133988D02*
X0109268Y0133988D01*
X0109268Y0134380D02*
X0108874Y0134380D01*
X0108874Y0134772D02*
X0109268Y0134772D01*
X0109268Y0135164D02*
X0108874Y0135164D01*
X0108874Y0135557D02*
X0109268Y0135557D01*
X0109268Y0135949D02*
X0108874Y0135949D01*
X0108874Y0136341D02*
X0109268Y0136341D01*
X0109268Y0136733D02*
X0357974Y0136733D01*
X0357974Y0136406D02*
X0358847Y0135533D01*
X0360082Y0135533D01*
X0360955Y0136406D01*
X0360955Y0137641D01*
X0360082Y0138514D01*
X0358847Y0138514D01*
X0357974Y0137641D01*
X0357974Y0136406D01*
X0358039Y0136341D02*
X0112187Y0136341D01*
X0112113Y0135949D02*
X0358431Y0135949D01*
X0358824Y0135557D02*
X0111999Y0135557D01*
X0111837Y0135164D02*
X0377915Y0135164D01*
X0377915Y0134772D02*
X0111577Y0134772D01*
X0111228Y0134380D02*
X0377915Y0134380D01*
X0377915Y0133988D02*
X0110726Y0133988D01*
X0109919Y0132811D02*
X0358262Y0132811D01*
X0357974Y0132419D02*
X0110682Y0132419D01*
X0110553Y0132549D02*
X0109591Y0132947D01*
X0108550Y0132947D01*
X0107589Y0132549D01*
X0106853Y0131813D01*
X0106455Y0130851D01*
X0106455Y0129810D01*
X0106853Y0128849D01*
X0107589Y0128113D01*
X0108550Y0127715D01*
X0109591Y0127715D01*
X0110553Y0128113D01*
X0111289Y0128849D01*
X0111687Y0129810D01*
X0111687Y0130851D01*
X0111289Y0131813D01*
X0110553Y0132549D01*
X0111075Y0132027D02*
X0357974Y0132027D01*
X0357974Y0131635D02*
X0335072Y0131635D01*
X0335464Y0131242D02*
X0358020Y0131242D01*
X0358412Y0130850D02*
X0335758Y0130850D01*
X0335758Y0130458D02*
X0358804Y0130458D01*
X0358655Y0133203D02*
X0107159Y0133203D01*
X0107159Y0133596D02*
X0108352Y0133596D01*
X0108223Y0132811D02*
X0107098Y0132811D01*
X0106935Y0132419D02*
X0107459Y0132419D01*
X0107067Y0132027D02*
X0106773Y0132027D01*
X0106779Y0131635D02*
X0106397Y0131635D01*
X0106617Y0131242D02*
X0105977Y0131242D01*
X0106455Y0130850D02*
X0101621Y0130850D01*
X0101498Y0130974D02*
X0100536Y0131372D01*
X0099495Y0131372D01*
X0098534Y0130974D01*
X0097798Y0130238D01*
X0097400Y0129276D01*
X0097400Y0128236D01*
X0097798Y0127274D01*
X0098534Y0126538D01*
X0099495Y0126140D01*
X0100536Y0126140D01*
X0101498Y0126538D01*
X0102234Y0127274D01*
X0102632Y0128236D01*
X0102632Y0129276D01*
X0102234Y0130238D01*
X0101498Y0130974D01*
X0100849Y0131242D02*
X0103110Y0131242D01*
X0102689Y0131635D02*
X0098104Y0131635D01*
X0098104Y0131385D02*
X0098104Y0132426D01*
X0098010Y0132654D01*
X0098029Y0132635D01*
X0098540Y0132294D01*
X0099107Y0132059D01*
X0099709Y0131939D01*
X0099819Y0131939D01*
X0099819Y0134858D01*
X0096900Y0134858D01*
X0096900Y0134748D01*
X0097019Y0134146D01*
X0097070Y0134023D01*
X0096970Y0134123D01*
X0096009Y0134522D01*
X0094968Y0134522D01*
X0094006Y0134123D01*
X0093270Y0133387D01*
X0092872Y0132426D01*
X0092872Y0131385D01*
X0093270Y0130424D01*
X0094006Y0129688D01*
X0094968Y0129289D01*
X0096009Y0129289D01*
X0096970Y0129688D01*
X0097706Y0130424D01*
X0098104Y0131385D01*
X0098045Y0131242D02*
X0099182Y0131242D01*
X0099267Y0132027D02*
X0098104Y0132027D01*
X0098104Y0132419D02*
X0098352Y0132419D01*
X0099819Y0132419D02*
X0100213Y0132419D01*
X0100213Y0132811D02*
X0099819Y0132811D01*
X0099819Y0133203D02*
X0100213Y0133203D01*
X0100213Y0133596D02*
X0099819Y0133596D01*
X0099819Y0133988D02*
X0100213Y0133988D01*
X0100213Y0134380D02*
X0099819Y0134380D01*
X0099819Y0134772D02*
X0100213Y0134772D01*
X0099819Y0135164D02*
X0078415Y0135164D01*
X0078415Y0134772D02*
X0096900Y0134772D01*
X0096973Y0134380D02*
X0096350Y0134380D01*
X0096938Y0135557D02*
X0078415Y0135557D01*
X0078415Y0135949D02*
X0094098Y0135949D01*
X0093652Y0136341D02*
X0078415Y0136341D01*
X0078415Y0136733D02*
X0093266Y0136733D01*
X0093103Y0137126D02*
X0078415Y0137126D01*
X0078415Y0137518D02*
X0092941Y0137518D01*
X0092872Y0137910D02*
X0078415Y0137910D01*
X0078415Y0138302D02*
X0092872Y0138302D01*
X0092872Y0138694D02*
X0078415Y0138694D01*
X0078415Y0139087D02*
X0093022Y0139087D01*
X0093184Y0139479D02*
X0078415Y0139479D01*
X0078415Y0139871D02*
X0093455Y0139871D01*
X0093847Y0140263D02*
X0078415Y0140263D01*
X0078415Y0140655D02*
X0094568Y0140655D01*
X0094579Y0141508D02*
X0095181Y0141388D01*
X0095291Y0141388D01*
X0095291Y0144307D01*
X0092372Y0144307D01*
X0092372Y0144197D01*
X0092492Y0143595D01*
X0092727Y0143028D01*
X0093068Y0142518D01*
X0093502Y0142083D01*
X0094012Y0141742D01*
X0094579Y0141508D01*
X0094919Y0141440D02*
X0078415Y0141440D01*
X0078415Y0141832D02*
X0093878Y0141832D01*
X0093361Y0142224D02*
X0078415Y0142224D01*
X0078415Y0142617D02*
X0093002Y0142617D01*
X0092739Y0143009D02*
X0078415Y0143009D01*
X0078415Y0143401D02*
X0092572Y0143401D01*
X0092452Y0143793D02*
X0078415Y0143793D01*
X0078415Y0144185D02*
X0092374Y0144185D01*
X0092372Y0144701D02*
X0095291Y0144701D01*
X0095291Y0144307D01*
X0095685Y0144307D01*
X0095685Y0144701D01*
X0095291Y0144701D01*
X0095291Y0147620D01*
X0095181Y0147620D01*
X0094579Y0147500D01*
X0094012Y0147265D01*
X0093502Y0146924D01*
X0093068Y0146490D01*
X0092727Y0145980D01*
X0092492Y0145413D01*
X0092372Y0144811D01*
X0092372Y0144701D01*
X0092404Y0144970D02*
X0078415Y0144970D01*
X0078415Y0145362D02*
X0092482Y0145362D01*
X0092633Y0145754D02*
X0078415Y0145754D01*
X0078415Y0146146D02*
X0092838Y0146146D01*
X0093116Y0146539D02*
X0078415Y0146539D01*
X0078415Y0146931D02*
X0093511Y0146931D01*
X0094151Y0147323D02*
X0078415Y0147323D01*
X0078415Y0147715D02*
X0097400Y0147715D01*
X0097400Y0147323D02*
X0096825Y0147323D01*
X0096964Y0147265D02*
X0096397Y0147500D01*
X0095795Y0147620D01*
X0095685Y0147620D01*
X0095685Y0144701D01*
X0098604Y0144701D01*
X0098604Y0144811D01*
X0098485Y0145413D01*
X0098434Y0145536D01*
X0098534Y0145436D01*
X0099495Y0145037D01*
X0100536Y0145037D01*
X0101494Y0145434D01*
X0101547Y0145170D01*
X0101782Y0144603D01*
X0102123Y0144092D01*
X0102557Y0143658D01*
X0103067Y0143317D01*
X0103634Y0143082D01*
X0104236Y0142963D01*
X0104346Y0142963D01*
X0104346Y0145882D01*
X0104740Y0145882D01*
X0104740Y0142963D01*
X0104850Y0142963D01*
X0105452Y0143082D01*
X0106019Y0143317D01*
X0106530Y0143658D01*
X0106549Y0143678D01*
X0106455Y0143450D01*
X0106455Y0142409D01*
X0106853Y0141447D01*
X0107589Y0140711D01*
X0108550Y0140313D01*
X0109591Y0140313D01*
X0110553Y0140711D01*
X0111289Y0141447D01*
X0111687Y0142409D01*
X0111687Y0143450D01*
X0111289Y0144411D01*
X0110553Y0145147D01*
X0109591Y0145545D01*
X0108550Y0145545D01*
X0107589Y0145147D01*
X0107489Y0145047D01*
X0107540Y0145170D01*
X0107659Y0145772D01*
X0107659Y0145882D01*
X0104740Y0145882D01*
X0104740Y0146276D01*
X0104346Y0146276D01*
X0104346Y0149195D01*
X0104236Y0149195D01*
X0103634Y0149075D01*
X0103067Y0148840D01*
X0102557Y0148499D01*
X0102515Y0148457D01*
X0102234Y0149135D01*
X0101498Y0149871D01*
X0100536Y0150270D01*
X0099495Y0150270D01*
X0098534Y0149871D01*
X0097798Y0149135D01*
X0097400Y0148174D01*
X0097400Y0147133D01*
X0097494Y0146905D01*
X0097475Y0146924D01*
X0096964Y0147265D01*
X0097465Y0146931D02*
X0097483Y0146931D01*
X0097400Y0148107D02*
X0078415Y0148107D01*
X0078415Y0148500D02*
X0094213Y0148500D01*
X0094006Y0148585D02*
X0094968Y0148187D01*
X0096009Y0148187D01*
X0096970Y0148585D01*
X0097706Y0149321D01*
X0098104Y0150283D01*
X0098104Y0151324D01*
X0098010Y0151552D01*
X0098029Y0151532D01*
X0098540Y0151191D01*
X0099107Y0150956D01*
X0099709Y0150837D01*
X0099819Y0150837D01*
X0099819Y0153756D01*
X0100213Y0153756D01*
X0100213Y0150837D01*
X0100323Y0150837D01*
X0100925Y0150956D01*
X0101492Y0151191D01*
X0102002Y0151532D01*
X0102044Y0151575D01*
X0102325Y0150896D01*
X0103061Y0150160D01*
X0104023Y0149762D01*
X0105064Y0149762D01*
X0106025Y0150160D01*
X0106761Y0150896D01*
X0107159Y0151858D01*
X0107159Y0152898D01*
X0107065Y0153127D01*
X0107084Y0153107D01*
X0107595Y0152766D01*
X0108162Y0152531D01*
X0108764Y0152411D01*
X0108874Y0152411D01*
X0108874Y0155331D01*
X0105955Y0155331D01*
X0105955Y0155221D01*
X0106074Y0154619D01*
X0106125Y0154496D01*
X0106025Y0154596D01*
X0105064Y0154994D01*
X0104023Y0154994D01*
X0103065Y0154597D01*
X0103012Y0154862D01*
X0102777Y0155429D01*
X0102436Y0155939D01*
X0102002Y0156373D01*
X0101492Y0156714D01*
X0100925Y0156949D01*
X0100323Y0157069D01*
X0100213Y0157069D01*
X0100213Y0154150D01*
X0099819Y0154150D01*
X0099819Y0157069D01*
X0099709Y0157069D01*
X0099107Y0156949D01*
X0098540Y0156714D01*
X0098029Y0156373D01*
X0098010Y0156354D01*
X0098104Y0156582D01*
X0098104Y0157623D01*
X0097706Y0158584D01*
X0096970Y0159320D01*
X0096009Y0159718D01*
X0094968Y0159718D01*
X0094006Y0159320D01*
X0093270Y0158584D01*
X0092872Y0157623D01*
X0092872Y0156582D01*
X0093270Y0155620D01*
X0094006Y0154884D01*
X0094968Y0154486D01*
X0096009Y0154486D01*
X0096970Y0154884D01*
X0097070Y0154985D01*
X0097019Y0154862D01*
X0096900Y0154260D01*
X0096900Y0154150D01*
X0099819Y0154150D01*
X0099819Y0153756D01*
X0096900Y0153756D01*
X0096900Y0153646D01*
X0097019Y0153044D01*
X0097070Y0152921D01*
X0096970Y0153021D01*
X0096009Y0153419D01*
X0094968Y0153419D01*
X0094006Y0153021D01*
X0093270Y0152285D01*
X0092872Y0151324D01*
X0092872Y0150283D01*
X0093270Y0149321D01*
X0094006Y0148585D01*
X0093700Y0148892D02*
X0078415Y0148892D01*
X0078415Y0149284D02*
X0093307Y0149284D01*
X0093123Y0149676D02*
X0078415Y0149676D01*
X0078415Y0150069D02*
X0092961Y0150069D01*
X0092872Y0150461D02*
X0078415Y0150461D01*
X0078415Y0150853D02*
X0092872Y0150853D01*
X0092872Y0151245D02*
X0078415Y0151245D01*
X0078415Y0151637D02*
X0093002Y0151637D01*
X0093165Y0152030D02*
X0078415Y0152030D01*
X0078415Y0152422D02*
X0093407Y0152422D01*
X0093799Y0152814D02*
X0078415Y0152814D01*
X0078415Y0153206D02*
X0094453Y0153206D01*
X0094270Y0154775D02*
X0078415Y0154775D01*
X0078415Y0154383D02*
X0096924Y0154383D01*
X0097002Y0154775D02*
X0096706Y0154775D01*
X0096909Y0153598D02*
X0078415Y0153598D01*
X0078415Y0153991D02*
X0099819Y0153991D01*
X0099819Y0154383D02*
X0100213Y0154383D01*
X0100213Y0154775D02*
X0099819Y0154775D01*
X0099819Y0155167D02*
X0100213Y0155167D01*
X0100213Y0155560D02*
X0099819Y0155560D01*
X0099819Y0155952D02*
X0100213Y0155952D01*
X0100213Y0156344D02*
X0099819Y0156344D01*
X0099819Y0156736D02*
X0100213Y0156736D01*
X0100536Y0157636D02*
X0101498Y0158034D01*
X0101927Y0158464D01*
X0101927Y0158157D01*
X0102325Y0157195D01*
X0103061Y0156459D01*
X0104023Y0156061D01*
X0105064Y0156061D01*
X0106025Y0156459D01*
X0106125Y0156560D01*
X0106074Y0156437D01*
X0105955Y0155834D01*
X0105955Y0155724D01*
X0108874Y0155724D01*
X0108874Y0155331D01*
X0109268Y0155331D01*
X0109268Y0155724D01*
X0112187Y0155724D01*
X0112187Y0155834D01*
X0112067Y0156437D01*
X0111832Y0157004D01*
X0111491Y0157514D01*
X0111057Y0157948D01*
X0110547Y0158289D01*
X0109980Y0158524D01*
X0109378Y0158644D01*
X0109268Y0158644D01*
X0109268Y0155724D01*
X0108874Y0155724D01*
X0108874Y0158644D01*
X0108764Y0158644D01*
X0108162Y0158524D01*
X0107595Y0158289D01*
X0107084Y0157948D01*
X0107065Y0157928D01*
X0107159Y0158157D01*
X0107159Y0159198D01*
X0106761Y0160159D01*
X0106025Y0160895D01*
X0105064Y0161293D01*
X0104023Y0161293D01*
X0103061Y0160895D01*
X0102632Y0160466D01*
X0102632Y0160772D01*
X0102234Y0161734D01*
X0101498Y0162470D01*
X0100536Y0162868D01*
X0099495Y0162868D01*
X0098534Y0162470D01*
X0098434Y0162370D01*
X0098485Y0162493D01*
X0098604Y0163095D01*
X0098604Y0163205D01*
X0095685Y0163205D01*
X0095685Y0163598D01*
X0098604Y0163598D01*
X0098604Y0163708D01*
X0098485Y0164311D01*
X0098434Y0164434D01*
X0098534Y0164333D01*
X0099495Y0163935D01*
X0100536Y0163935D01*
X0101494Y0164332D01*
X0101547Y0164067D01*
X0101782Y0163500D01*
X0102123Y0162990D01*
X0102557Y0162556D01*
X0103067Y0162215D01*
X0103634Y0161980D01*
X0104236Y0161860D01*
X0104346Y0161860D01*
X0104346Y0164779D01*
X0104740Y0164779D01*
X0104740Y0161860D01*
X0104850Y0161860D01*
X0105452Y0161980D01*
X0106019Y0162215D01*
X0106530Y0162556D01*
X0106549Y0162575D01*
X0106455Y0162347D01*
X0106455Y0161306D01*
X0106853Y0160345D01*
X0107589Y0159609D01*
X0108550Y0159211D01*
X0109591Y0159211D01*
X0110553Y0159609D01*
X0111289Y0160345D01*
X0111687Y0161306D01*
X0111687Y0162347D01*
X0111289Y0163309D01*
X0110553Y0164045D01*
X0109591Y0164443D01*
X0108550Y0164443D01*
X0107589Y0164045D01*
X0107489Y0163944D01*
X0107540Y0164067D01*
X0107659Y0164669D01*
X0107659Y0164780D01*
X0104740Y0164780D01*
X0104740Y0165173D01*
X0107659Y0165173D01*
X0107659Y0165283D01*
X0107540Y0165885D01*
X0107489Y0166008D01*
X0107589Y0165908D01*
X0108550Y0165510D01*
X0109591Y0165510D01*
X0110553Y0165908D01*
X0111289Y0166644D01*
X0111687Y0167606D01*
X0111687Y0168646D01*
X0111289Y0169608D01*
X0110553Y0170344D01*
X0109591Y0170742D01*
X0108550Y0170742D01*
X0107589Y0170344D01*
X0106853Y0169608D01*
X0106455Y0168646D01*
X0106455Y0167606D01*
X0106549Y0167377D01*
X0106530Y0167397D01*
X0106019Y0167738D01*
X0105452Y0167973D01*
X0104850Y0168093D01*
X0104740Y0168093D01*
X0104740Y0165173D01*
X0104346Y0165173D01*
X0104346Y0168093D01*
X0104236Y0168093D01*
X0103634Y0167973D01*
X0103067Y0167738D01*
X0102557Y0167397D01*
X0102515Y0167355D01*
X0102234Y0168033D01*
X0101498Y0168769D01*
X0100536Y0169167D01*
X0099495Y0169167D01*
X0098534Y0168769D01*
X0097798Y0168033D01*
X0097400Y0167072D01*
X0097400Y0166031D01*
X0097494Y0165802D01*
X0097475Y0165822D01*
X0096964Y0166163D01*
X0096397Y0166398D01*
X0095795Y0166518D01*
X0095685Y0166518D01*
X0095685Y0163598D01*
X0095291Y0163598D01*
X0095291Y0163205D01*
X0092372Y0163205D01*
X0092372Y0163095D01*
X0092492Y0162493D01*
X0092727Y0161926D01*
X0093068Y0161415D01*
X0093502Y0160981D01*
X0094012Y0160640D01*
X0094579Y0160405D01*
X0095181Y0160285D01*
X0095291Y0160285D01*
X0095291Y0163205D01*
X0095685Y0163205D01*
X0095685Y0160285D01*
X0095795Y0160285D01*
X0096397Y0160405D01*
X0096964Y0160640D01*
X0097475Y0160981D01*
X0097494Y0161001D01*
X0097400Y0160772D01*
X0097400Y0159732D01*
X0097798Y0158770D01*
X0098534Y0158034D01*
X0099495Y0157636D01*
X0100536Y0157636D01*
X0101205Y0157913D02*
X0102028Y0157913D01*
X0101927Y0158305D02*
X0101769Y0158305D01*
X0102191Y0157521D02*
X0098104Y0157521D01*
X0098104Y0157128D02*
X0102392Y0157128D01*
X0102785Y0156736D02*
X0101439Y0156736D01*
X0102031Y0156344D02*
X0103340Y0156344D01*
X0102424Y0155952D02*
X0105978Y0155952D01*
X0106056Y0156344D02*
X0105747Y0156344D01*
X0105965Y0155167D02*
X0102886Y0155167D01*
X0103029Y0154775D02*
X0103494Y0154775D01*
X0102690Y0155560D02*
X0108874Y0155560D01*
X0108874Y0155952D02*
X0109268Y0155952D01*
X0109268Y0156344D02*
X0108874Y0156344D01*
X0108874Y0156736D02*
X0109268Y0156736D01*
X0109268Y0157128D02*
X0108874Y0157128D01*
X0108874Y0157521D02*
X0109268Y0157521D01*
X0109268Y0157913D02*
X0108874Y0157913D01*
X0108874Y0158305D02*
X0109268Y0158305D01*
X0110508Y0158305D02*
X0332777Y0158305D01*
X0332777Y0157913D02*
X0111093Y0157913D01*
X0111485Y0157521D02*
X0332923Y0157521D01*
X0332777Y0157666D02*
X0333650Y0156793D01*
X0334885Y0156793D01*
X0335758Y0157666D01*
X0335758Y0158901D01*
X0335195Y0159465D01*
X0335758Y0160028D01*
X0335758Y0161263D01*
X0334885Y0162136D01*
X0333650Y0162136D01*
X0332777Y0161263D01*
X0332777Y0160028D01*
X0333341Y0159465D01*
X0332777Y0158901D01*
X0332777Y0157666D01*
X0333315Y0157128D02*
X0111749Y0157128D01*
X0111943Y0156736D02*
X0377915Y0156736D01*
X0377915Y0156344D02*
X0112086Y0156344D01*
X0112164Y0155952D02*
X0377915Y0155952D01*
X0377915Y0155560D02*
X0109268Y0155560D01*
X0109268Y0155331D02*
X0112187Y0155331D01*
X0112187Y0155221D01*
X0112067Y0154619D01*
X0111832Y0154052D01*
X0111491Y0153541D01*
X0111057Y0153107D01*
X0110547Y0152766D01*
X0109980Y0152531D01*
X0109378Y0152411D01*
X0109268Y0152411D01*
X0109268Y0155331D01*
X0109268Y0155167D02*
X0108874Y0155167D01*
X0108874Y0154775D02*
X0109268Y0154775D01*
X0109268Y0154383D02*
X0108874Y0154383D01*
X0108874Y0153991D02*
X0109268Y0153991D01*
X0109268Y0153598D02*
X0108874Y0153598D01*
X0108874Y0153206D02*
X0109268Y0153206D01*
X0109268Y0152814D02*
X0108874Y0152814D01*
X0108874Y0152422D02*
X0109268Y0152422D01*
X0109430Y0152422D02*
X0377915Y0152422D01*
X0377915Y0152814D02*
X0110619Y0152814D01*
X0111156Y0153206D02*
X0377915Y0153206D01*
X0377915Y0153598D02*
X0111530Y0153598D01*
X0111792Y0153991D02*
X0377915Y0153991D01*
X0377915Y0154383D02*
X0111970Y0154383D01*
X0112098Y0154775D02*
X0377915Y0154775D01*
X0377915Y0155167D02*
X0112176Y0155167D01*
X0110553Y0151446D02*
X0109591Y0151844D01*
X0108550Y0151844D01*
X0107589Y0151446D01*
X0106853Y0150710D01*
X0106455Y0149749D01*
X0106455Y0148708D01*
X0106549Y0148480D01*
X0106530Y0148499D01*
X0106019Y0148840D01*
X0105452Y0149075D01*
X0104850Y0149195D01*
X0104740Y0149195D01*
X0104740Y0146276D01*
X0107659Y0146276D01*
X0107659Y0146386D01*
X0107540Y0146988D01*
X0107489Y0147111D01*
X0107589Y0147010D01*
X0108550Y0146612D01*
X0109591Y0146612D01*
X0110553Y0147010D01*
X0111289Y0147746D01*
X0111687Y0148708D01*
X0111687Y0149749D01*
X0111289Y0150710D01*
X0110553Y0151446D01*
X0110754Y0151245D02*
X0377915Y0151245D01*
X0377915Y0150853D02*
X0111146Y0150853D01*
X0111392Y0150461D02*
X0377915Y0150461D01*
X0377915Y0150069D02*
X0111555Y0150069D01*
X0111687Y0149676D02*
X0377915Y0149676D01*
X0377915Y0149284D02*
X0111687Y0149284D01*
X0111687Y0148892D02*
X0377915Y0148892D01*
X0377915Y0148500D02*
X0111601Y0148500D01*
X0111438Y0148107D02*
X0377915Y0148107D01*
X0377915Y0147715D02*
X0111258Y0147715D01*
X0110865Y0147323D02*
X0377915Y0147323D01*
X0377915Y0146931D02*
X0335130Y0146931D01*
X0334885Y0147176D02*
X0335758Y0146302D01*
X0335758Y0145068D01*
X0335195Y0144504D01*
X0335758Y0143940D01*
X0335758Y0142705D01*
X0334885Y0141832D01*
X0333650Y0141832D01*
X0332777Y0142705D01*
X0332777Y0143940D01*
X0333341Y0144504D01*
X0332777Y0145068D01*
X0332777Y0146302D01*
X0333650Y0147176D01*
X0334885Y0147176D01*
X0335522Y0146539D02*
X0377915Y0146539D01*
X0377915Y0146146D02*
X0335758Y0146146D01*
X0335758Y0145754D02*
X0377915Y0145754D01*
X0377915Y0145362D02*
X0335758Y0145362D01*
X0335660Y0144970D02*
X0377915Y0144970D01*
X0377915Y0144578D02*
X0335268Y0144578D01*
X0335513Y0144185D02*
X0377915Y0144185D01*
X0377915Y0143793D02*
X0335758Y0143793D01*
X0335758Y0143401D02*
X0377915Y0143401D01*
X0377915Y0143009D02*
X0335758Y0143009D01*
X0335669Y0142617D02*
X0377915Y0142617D01*
X0377915Y0142224D02*
X0335277Y0142224D01*
X0333258Y0142224D02*
X0111611Y0142224D01*
X0111687Y0142617D02*
X0332866Y0142617D01*
X0332777Y0143009D02*
X0111687Y0143009D01*
X0111687Y0143401D02*
X0332777Y0143401D01*
X0332777Y0143793D02*
X0111545Y0143793D01*
X0111382Y0144185D02*
X0333022Y0144185D01*
X0333267Y0144578D02*
X0111122Y0144578D01*
X0110730Y0144970D02*
X0332875Y0144970D01*
X0332777Y0145362D02*
X0110034Y0145362D01*
X0110361Y0146931D02*
X0333406Y0146931D01*
X0333013Y0146539D02*
X0107629Y0146539D01*
X0107551Y0146931D02*
X0107781Y0146931D01*
X0107656Y0145754D02*
X0332777Y0145754D01*
X0332777Y0146146D02*
X0104740Y0146146D01*
X0104740Y0145754D02*
X0104346Y0145754D01*
X0104346Y0145362D02*
X0104740Y0145362D01*
X0104740Y0144970D02*
X0104346Y0144970D01*
X0104346Y0144578D02*
X0104740Y0144578D01*
X0104740Y0144185D02*
X0104346Y0144185D01*
X0104346Y0143793D02*
X0104740Y0143793D01*
X0104740Y0143401D02*
X0104346Y0143401D01*
X0104346Y0143009D02*
X0104740Y0143009D01*
X0105082Y0143009D02*
X0106455Y0143009D01*
X0106455Y0143401D02*
X0106145Y0143401D01*
X0106455Y0142617D02*
X0102325Y0142617D01*
X0102487Y0142224D02*
X0103609Y0142224D01*
X0102896Y0141832D02*
X0102632Y0141832D01*
X0102061Y0143009D02*
X0104004Y0143009D01*
X0102942Y0143401D02*
X0101669Y0143401D01*
X0100964Y0143793D02*
X0102422Y0143793D01*
X0102061Y0144185D02*
X0098602Y0144185D01*
X0098524Y0143793D02*
X0099067Y0143793D01*
X0098573Y0144970D02*
X0101630Y0144970D01*
X0101509Y0145362D02*
X0101320Y0145362D01*
X0101799Y0144578D02*
X0095685Y0144578D01*
X0095685Y0144970D02*
X0095291Y0144970D01*
X0095291Y0145362D02*
X0095685Y0145362D01*
X0095685Y0145754D02*
X0095291Y0145754D01*
X0095291Y0146146D02*
X0095685Y0146146D01*
X0095685Y0146539D02*
X0095291Y0146539D01*
X0095291Y0146931D02*
X0095685Y0146931D01*
X0095685Y0147323D02*
X0095291Y0147323D01*
X0096763Y0148500D02*
X0097535Y0148500D01*
X0097697Y0148892D02*
X0097277Y0148892D01*
X0097669Y0149284D02*
X0097947Y0149284D01*
X0097853Y0149676D02*
X0098339Y0149676D01*
X0098016Y0150069D02*
X0099010Y0150069D01*
X0098104Y0150461D02*
X0102761Y0150461D01*
X0102369Y0150853D02*
X0100405Y0150853D01*
X0100213Y0150853D02*
X0099819Y0150853D01*
X0099627Y0150853D02*
X0098104Y0150853D01*
X0098104Y0151245D02*
X0098459Y0151245D01*
X0099819Y0151245D02*
X0100213Y0151245D01*
X0100213Y0151637D02*
X0099819Y0151637D01*
X0099819Y0152030D02*
X0100213Y0152030D01*
X0100213Y0152422D02*
X0099819Y0152422D01*
X0099819Y0152814D02*
X0100213Y0152814D01*
X0100213Y0153206D02*
X0099819Y0153206D01*
X0099819Y0153598D02*
X0100213Y0153598D01*
X0101572Y0151245D02*
X0102181Y0151245D01*
X0103282Y0150069D02*
X0101022Y0150069D01*
X0101693Y0149676D02*
X0106455Y0149676D01*
X0106455Y0149284D02*
X0102085Y0149284D01*
X0102334Y0148892D02*
X0103192Y0148892D01*
X0102558Y0148500D02*
X0102497Y0148500D01*
X0104346Y0148500D02*
X0104740Y0148500D01*
X0104740Y0148892D02*
X0104346Y0148892D01*
X0104346Y0148107D02*
X0104740Y0148107D01*
X0104740Y0147715D02*
X0104346Y0147715D01*
X0104346Y0147323D02*
X0104740Y0147323D01*
X0104740Y0146931D02*
X0104346Y0146931D01*
X0104346Y0146539D02*
X0104740Y0146539D01*
X0105895Y0148892D02*
X0106455Y0148892D01*
X0106529Y0148500D02*
X0106541Y0148500D01*
X0106587Y0150069D02*
X0105804Y0150069D01*
X0106326Y0150461D02*
X0106750Y0150461D01*
X0106718Y0150853D02*
X0106996Y0150853D01*
X0106906Y0151245D02*
X0107388Y0151245D01*
X0107068Y0151637D02*
X0108051Y0151637D01*
X0107159Y0152030D02*
X0377915Y0152030D01*
X0377915Y0151637D02*
X0110091Y0151637D01*
X0108712Y0152422D02*
X0107159Y0152422D01*
X0107159Y0152814D02*
X0107523Y0152814D01*
X0106043Y0154775D02*
X0105592Y0154775D01*
X0107159Y0158305D02*
X0107633Y0158305D01*
X0107159Y0158697D02*
X0332777Y0158697D01*
X0332966Y0159089D02*
X0107159Y0159089D01*
X0107042Y0159482D02*
X0107896Y0159482D01*
X0107324Y0159874D02*
X0106879Y0159874D01*
X0106932Y0160266D02*
X0106654Y0160266D01*
X0106723Y0160658D02*
X0106262Y0160658D01*
X0106561Y0161050D02*
X0105650Y0161050D01*
X0106455Y0161443D02*
X0102354Y0161443D01*
X0102517Y0161050D02*
X0103437Y0161050D01*
X0102825Y0160658D02*
X0102632Y0160658D01*
X0102133Y0161835D02*
X0106455Y0161835D01*
X0106455Y0162227D02*
X0106038Y0162227D01*
X0104740Y0162227D02*
X0104346Y0162227D01*
X0104346Y0162619D02*
X0104740Y0162619D01*
X0104740Y0163012D02*
X0104346Y0163012D01*
X0104346Y0163404D02*
X0104740Y0163404D01*
X0104740Y0163796D02*
X0104346Y0163796D01*
X0104346Y0164188D02*
X0104740Y0164188D01*
X0104740Y0164580D02*
X0104346Y0164580D01*
X0104740Y0164973D02*
X0377915Y0164973D01*
X0377915Y0165365D02*
X0107643Y0165365D01*
X0107565Y0165757D02*
X0107954Y0165757D01*
X0107642Y0164580D02*
X0377915Y0164580D01*
X0377915Y0164188D02*
X0110206Y0164188D01*
X0110801Y0163796D02*
X0377915Y0163796D01*
X0377915Y0163404D02*
X0111194Y0163404D01*
X0111412Y0163012D02*
X0377915Y0163012D01*
X0377915Y0162619D02*
X0111574Y0162619D01*
X0111687Y0162227D02*
X0377915Y0162227D01*
X0377915Y0161835D02*
X0335186Y0161835D01*
X0335579Y0161443D02*
X0377915Y0161443D01*
X0377915Y0161050D02*
X0335758Y0161050D01*
X0335758Y0160658D02*
X0377915Y0160658D01*
X0377915Y0160266D02*
X0335758Y0160266D01*
X0335604Y0159874D02*
X0377915Y0159874D01*
X0377915Y0159482D02*
X0335212Y0159482D01*
X0335570Y0159089D02*
X0377915Y0159089D01*
X0377915Y0158697D02*
X0335758Y0158697D01*
X0335758Y0158305D02*
X0377915Y0158305D01*
X0377915Y0157913D02*
X0335758Y0157913D01*
X0335613Y0157521D02*
X0377915Y0157521D01*
X0377915Y0157128D02*
X0335221Y0157128D01*
X0333324Y0159482D02*
X0110245Y0159482D01*
X0110818Y0159874D02*
X0332932Y0159874D01*
X0332777Y0160266D02*
X0111210Y0160266D01*
X0111419Y0160658D02*
X0332777Y0160658D01*
X0332777Y0161050D02*
X0111581Y0161050D01*
X0111687Y0161443D02*
X0332957Y0161443D01*
X0333349Y0161835D02*
X0111687Y0161835D01*
X0110188Y0165757D02*
X0377915Y0165757D01*
X0377915Y0166149D02*
X0110794Y0166149D01*
X0111186Y0166541D02*
X0377915Y0166541D01*
X0377915Y0166934D02*
X0111409Y0166934D01*
X0111571Y0167326D02*
X0377915Y0167326D01*
X0377915Y0167718D02*
X0111687Y0167718D01*
X0111687Y0168110D02*
X0377915Y0168110D01*
X0377915Y0168503D02*
X0111687Y0168503D01*
X0111584Y0168895D02*
X0377915Y0168895D01*
X0377915Y0169287D02*
X0111422Y0169287D01*
X0111217Y0169679D02*
X0377915Y0169679D01*
X0377915Y0170071D02*
X0110825Y0170071D01*
X0110264Y0170464D02*
X0377915Y0170464D01*
X0377915Y0170856D02*
X0107159Y0170856D01*
X0107159Y0170755D02*
X0107159Y0171796D01*
X0107065Y0172024D01*
X0107084Y0172005D01*
X0107595Y0171664D01*
X0108162Y0171429D01*
X0108764Y0171309D01*
X0108874Y0171309D01*
X0108874Y0174228D01*
X0109268Y0174228D01*
X0109268Y0174622D01*
X0112187Y0174622D01*
X0112187Y0174732D01*
X0112067Y0175334D01*
X0111832Y0175901D01*
X0111491Y0176412D01*
X0111057Y0176846D01*
X0110547Y0177187D01*
X0109980Y0177422D01*
X0109378Y0177541D01*
X0109268Y0177541D01*
X0109268Y0174622D01*
X0108874Y0174622D01*
X0108874Y0174228D01*
X0105955Y0174228D01*
X0105955Y0174118D01*
X0106074Y0173516D01*
X0106125Y0173393D01*
X0106025Y0173493D01*
X0105064Y0173892D01*
X0104023Y0173892D01*
X0103065Y0173495D01*
X0103012Y0173759D01*
X0102777Y0174326D01*
X0102436Y0174837D01*
X0102002Y0175271D01*
X0101492Y0175612D01*
X0100925Y0175847D01*
X0100323Y0175967D01*
X0100213Y0175967D01*
X0100213Y0173047D01*
X0099819Y0173047D01*
X0099819Y0172654D01*
X0096900Y0172654D01*
X0096900Y0172543D01*
X0097019Y0171941D01*
X0097070Y0171818D01*
X0096970Y0171919D01*
X0096009Y0172317D01*
X0094968Y0172317D01*
X0094006Y0171919D01*
X0093270Y0171183D01*
X0092872Y0170221D01*
X0092872Y0169180D01*
X0093270Y0168219D01*
X0094006Y0167483D01*
X0094968Y0167085D01*
X0096009Y0167085D01*
X0096970Y0167483D01*
X0097706Y0168219D01*
X0098104Y0169180D01*
X0098104Y0170221D01*
X0098010Y0170450D01*
X0098029Y0170430D01*
X0098540Y0170089D01*
X0099107Y0169854D01*
X0099709Y0169734D01*
X0099819Y0169734D01*
X0099819Y0172653D01*
X0100213Y0172653D01*
X0100213Y0169734D01*
X0100323Y0169734D01*
X0100925Y0169854D01*
X0101492Y0170089D01*
X0102002Y0170430D01*
X0102044Y0170472D01*
X0102325Y0169794D01*
X0103061Y0169058D01*
X0104023Y0168659D01*
X0105064Y0168659D01*
X0106025Y0169058D01*
X0106761Y0169794D01*
X0107159Y0170755D01*
X0107039Y0170464D02*
X0107878Y0170464D01*
X0107316Y0170071D02*
X0106876Y0170071D01*
X0106924Y0169679D02*
X0106647Y0169679D01*
X0106720Y0169287D02*
X0106254Y0169287D01*
X0106558Y0168895D02*
X0105632Y0168895D01*
X0106455Y0168503D02*
X0101764Y0168503D01*
X0102156Y0168110D02*
X0106455Y0168110D01*
X0106455Y0167718D02*
X0106049Y0167718D01*
X0104740Y0167718D02*
X0104346Y0167718D01*
X0104346Y0167326D02*
X0104740Y0167326D01*
X0104740Y0166934D02*
X0104346Y0166934D01*
X0104346Y0166541D02*
X0104740Y0166541D01*
X0104740Y0166149D02*
X0104346Y0166149D01*
X0104346Y0165757D02*
X0104740Y0165757D01*
X0104740Y0165365D02*
X0104346Y0165365D01*
X0103038Y0167718D02*
X0102364Y0167718D01*
X0103455Y0168895D02*
X0101194Y0168895D01*
X0101449Y0170071D02*
X0102210Y0170071D01*
X0102048Y0170464D02*
X0102036Y0170464D01*
X0102440Y0169679D02*
X0098104Y0169679D01*
X0098104Y0169287D02*
X0102832Y0169287D01*
X0100213Y0170071D02*
X0099819Y0170071D01*
X0099819Y0170464D02*
X0100213Y0170464D01*
X0100213Y0170856D02*
X0099819Y0170856D01*
X0099819Y0171248D02*
X0100213Y0171248D01*
X0100213Y0171640D02*
X0099819Y0171640D01*
X0099819Y0172032D02*
X0100213Y0172032D01*
X0100213Y0172425D02*
X0099819Y0172425D01*
X0099819Y0172817D02*
X0078415Y0172817D01*
X0078415Y0173209D02*
X0096910Y0173209D01*
X0096900Y0173157D02*
X0096900Y0173047D01*
X0099819Y0173047D01*
X0099819Y0175967D01*
X0099709Y0175967D01*
X0099107Y0175847D01*
X0098540Y0175612D01*
X0098029Y0175271D01*
X0098010Y0175251D01*
X0098104Y0175480D01*
X0098104Y0176520D01*
X0097706Y0177482D01*
X0096970Y0178218D01*
X0096009Y0178616D01*
X0094968Y0178616D01*
X0094006Y0178218D01*
X0093270Y0177482D01*
X0092872Y0176520D01*
X0092872Y0175480D01*
X0093270Y0174518D01*
X0094006Y0173782D01*
X0094968Y0173384D01*
X0096009Y0173384D01*
X0096970Y0173782D01*
X0097070Y0173882D01*
X0097019Y0173759D01*
X0096900Y0173157D01*
X0096988Y0173601D02*
X0096533Y0173601D01*
X0096923Y0172425D02*
X0078415Y0172425D01*
X0078415Y0172032D02*
X0094281Y0172032D01*
X0093728Y0171640D02*
X0078415Y0171640D01*
X0078415Y0171248D02*
X0093336Y0171248D01*
X0093135Y0170856D02*
X0078415Y0170856D01*
X0078415Y0170464D02*
X0092972Y0170464D01*
X0092872Y0170071D02*
X0078415Y0170071D01*
X0078415Y0169679D02*
X0092872Y0169679D01*
X0092872Y0169287D02*
X0078415Y0169287D01*
X0078415Y0168895D02*
X0092990Y0168895D01*
X0093153Y0168503D02*
X0078415Y0168503D01*
X0078415Y0168110D02*
X0093379Y0168110D01*
X0093771Y0167718D02*
X0078415Y0167718D01*
X0078415Y0167326D02*
X0094385Y0167326D01*
X0094579Y0166398D02*
X0094012Y0166163D01*
X0093502Y0165822D01*
X0093068Y0165388D01*
X0092727Y0164878D01*
X0092492Y0164311D01*
X0092372Y0163708D01*
X0092372Y0163598D01*
X0095291Y0163598D01*
X0095291Y0166518D01*
X0095181Y0166518D01*
X0094579Y0166398D01*
X0093991Y0166149D02*
X0078415Y0166149D01*
X0078415Y0165757D02*
X0093437Y0165757D01*
X0093052Y0165365D02*
X0078415Y0165365D01*
X0078415Y0164973D02*
X0092790Y0164973D01*
X0092604Y0164580D02*
X0078415Y0164580D01*
X0078415Y0164188D02*
X0092467Y0164188D01*
X0092389Y0163796D02*
X0078415Y0163796D01*
X0078415Y0163404D02*
X0095291Y0163404D01*
X0095291Y0163796D02*
X0095685Y0163796D01*
X0095685Y0164188D02*
X0095291Y0164188D01*
X0095291Y0164580D02*
X0095685Y0164580D01*
X0095685Y0164973D02*
X0095291Y0164973D01*
X0095291Y0165365D02*
X0095685Y0165365D01*
X0095685Y0165757D02*
X0095291Y0165757D01*
X0095291Y0166149D02*
X0095685Y0166149D01*
X0096985Y0166149D02*
X0097400Y0166149D01*
X0097400Y0166541D02*
X0078415Y0166541D01*
X0078415Y0166934D02*
X0097400Y0166934D01*
X0097505Y0167326D02*
X0096591Y0167326D01*
X0097205Y0167718D02*
X0097667Y0167718D01*
X0097597Y0168110D02*
X0097875Y0168110D01*
X0097824Y0168503D02*
X0098267Y0168503D01*
X0097986Y0168895D02*
X0098837Y0168895D01*
X0098582Y0170071D02*
X0098104Y0170071D01*
X0097001Y0172032D02*
X0096695Y0172032D01*
X0094443Y0173601D02*
X0078415Y0173601D01*
X0078415Y0173993D02*
X0093795Y0173993D01*
X0093403Y0174386D02*
X0078415Y0174386D01*
X0078415Y0174778D02*
X0093163Y0174778D01*
X0093000Y0175170D02*
X0078415Y0175170D01*
X0078415Y0175562D02*
X0092872Y0175562D01*
X0092872Y0175955D02*
X0078415Y0175955D01*
X0078415Y0176347D02*
X0092872Y0176347D01*
X0092963Y0176739D02*
X0078415Y0176739D01*
X0078415Y0177131D02*
X0093125Y0177131D01*
X0093312Y0177523D02*
X0078415Y0177523D01*
X0078415Y0177916D02*
X0093704Y0177916D01*
X0094223Y0178308D02*
X0078415Y0178308D01*
X0078415Y0178700D02*
X0097400Y0178700D01*
X0097400Y0178629D02*
X0097798Y0177668D01*
X0098534Y0176932D01*
X0099495Y0176533D01*
X0100536Y0176533D01*
X0101498Y0176932D01*
X0101927Y0177361D01*
X0101927Y0177054D01*
X0102325Y0176093D01*
X0103061Y0175357D01*
X0104023Y0174959D01*
X0105064Y0174959D01*
X0106025Y0175357D01*
X0106125Y0175457D01*
X0106074Y0175334D01*
X0105955Y0174732D01*
X0105955Y0174622D01*
X0108874Y0174622D01*
X0108874Y0177541D01*
X0108764Y0177541D01*
X0108162Y0177422D01*
X0107595Y0177187D01*
X0107084Y0176846D01*
X0107065Y0176826D01*
X0107159Y0177054D01*
X0107159Y0178095D01*
X0106761Y0179057D01*
X0106025Y0179793D01*
X0105064Y0180191D01*
X0104023Y0180191D01*
X0103061Y0179793D01*
X0102632Y0179363D01*
X0102632Y0179670D01*
X0102234Y0180632D01*
X0101498Y0181367D01*
X0100536Y0181766D01*
X0099495Y0181766D01*
X0098534Y0181367D01*
X0098434Y0181267D01*
X0098485Y0181390D01*
X0098604Y0181992D01*
X0098604Y0182102D01*
X0095685Y0182102D01*
X0095685Y0179183D01*
X0095795Y0179183D01*
X0096397Y0179303D01*
X0096964Y0179538D01*
X0097475Y0179879D01*
X0097494Y0179898D01*
X0097400Y0179670D01*
X0097400Y0178629D01*
X0097533Y0178308D02*
X0096753Y0178308D01*
X0097272Y0177916D02*
X0097695Y0177916D01*
X0097665Y0177523D02*
X0097942Y0177523D01*
X0097851Y0177131D02*
X0098334Y0177131D01*
X0098014Y0176739D02*
X0098999Y0176739D01*
X0098104Y0176347D02*
X0102220Y0176347D01*
X0102058Y0176739D02*
X0101032Y0176739D01*
X0101697Y0177131D02*
X0101927Y0177131D01*
X0102464Y0175955D02*
X0100383Y0175955D01*
X0100213Y0175955D02*
X0099819Y0175955D01*
X0099649Y0175955D02*
X0098104Y0175955D01*
X0098104Y0175562D02*
X0098466Y0175562D01*
X0099819Y0175562D02*
X0100213Y0175562D01*
X0100213Y0175170D02*
X0099819Y0175170D01*
X0099819Y0174778D02*
X0100213Y0174778D01*
X0100213Y0174386D02*
X0099819Y0174386D01*
X0099819Y0173993D02*
X0100213Y0173993D01*
X0100213Y0173601D02*
X0099819Y0173601D01*
X0099819Y0173209D02*
X0100213Y0173209D01*
X0101566Y0175562D02*
X0102856Y0175562D01*
X0103512Y0175170D02*
X0102103Y0175170D01*
X0102476Y0174778D02*
X0105964Y0174778D01*
X0106042Y0175170D02*
X0105574Y0175170D01*
X0105980Y0173993D02*
X0102915Y0173993D01*
X0103044Y0173601D02*
X0103322Y0173601D01*
X0102738Y0174386D02*
X0108874Y0174386D01*
X0108874Y0174778D02*
X0109268Y0174778D01*
X0109268Y0175170D02*
X0108874Y0175170D01*
X0108874Y0175562D02*
X0109268Y0175562D01*
X0109268Y0175955D02*
X0108874Y0175955D01*
X0108874Y0176347D02*
X0109268Y0176347D01*
X0109268Y0176739D02*
X0108874Y0176739D01*
X0108874Y0177131D02*
X0109268Y0177131D01*
X0109268Y0177523D02*
X0108874Y0177523D01*
X0108674Y0177523D02*
X0107159Y0177523D01*
X0107159Y0177131D02*
X0107512Y0177131D01*
X0107159Y0177916D02*
X0377915Y0177916D01*
X0377915Y0178308D02*
X0110073Y0178308D01*
X0110553Y0178507D02*
X0111289Y0179242D01*
X0111687Y0180204D01*
X0111687Y0181245D01*
X0111289Y0182206D01*
X0110553Y0182942D01*
X0109591Y0183341D01*
X0108550Y0183341D01*
X0107589Y0182942D01*
X0107489Y0182842D01*
X0107540Y0182965D01*
X0107659Y0183567D01*
X0107659Y0183677D01*
X0104740Y0183677D01*
X0104740Y0180758D01*
X0104850Y0180758D01*
X0105452Y0180878D01*
X0106019Y0181113D01*
X0106530Y0181454D01*
X0106549Y0181473D01*
X0106455Y0181245D01*
X0106455Y0180204D01*
X0106853Y0179242D01*
X0107589Y0178507D01*
X0108550Y0178108D01*
X0109591Y0178108D01*
X0110553Y0178507D01*
X0110746Y0178700D02*
X0377915Y0178700D01*
X0377915Y0179092D02*
X0111138Y0179092D01*
X0111389Y0179484D02*
X0377915Y0179484D01*
X0377915Y0179877D02*
X0111551Y0179877D01*
X0111687Y0180269D02*
X0377915Y0180269D01*
X0377915Y0180661D02*
X0111687Y0180661D01*
X0111687Y0181053D02*
X0377915Y0181053D01*
X0377915Y0181446D02*
X0111604Y0181446D01*
X0111441Y0181838D02*
X0348369Y0181838D01*
X0348611Y0181596D02*
X0349846Y0181596D01*
X0350719Y0182469D01*
X0350719Y0183704D01*
X0349958Y0184465D01*
X0350719Y0185225D01*
X0350719Y0186460D01*
X0349846Y0187333D01*
X0348611Y0187333D01*
X0347738Y0186460D01*
X0347738Y0185225D01*
X0348498Y0184465D01*
X0347738Y0183704D01*
X0347738Y0182469D01*
X0348611Y0181596D01*
X0347977Y0182230D02*
X0111265Y0182230D01*
X0110873Y0182622D02*
X0347738Y0182622D01*
X0347738Y0183014D02*
X0110379Y0183014D01*
X0109591Y0184407D02*
X0110553Y0184806D01*
X0111289Y0185542D01*
X0111687Y0186503D01*
X0111687Y0187544D01*
X0111289Y0188506D01*
X0110553Y0189241D01*
X0109591Y0189640D01*
X0108550Y0189640D01*
X0107589Y0189241D01*
X0106853Y0188506D01*
X0106455Y0187544D01*
X0106455Y0186503D01*
X0106549Y0186275D01*
X0106530Y0186294D01*
X0106019Y0186635D01*
X0105452Y0186870D01*
X0104850Y0186990D01*
X0104740Y0186990D01*
X0104740Y0184071D01*
X0104346Y0184071D01*
X0104346Y0186990D01*
X0104236Y0186990D01*
X0103634Y0186870D01*
X0103067Y0186635D01*
X0102557Y0186294D01*
X0102515Y0186252D01*
X0102234Y0186931D01*
X0101498Y0187667D01*
X0100536Y0188065D01*
X0099495Y0188065D01*
X0098534Y0187667D01*
X0097798Y0186931D01*
X0097400Y0185969D01*
X0097400Y0184928D01*
X0097494Y0184700D01*
X0097475Y0184720D01*
X0096964Y0185061D01*
X0096397Y0185296D01*
X0095795Y0185415D01*
X0095685Y0185415D01*
X0095685Y0182496D01*
X0098604Y0182496D01*
X0098604Y0182606D01*
X0098485Y0183208D01*
X0098434Y0183331D01*
X0098534Y0183231D01*
X0099495Y0182833D01*
X0100536Y0182833D01*
X0101494Y0183230D01*
X0101547Y0182965D01*
X0101782Y0182398D01*
X0102123Y0181888D01*
X0102557Y0181454D01*
X0103067Y0181113D01*
X0103634Y0180878D01*
X0104236Y0180758D01*
X0104346Y0180758D01*
X0104346Y0183677D01*
X0104740Y0183677D01*
X0104740Y0184071D01*
X0107659Y0184071D01*
X0107659Y0184181D01*
X0107540Y0184783D01*
X0107489Y0184906D01*
X0107589Y0184806D01*
X0108550Y0184407D01*
X0109591Y0184407D01*
X0110015Y0184583D02*
X0348380Y0184583D01*
X0348225Y0184191D02*
X0107657Y0184191D01*
X0107579Y0184583D02*
X0108126Y0184583D01*
X0107627Y0183407D02*
X0347738Y0183407D01*
X0347833Y0183799D02*
X0104740Y0183799D01*
X0104740Y0184191D02*
X0104346Y0184191D01*
X0104346Y0184583D02*
X0104740Y0184583D01*
X0104740Y0184975D02*
X0104346Y0184975D01*
X0104346Y0185368D02*
X0104740Y0185368D01*
X0104740Y0185760D02*
X0104346Y0185760D01*
X0104346Y0186152D02*
X0104740Y0186152D01*
X0104740Y0186544D02*
X0104346Y0186544D01*
X0104346Y0186936D02*
X0104740Y0186936D01*
X0105120Y0186936D02*
X0106455Y0186936D01*
X0106455Y0186544D02*
X0106156Y0186544D01*
X0106455Y0187329D02*
X0101836Y0187329D01*
X0102228Y0186936D02*
X0103967Y0186936D01*
X0104023Y0187557D02*
X0105064Y0187557D01*
X0106025Y0187955D01*
X0106761Y0188691D01*
X0107159Y0189653D01*
X0107159Y0190694D01*
X0107065Y0190922D01*
X0107084Y0190902D01*
X0107595Y0190561D01*
X0108162Y0190326D01*
X0108764Y0190207D01*
X0108874Y0190207D01*
X0108874Y0193126D01*
X0105955Y0193126D01*
X0105955Y0193016D01*
X0106074Y0192414D01*
X0106125Y0192291D01*
X0106025Y0192391D01*
X0105064Y0192789D01*
X0104023Y0192789D01*
X0103065Y0192392D01*
X0103012Y0192657D01*
X0102777Y0193224D01*
X0102436Y0193734D01*
X0102002Y0194168D01*
X0101492Y0194510D01*
X0100925Y0194744D01*
X0100323Y0194864D01*
X0100213Y0194864D01*
X0100213Y0191945D01*
X0099819Y0191945D01*
X0099819Y0194864D01*
X0099709Y0194864D01*
X0099107Y0194744D01*
X0098540Y0194510D01*
X0098029Y0194168D01*
X0098010Y0194149D01*
X0098104Y0194377D01*
X0098104Y0195418D01*
X0097706Y0196380D01*
X0096970Y0197115D01*
X0096009Y0197514D01*
X0094968Y0197514D01*
X0094006Y0197115D01*
X0093270Y0196380D01*
X0092872Y0195418D01*
X0092872Y0194377D01*
X0093270Y0193416D01*
X0094006Y0192680D01*
X0094968Y0192281D01*
X0096009Y0192281D01*
X0096970Y0192680D01*
X0097070Y0192780D01*
X0097019Y0192657D01*
X0096900Y0192055D01*
X0096900Y0191945D01*
X0099819Y0191945D01*
X0099819Y0191551D01*
X0100213Y0191551D01*
X0100213Y0188632D01*
X0100323Y0188632D01*
X0100925Y0188752D01*
X0101492Y0188987D01*
X0102002Y0189328D01*
X0102044Y0189370D01*
X0102325Y0188691D01*
X0103061Y0187955D01*
X0104023Y0187557D01*
X0103627Y0187721D02*
X0101367Y0187721D01*
X0101277Y0188898D02*
X0102240Y0188898D01*
X0102078Y0189290D02*
X0101946Y0189290D01*
X0102511Y0188505D02*
X0098104Y0188505D01*
X0098104Y0188113D02*
X0102904Y0188113D01*
X0102931Y0186544D02*
X0102394Y0186544D01*
X0100213Y0188898D02*
X0099819Y0188898D01*
X0099819Y0188632D02*
X0099819Y0191551D01*
X0096900Y0191551D01*
X0096900Y0191441D01*
X0097019Y0190839D01*
X0097070Y0190716D01*
X0096970Y0190816D01*
X0096009Y0191215D01*
X0094968Y0191215D01*
X0094006Y0190816D01*
X0093270Y0190080D01*
X0092872Y0189119D01*
X0092872Y0188078D01*
X0093270Y0187116D01*
X0094006Y0186381D01*
X0094968Y0185982D01*
X0096009Y0185982D01*
X0096970Y0186381D01*
X0097706Y0187116D01*
X0098104Y0188078D01*
X0098104Y0189119D01*
X0098010Y0189347D01*
X0098029Y0189328D01*
X0098540Y0188987D01*
X0099107Y0188752D01*
X0099709Y0188632D01*
X0099819Y0188632D01*
X0099819Y0189290D02*
X0100213Y0189290D01*
X0100213Y0189682D02*
X0099819Y0189682D01*
X0099819Y0190074D02*
X0100213Y0190074D01*
X0100213Y0190466D02*
X0099819Y0190466D01*
X0099819Y0190859D02*
X0100213Y0190859D01*
X0100213Y0191251D02*
X0099819Y0191251D01*
X0099819Y0191643D02*
X0078415Y0191643D01*
X0078415Y0191251D02*
X0096937Y0191251D01*
X0096868Y0190859D02*
X0097015Y0190859D01*
X0096900Y0192035D02*
X0078415Y0192035D01*
X0078415Y0192427D02*
X0094615Y0192427D01*
X0093866Y0192820D02*
X0078415Y0192820D01*
X0078415Y0193212D02*
X0093474Y0193212D01*
X0093192Y0193604D02*
X0078415Y0193604D01*
X0078415Y0193996D02*
X0093030Y0193996D01*
X0092872Y0194389D02*
X0078415Y0194389D01*
X0078415Y0194781D02*
X0092872Y0194781D01*
X0092872Y0195173D02*
X0078415Y0195173D01*
X0078415Y0195565D02*
X0092933Y0195565D01*
X0093095Y0195957D02*
X0078415Y0195957D01*
X0078415Y0196350D02*
X0093258Y0196350D01*
X0093633Y0196742D02*
X0078415Y0196742D01*
X0078415Y0197134D02*
X0094051Y0197134D01*
X0094579Y0198200D02*
X0095181Y0198081D01*
X0095291Y0198081D01*
X0095291Y0201000D01*
X0092372Y0201000D01*
X0092372Y0200890D01*
X0092492Y0200288D01*
X0092727Y0199721D01*
X0093068Y0199210D01*
X0093502Y0198776D01*
X0094012Y0198435D01*
X0094579Y0198200D01*
X0094313Y0198311D02*
X0078415Y0198311D01*
X0078415Y0198703D02*
X0093612Y0198703D01*
X0093183Y0199095D02*
X0078415Y0199095D01*
X0078415Y0199487D02*
X0092883Y0199487D01*
X0092661Y0199879D02*
X0078415Y0199879D01*
X0078415Y0200272D02*
X0092498Y0200272D01*
X0092417Y0200664D02*
X0078415Y0200664D01*
X0078415Y0201056D02*
X0095291Y0201056D01*
X0095291Y0201000D02*
X0095291Y0201394D01*
X0092372Y0201394D01*
X0092372Y0201504D01*
X0092492Y0202106D01*
X0092727Y0202673D01*
X0093068Y0203183D01*
X0093502Y0203617D01*
X0094012Y0203958D01*
X0094579Y0204193D01*
X0095181Y0204313D01*
X0095291Y0204313D01*
X0095291Y0201394D01*
X0095685Y0201394D01*
X0095685Y0204313D01*
X0095795Y0204313D01*
X0096397Y0204193D01*
X0096964Y0203958D01*
X0097475Y0203617D01*
X0097494Y0203598D01*
X0097400Y0203826D01*
X0097400Y0204867D01*
X0097798Y0205828D01*
X0098534Y0206564D01*
X0099495Y0206963D01*
X0100536Y0206963D01*
X0101498Y0206564D01*
X0102234Y0205828D01*
X0102515Y0205150D01*
X0102557Y0205192D01*
X0103067Y0205533D01*
X0103634Y0205768D01*
X0104236Y0205888D01*
X0104346Y0205888D01*
X0104346Y0202969D01*
X0104740Y0202969D01*
X0104740Y0205888D01*
X0104850Y0205888D01*
X0105452Y0205768D01*
X0106019Y0205533D01*
X0106530Y0205192D01*
X0106549Y0205173D01*
X0106455Y0205401D01*
X0106455Y0206442D01*
X0106853Y0207403D01*
X0107589Y0208139D01*
X0108550Y0208537D01*
X0109591Y0208537D01*
X0110553Y0208139D01*
X0111289Y0207403D01*
X0111687Y0206442D01*
X0111687Y0205401D01*
X0111289Y0204439D01*
X0110553Y0203703D01*
X0109591Y0203305D01*
X0108550Y0203305D01*
X0107589Y0203703D01*
X0107489Y0203804D01*
X0107540Y0203681D01*
X0107659Y0203079D01*
X0107659Y0202968D01*
X0104740Y0202968D01*
X0104740Y0202575D01*
X0107659Y0202575D01*
X0107659Y0202465D01*
X0107540Y0201863D01*
X0107489Y0201740D01*
X0107589Y0201840D01*
X0108550Y0202238D01*
X0109591Y0202238D01*
X0110553Y0201840D01*
X0111289Y0201104D01*
X0111687Y0200142D01*
X0111687Y0199102D01*
X0111289Y0198140D01*
X0110553Y0197404D01*
X0109591Y0197006D01*
X0108550Y0197006D01*
X0107589Y0197404D01*
X0106853Y0198140D01*
X0106455Y0199102D01*
X0106455Y0200142D01*
X0106549Y0200371D01*
X0106530Y0200351D01*
X0106019Y0200010D01*
X0105452Y0199775D01*
X0104850Y0199656D01*
X0104740Y0199656D01*
X0104740Y0202575D01*
X0104346Y0202575D01*
X0104346Y0199656D01*
X0104236Y0199656D01*
X0103634Y0199775D01*
X0103067Y0200010D01*
X0102557Y0200351D01*
X0102123Y0200785D01*
X0101782Y0201296D01*
X0101547Y0201863D01*
X0101494Y0202127D01*
X0100536Y0201730D01*
X0099495Y0201730D01*
X0098534Y0202129D01*
X0098434Y0202229D01*
X0098485Y0202106D01*
X0098604Y0201504D01*
X0098604Y0201394D01*
X0095685Y0201394D01*
X0095685Y0201000D01*
X0095685Y0198081D01*
X0095795Y0198081D01*
X0096397Y0198200D01*
X0096964Y0198435D01*
X0097475Y0198776D01*
X0097494Y0198796D01*
X0097400Y0198568D01*
X0097400Y0197527D01*
X0097798Y0196565D01*
X0098534Y0195829D01*
X0099495Y0195431D01*
X0100536Y0195431D01*
X0101498Y0195829D01*
X0101927Y0196259D01*
X0101927Y0195952D01*
X0102325Y0194991D01*
X0103061Y0194255D01*
X0104023Y0193856D01*
X0105064Y0193856D01*
X0106025Y0194255D01*
X0106125Y0194355D01*
X0106074Y0194232D01*
X0105955Y0193630D01*
X0105955Y0193520D01*
X0108874Y0193520D01*
X0108874Y0196439D01*
X0108764Y0196439D01*
X0108162Y0196319D01*
X0107595Y0196084D01*
X0107084Y0195743D01*
X0107065Y0195724D01*
X0107159Y0195952D01*
X0107159Y0196993D01*
X0106761Y0197954D01*
X0106025Y0198690D01*
X0105064Y0199089D01*
X0104023Y0199089D01*
X0103061Y0198690D01*
X0102632Y0198261D01*
X0102632Y0198568D01*
X0102234Y0199529D01*
X0101498Y0200265D01*
X0100536Y0200663D01*
X0099495Y0200663D01*
X0098534Y0200265D01*
X0098434Y0200165D01*
X0098485Y0200288D01*
X0098604Y0200890D01*
X0098604Y0201000D01*
X0095685Y0201000D01*
X0095291Y0201000D01*
X0095291Y0200664D02*
X0095685Y0200664D01*
X0095685Y0201056D02*
X0101942Y0201056D01*
X0101719Y0201448D02*
X0098604Y0201448D01*
X0098537Y0201841D02*
X0099229Y0201841D01*
X0098559Y0200664D02*
X0102244Y0200664D01*
X0102676Y0200272D02*
X0101482Y0200272D01*
X0101883Y0199879D02*
X0103383Y0199879D01*
X0104346Y0199879D02*
X0104740Y0199879D01*
X0104740Y0200272D02*
X0104346Y0200272D01*
X0104346Y0200664D02*
X0104740Y0200664D01*
X0104740Y0201056D02*
X0104346Y0201056D01*
X0104346Y0201448D02*
X0104740Y0201448D01*
X0104740Y0201841D02*
X0104346Y0201841D01*
X0104346Y0202233D02*
X0104740Y0202233D01*
X0104740Y0202625D02*
X0377915Y0202625D01*
X0377915Y0203017D02*
X0107659Y0203017D01*
X0107594Y0203409D02*
X0108299Y0203409D01*
X0107491Y0203802D02*
X0107490Y0203802D01*
X0107613Y0202233D02*
X0108537Y0202233D01*
X0107590Y0201841D02*
X0107530Y0201841D01*
X0106508Y0200272D02*
X0106411Y0200272D01*
X0106455Y0199879D02*
X0105704Y0199879D01*
X0106455Y0199487D02*
X0102251Y0199487D01*
X0102413Y0199095D02*
X0106457Y0199095D01*
X0106620Y0198703D02*
X0105995Y0198703D01*
X0106405Y0198311D02*
X0106782Y0198311D01*
X0106776Y0197918D02*
X0107075Y0197918D01*
X0106939Y0197526D02*
X0107467Y0197526D01*
X0107101Y0197134D02*
X0108241Y0197134D01*
X0108315Y0196350D02*
X0107159Y0196350D01*
X0107159Y0196742D02*
X0328098Y0196742D01*
X0327706Y0196350D02*
X0109827Y0196350D01*
X0109980Y0196319D02*
X0109378Y0196439D01*
X0109268Y0196439D01*
X0109268Y0193520D01*
X0108874Y0193520D01*
X0108874Y0193126D01*
X0109268Y0193126D01*
X0109268Y0193520D01*
X0112187Y0193520D01*
X0112187Y0193630D01*
X0112067Y0194232D01*
X0111832Y0194799D01*
X0111491Y0195309D01*
X0111057Y0195743D01*
X0110547Y0196084D01*
X0109980Y0196319D01*
X0109268Y0196350D02*
X0108874Y0196350D01*
X0108874Y0195957D02*
X0109268Y0195957D01*
X0109268Y0195565D02*
X0108874Y0195565D01*
X0108874Y0195173D02*
X0109268Y0195173D01*
X0109268Y0194781D02*
X0108874Y0194781D01*
X0108874Y0194389D02*
X0109268Y0194389D01*
X0109268Y0193996D02*
X0108874Y0193996D01*
X0108874Y0193604D02*
X0109268Y0193604D01*
X0109268Y0193212D02*
X0328053Y0193212D01*
X0328053Y0193604D02*
X0112187Y0193604D01*
X0112114Y0193996D02*
X0328109Y0193996D01*
X0328053Y0193940D02*
X0328053Y0192705D01*
X0328926Y0191832D01*
X0330161Y0191832D01*
X0331034Y0192705D01*
X0331034Y0193940D01*
X0330273Y0194701D01*
X0330640Y0195068D01*
X0330640Y0196302D01*
X0329767Y0197176D01*
X0328532Y0197176D01*
X0327659Y0196302D01*
X0327659Y0195068D01*
X0328420Y0194307D01*
X0328053Y0193940D01*
X0328338Y0194389D02*
X0112002Y0194389D01*
X0111840Y0194781D02*
X0327946Y0194781D01*
X0327659Y0195173D02*
X0111582Y0195173D01*
X0111235Y0195565D02*
X0327659Y0195565D01*
X0327659Y0195957D02*
X0110737Y0195957D01*
X0109900Y0197134D02*
X0328491Y0197134D01*
X0329809Y0197134D02*
X0353687Y0197134D01*
X0353729Y0197176D02*
X0352856Y0196302D01*
X0352856Y0195068D01*
X0353616Y0194307D01*
X0352856Y0193547D01*
X0352856Y0192312D01*
X0353729Y0191439D01*
X0354964Y0191439D01*
X0355837Y0192312D01*
X0355837Y0193547D01*
X0355076Y0194307D01*
X0355837Y0195068D01*
X0355837Y0196302D01*
X0354964Y0197176D01*
X0353729Y0197176D01*
X0353295Y0196742D02*
X0330201Y0196742D01*
X0330593Y0196350D02*
X0352903Y0196350D01*
X0352856Y0195957D02*
X0330640Y0195957D01*
X0330640Y0195565D02*
X0352856Y0195565D01*
X0352856Y0195173D02*
X0330640Y0195173D01*
X0330353Y0194781D02*
X0353143Y0194781D01*
X0353535Y0194389D02*
X0330586Y0194389D01*
X0330978Y0193996D02*
X0353306Y0193996D01*
X0352913Y0193604D02*
X0331034Y0193604D01*
X0331034Y0193212D02*
X0352856Y0193212D01*
X0352856Y0192820D02*
X0331034Y0192820D01*
X0330756Y0192427D02*
X0352856Y0192427D01*
X0353132Y0192035D02*
X0330364Y0192035D01*
X0328723Y0192035D02*
X0111910Y0192035D01*
X0111832Y0191847D02*
X0112067Y0192414D01*
X0112187Y0193016D01*
X0112187Y0193126D01*
X0109268Y0193126D01*
X0109268Y0190207D01*
X0109378Y0190207D01*
X0109980Y0190326D01*
X0110547Y0190561D01*
X0111057Y0190902D01*
X0111491Y0191336D01*
X0111832Y0191847D01*
X0111696Y0191643D02*
X0353525Y0191643D01*
X0355168Y0191643D02*
X0377915Y0191643D01*
X0377915Y0191251D02*
X0111406Y0191251D01*
X0110992Y0190859D02*
X0377915Y0190859D01*
X0377915Y0190466D02*
X0110318Y0190466D01*
X0109268Y0190466D02*
X0108874Y0190466D01*
X0108874Y0190859D02*
X0109268Y0190859D01*
X0109268Y0191251D02*
X0108874Y0191251D01*
X0108874Y0191643D02*
X0109268Y0191643D01*
X0109268Y0192035D02*
X0108874Y0192035D01*
X0108874Y0192427D02*
X0109268Y0192427D01*
X0109268Y0192820D02*
X0108874Y0192820D01*
X0108874Y0193212D02*
X0102782Y0193212D01*
X0102945Y0192820D02*
X0105994Y0192820D01*
X0105937Y0192427D02*
X0106072Y0192427D01*
X0105955Y0193604D02*
X0102523Y0193604D01*
X0102174Y0193996D02*
X0103685Y0193996D01*
X0102927Y0194389D02*
X0101673Y0194389D01*
X0102535Y0194781D02*
X0100742Y0194781D01*
X0100213Y0194781D02*
X0099819Y0194781D01*
X0099819Y0194389D02*
X0100213Y0194389D01*
X0100213Y0193996D02*
X0099819Y0193996D01*
X0099819Y0193604D02*
X0100213Y0193604D01*
X0100213Y0193212D02*
X0099819Y0193212D01*
X0099819Y0192820D02*
X0100213Y0192820D01*
X0100213Y0192427D02*
X0099819Y0192427D01*
X0099819Y0192035D02*
X0100213Y0192035D01*
X0103058Y0192427D02*
X0103149Y0192427D01*
X0105402Y0193996D02*
X0106028Y0193996D01*
X0107159Y0195957D02*
X0107405Y0195957D01*
X0110675Y0197526D02*
X0377915Y0197526D01*
X0377915Y0197134D02*
X0355005Y0197134D01*
X0355398Y0196742D02*
X0377915Y0196742D01*
X0377915Y0196350D02*
X0355790Y0196350D01*
X0355837Y0195957D02*
X0377915Y0195957D01*
X0377915Y0195565D02*
X0355837Y0195565D01*
X0355837Y0195173D02*
X0377915Y0195173D01*
X0377915Y0194781D02*
X0355550Y0194781D01*
X0355158Y0194389D02*
X0377915Y0194389D01*
X0377915Y0193996D02*
X0355387Y0193996D01*
X0355779Y0193604D02*
X0377915Y0193604D01*
X0377915Y0193212D02*
X0355837Y0193212D01*
X0355837Y0192820D02*
X0377915Y0192820D01*
X0377915Y0192427D02*
X0355837Y0192427D01*
X0355561Y0192035D02*
X0377915Y0192035D01*
X0377915Y0190074D02*
X0107159Y0190074D01*
X0107159Y0189682D02*
X0377915Y0189682D01*
X0377915Y0189290D02*
X0110436Y0189290D01*
X0110897Y0188898D02*
X0377915Y0188898D01*
X0377915Y0188505D02*
X0111289Y0188505D01*
X0111451Y0188113D02*
X0377915Y0188113D01*
X0377915Y0187721D02*
X0111614Y0187721D01*
X0111687Y0187329D02*
X0348607Y0187329D01*
X0348214Y0186936D02*
X0111687Y0186936D01*
X0111687Y0186544D02*
X0347822Y0186544D01*
X0347738Y0186152D02*
X0111542Y0186152D01*
X0111379Y0185760D02*
X0347738Y0185760D01*
X0347738Y0185368D02*
X0111115Y0185368D01*
X0110722Y0184975D02*
X0347987Y0184975D01*
X0350077Y0184583D02*
X0377915Y0184583D01*
X0377915Y0184191D02*
X0350232Y0184191D01*
X0350624Y0183799D02*
X0377915Y0183799D01*
X0377915Y0183407D02*
X0350719Y0183407D01*
X0350719Y0183014D02*
X0377915Y0183014D01*
X0377915Y0182622D02*
X0350719Y0182622D01*
X0350480Y0182230D02*
X0377915Y0182230D01*
X0377915Y0181838D02*
X0350087Y0181838D01*
X0350469Y0184975D02*
X0377915Y0184975D01*
X0377915Y0185368D02*
X0350719Y0185368D01*
X0350719Y0185760D02*
X0377915Y0185760D01*
X0377915Y0186152D02*
X0350719Y0186152D01*
X0350635Y0186544D02*
X0377915Y0186544D01*
X0377915Y0186936D02*
X0350242Y0186936D01*
X0349850Y0187329D02*
X0377915Y0187329D01*
X0377915Y0197918D02*
X0111067Y0197918D01*
X0111359Y0198311D02*
X0377915Y0198311D01*
X0377915Y0198703D02*
X0111522Y0198703D01*
X0111684Y0199095D02*
X0377915Y0199095D01*
X0377915Y0199487D02*
X0111687Y0199487D01*
X0111687Y0199879D02*
X0377915Y0199879D01*
X0377915Y0200272D02*
X0111633Y0200272D01*
X0111471Y0200664D02*
X0377915Y0200664D01*
X0377915Y0201056D02*
X0111309Y0201056D01*
X0110944Y0201448D02*
X0377915Y0201448D01*
X0377915Y0201841D02*
X0110551Y0201841D01*
X0109604Y0202233D02*
X0377915Y0202233D01*
X0377915Y0203409D02*
X0109843Y0203409D01*
X0110651Y0203802D02*
X0377915Y0203802D01*
X0377915Y0204194D02*
X0111043Y0204194D01*
X0111349Y0204586D02*
X0377915Y0204586D01*
X0377915Y0204978D02*
X0111512Y0204978D01*
X0111674Y0205370D02*
X0377915Y0205370D01*
X0377915Y0205763D02*
X0111687Y0205763D01*
X0111687Y0206155D02*
X0377915Y0206155D01*
X0377915Y0206547D02*
X0329915Y0206547D01*
X0329767Y0206399D02*
X0330640Y0207272D01*
X0330640Y0208507D01*
X0330076Y0209071D01*
X0330640Y0209635D01*
X0330640Y0210869D01*
X0329767Y0211743D01*
X0328532Y0211743D01*
X0327659Y0210869D01*
X0327659Y0209635D01*
X0328223Y0209071D01*
X0327659Y0208507D01*
X0327659Y0207272D01*
X0328532Y0206399D01*
X0329767Y0206399D01*
X0330307Y0206939D02*
X0377915Y0206939D01*
X0377915Y0207332D02*
X0330640Y0207332D01*
X0330640Y0207724D02*
X0377915Y0207724D01*
X0377915Y0208116D02*
X0330640Y0208116D01*
X0330639Y0208508D02*
X0377915Y0208508D01*
X0377915Y0208900D02*
X0330247Y0208900D01*
X0330298Y0209293D02*
X0377915Y0209293D01*
X0377915Y0209685D02*
X0330640Y0209685D01*
X0330640Y0210077D02*
X0377915Y0210077D01*
X0377915Y0210469D02*
X0330640Y0210469D01*
X0330640Y0210861D02*
X0377915Y0210861D01*
X0377915Y0211254D02*
X0330256Y0211254D01*
X0329864Y0211646D02*
X0377915Y0211646D01*
X0377915Y0212038D02*
X0109268Y0212038D01*
X0109268Y0212024D02*
X0109268Y0212417D01*
X0112187Y0212417D01*
X0112187Y0212527D01*
X0112067Y0213129D01*
X0111832Y0213697D01*
X0111491Y0214207D01*
X0111057Y0214641D01*
X0110547Y0214982D01*
X0109980Y0215217D01*
X0109378Y0215337D01*
X0109268Y0215337D01*
X0109268Y0212417D01*
X0108874Y0212417D01*
X0108874Y0212024D01*
X0105955Y0212024D01*
X0105955Y0211914D01*
X0106074Y0211312D01*
X0106125Y0211189D01*
X0106025Y0211289D01*
X0105064Y0211687D01*
X0104023Y0211687D01*
X0103065Y0211290D01*
X0103012Y0211555D01*
X0102777Y0212122D01*
X0102436Y0212632D01*
X0102002Y0213066D01*
X0101492Y0213407D01*
X0100925Y0213642D01*
X0100323Y0213762D01*
X0100213Y0213762D01*
X0100213Y0210843D01*
X0099819Y0210843D01*
X0099819Y0213762D01*
X0099709Y0213762D01*
X0099107Y0213642D01*
X0098540Y0213407D01*
X0098029Y0213066D01*
X0098010Y0213047D01*
X0098104Y0213275D01*
X0098104Y0214316D01*
X0097706Y0215277D01*
X0096970Y0216013D01*
X0096009Y0216411D01*
X0094968Y0216411D01*
X0094006Y0216013D01*
X0093270Y0215277D01*
X0092872Y0214316D01*
X0092872Y0213275D01*
X0093270Y0212313D01*
X0094006Y0211577D01*
X0094968Y0211179D01*
X0096009Y0211179D01*
X0096970Y0211577D01*
X0097070Y0211678D01*
X0097019Y0211555D01*
X0096900Y0210953D01*
X0096900Y0210842D01*
X0099819Y0210842D01*
X0099819Y0210449D01*
X0096900Y0210449D01*
X0096900Y0210339D01*
X0097019Y0209737D01*
X0097070Y0209614D01*
X0096970Y0209714D01*
X0096009Y0210112D01*
X0094968Y0210112D01*
X0094006Y0209714D01*
X0093270Y0208978D01*
X0092872Y0208016D01*
X0092872Y0206976D01*
X0093270Y0206014D01*
X0094006Y0205278D01*
X0094968Y0204880D01*
X0096009Y0204880D01*
X0096970Y0205278D01*
X0097706Y0206014D01*
X0098104Y0206976D01*
X0098104Y0208016D01*
X0098010Y0208245D01*
X0098029Y0208225D01*
X0098540Y0207884D01*
X0099107Y0207649D01*
X0099709Y0207530D01*
X0099819Y0207530D01*
X0099819Y0210449D01*
X0100213Y0210449D01*
X0100213Y0207530D01*
X0100323Y0207530D01*
X0100925Y0207649D01*
X0101492Y0207884D01*
X0102002Y0208225D01*
X0102044Y0208267D01*
X0102325Y0207589D01*
X0103061Y0206853D01*
X0104023Y0206455D01*
X0105064Y0206455D01*
X0106025Y0206853D01*
X0106761Y0207589D01*
X0107159Y0208550D01*
X0107159Y0209591D01*
X0107065Y0209820D01*
X0107084Y0209800D01*
X0107595Y0209459D01*
X0108162Y0209224D01*
X0108764Y0209104D01*
X0108874Y0209104D01*
X0108874Y0212024D01*
X0109268Y0212024D01*
X0112187Y0212024D01*
X0112187Y0211914D01*
X0112067Y0211312D01*
X0111832Y0210744D01*
X0111491Y0210234D01*
X0111057Y0209800D01*
X0110547Y0209459D01*
X0109980Y0209224D01*
X0109378Y0209104D01*
X0109268Y0209104D01*
X0109268Y0212024D01*
X0109268Y0211646D02*
X0108874Y0211646D01*
X0108874Y0212038D02*
X0102812Y0212038D01*
X0102974Y0211646D02*
X0103924Y0211646D01*
X0104023Y0212754D02*
X0105064Y0212754D01*
X0106025Y0213152D01*
X0106125Y0213252D01*
X0106074Y0213129D01*
X0105955Y0212527D01*
X0105955Y0212417D01*
X0108874Y0212417D01*
X0108874Y0215337D01*
X0108764Y0215337D01*
X0108162Y0215217D01*
X0107595Y0214982D01*
X0107084Y0214641D01*
X0107065Y0214621D01*
X0107159Y0214850D01*
X0107159Y0215890D01*
X0106761Y0216852D01*
X0106025Y0217588D01*
X0105064Y0217986D01*
X0104023Y0217986D01*
X0103061Y0217588D01*
X0102632Y0217158D01*
X0102632Y0217465D01*
X0102234Y0218427D01*
X0101498Y0219163D01*
X0100536Y0219561D01*
X0099495Y0219561D01*
X0098534Y0219163D01*
X0098434Y0219063D01*
X0098485Y0219186D01*
X0098604Y0219788D01*
X0098604Y0219898D01*
X0095685Y0219898D01*
X0095685Y0220291D01*
X0098604Y0220291D01*
X0098604Y0220401D01*
X0098485Y0221003D01*
X0098434Y0221126D01*
X0098534Y0221026D01*
X0099495Y0220628D01*
X0100536Y0220628D01*
X0101494Y0221025D01*
X0101547Y0220760D01*
X0101782Y0220193D01*
X0102123Y0219683D01*
X0102557Y0219249D01*
X0103067Y0218908D01*
X0103634Y0218673D01*
X0104236Y0218553D01*
X0104346Y0218553D01*
X0104346Y0221472D01*
X0104740Y0221472D01*
X0104740Y0218553D01*
X0104850Y0218553D01*
X0105452Y0218673D01*
X0106019Y0218908D01*
X0106530Y0219249D01*
X0106549Y0219268D01*
X0106455Y0219040D01*
X0106455Y0217999D01*
X0106853Y0217038D01*
X0107589Y0216302D01*
X0108550Y0215904D01*
X0109591Y0215904D01*
X0110553Y0216302D01*
X0111289Y0217038D01*
X0111687Y0217999D01*
X0111687Y0219040D01*
X0111289Y0220002D01*
X0110553Y0220738D01*
X0109591Y0221136D01*
X0108550Y0221136D01*
X0107589Y0220738D01*
X0107489Y0220637D01*
X0107540Y0220760D01*
X0107659Y0221362D01*
X0107659Y0221472D01*
X0104740Y0221472D01*
X0104740Y0221866D01*
X0104346Y0221866D01*
X0104346Y0224785D01*
X0104236Y0224785D01*
X0103634Y0224666D01*
X0103067Y0224431D01*
X0102557Y0224090D01*
X0102515Y0224048D01*
X0102234Y0224726D01*
X0101498Y0225462D01*
X0100536Y0225860D01*
X0099495Y0225860D01*
X0098534Y0225462D01*
X0097798Y0224726D01*
X0097400Y0223764D01*
X0097400Y0222724D01*
X0097494Y0222495D01*
X0097475Y0222515D01*
X0096964Y0222856D01*
X0096397Y0223091D01*
X0095795Y0223211D01*
X0095685Y0223211D01*
X0095685Y0220291D01*
X0095291Y0220291D01*
X0095291Y0219898D01*
X0092372Y0219898D01*
X0092372Y0219788D01*
X0092492Y0219186D01*
X0092727Y0218618D01*
X0093068Y0218108D01*
X0093502Y0217674D01*
X0094012Y0217333D01*
X0094579Y0217098D01*
X0095181Y0216978D01*
X0095291Y0216978D01*
X0095291Y0219898D01*
X0095685Y0219898D01*
X0095685Y0216978D01*
X0095795Y0216978D01*
X0096397Y0217098D01*
X0096964Y0217333D01*
X0097475Y0217674D01*
X0097494Y0217694D01*
X0097400Y0217465D01*
X0097400Y0216424D01*
X0097798Y0215463D01*
X0098534Y0214727D01*
X0099495Y0214329D01*
X0100536Y0214329D01*
X0101498Y0214727D01*
X0101927Y0215157D01*
X0101927Y0214850D01*
X0102325Y0213888D01*
X0103061Y0213152D01*
X0104023Y0212754D01*
X0103857Y0212822D02*
X0102246Y0212822D01*
X0102571Y0212430D02*
X0105955Y0212430D01*
X0106013Y0212822D02*
X0105229Y0212822D01*
X0106088Y0213215D02*
X0106110Y0213215D01*
X0106008Y0211646D02*
X0105163Y0211646D01*
X0106060Y0211254D02*
X0106098Y0211254D01*
X0107121Y0209685D02*
X0107257Y0209685D01*
X0107159Y0209293D02*
X0107997Y0209293D01*
X0108874Y0209293D02*
X0109268Y0209293D01*
X0109268Y0209685D02*
X0108874Y0209685D01*
X0108874Y0210077D02*
X0109268Y0210077D01*
X0109268Y0210469D02*
X0108874Y0210469D01*
X0108874Y0210861D02*
X0109268Y0210861D01*
X0109268Y0211254D02*
X0108874Y0211254D01*
X0108874Y0212430D02*
X0109268Y0212430D01*
X0109268Y0212822D02*
X0108874Y0212822D01*
X0108874Y0213215D02*
X0109268Y0213215D01*
X0109268Y0213607D02*
X0108874Y0213607D01*
X0108874Y0213999D02*
X0109268Y0213999D01*
X0109268Y0214391D02*
X0108874Y0214391D01*
X0108874Y0214784D02*
X0109268Y0214784D01*
X0109268Y0215176D02*
X0108874Y0215176D01*
X0108063Y0215176D02*
X0107159Y0215176D01*
X0107159Y0215568D02*
X0377915Y0215568D01*
X0377915Y0215960D02*
X0109728Y0215960D01*
X0110079Y0215176D02*
X0377915Y0215176D01*
X0377915Y0214784D02*
X0110844Y0214784D01*
X0111307Y0214391D02*
X0377915Y0214391D01*
X0377915Y0213999D02*
X0111630Y0213999D01*
X0111869Y0213607D02*
X0377915Y0213607D01*
X0377915Y0213215D02*
X0112032Y0213215D01*
X0112128Y0212822D02*
X0377915Y0212822D01*
X0377915Y0212430D02*
X0112187Y0212430D01*
X0112134Y0211646D02*
X0328436Y0211646D01*
X0328043Y0211254D02*
X0112043Y0211254D01*
X0111881Y0210861D02*
X0327659Y0210861D01*
X0327659Y0210469D02*
X0111648Y0210469D01*
X0111334Y0210077D02*
X0327659Y0210077D01*
X0327659Y0209685D02*
X0110885Y0209685D01*
X0110145Y0209293D02*
X0328001Y0209293D01*
X0328052Y0208900D02*
X0107159Y0208900D01*
X0107142Y0208508D02*
X0108480Y0208508D01*
X0107566Y0208116D02*
X0106979Y0208116D01*
X0106817Y0207724D02*
X0107174Y0207724D01*
X0106823Y0207332D02*
X0106504Y0207332D01*
X0106661Y0206939D02*
X0106112Y0206939D01*
X0106498Y0206547D02*
X0105287Y0206547D01*
X0105465Y0205763D02*
X0106455Y0205763D01*
X0106455Y0206155D02*
X0101907Y0206155D01*
X0102261Y0205763D02*
X0103621Y0205763D01*
X0104346Y0205763D02*
X0104740Y0205763D01*
X0104740Y0205370D02*
X0104346Y0205370D01*
X0104346Y0204978D02*
X0104740Y0204978D01*
X0104740Y0204586D02*
X0104346Y0204586D01*
X0104346Y0204194D02*
X0104740Y0204194D01*
X0104740Y0203802D02*
X0104346Y0203802D01*
X0104346Y0203409D02*
X0104740Y0203409D01*
X0104740Y0203017D02*
X0104346Y0203017D01*
X0102824Y0205370D02*
X0102423Y0205370D01*
X0101515Y0206547D02*
X0103800Y0206547D01*
X0102975Y0206939D02*
X0100592Y0206939D01*
X0100213Y0207724D02*
X0099819Y0207724D01*
X0099819Y0208116D02*
X0100213Y0208116D01*
X0100213Y0208508D02*
X0099819Y0208508D01*
X0099819Y0208900D02*
X0100213Y0208900D01*
X0100213Y0209293D02*
X0099819Y0209293D01*
X0099819Y0209685D02*
X0100213Y0209685D01*
X0100213Y0210077D02*
X0099819Y0210077D01*
X0099819Y0210469D02*
X0078415Y0210469D01*
X0078415Y0210077D02*
X0094883Y0210077D01*
X0093977Y0209685D02*
X0078415Y0209685D01*
X0078415Y0209293D02*
X0093585Y0209293D01*
X0093238Y0208900D02*
X0078415Y0208900D01*
X0078415Y0208508D02*
X0093076Y0208508D01*
X0092913Y0208116D02*
X0078415Y0208116D01*
X0078415Y0207724D02*
X0092872Y0207724D01*
X0092872Y0207332D02*
X0078415Y0207332D01*
X0078415Y0206939D02*
X0092887Y0206939D01*
X0093050Y0206547D02*
X0078415Y0206547D01*
X0078415Y0206155D02*
X0093212Y0206155D01*
X0093522Y0205763D02*
X0078415Y0205763D01*
X0078415Y0205370D02*
X0093914Y0205370D01*
X0094730Y0204978D02*
X0078415Y0204978D01*
X0078415Y0204586D02*
X0097400Y0204586D01*
X0097400Y0204194D02*
X0096394Y0204194D01*
X0095685Y0204194D02*
X0095291Y0204194D01*
X0095291Y0203802D02*
X0095685Y0203802D01*
X0095685Y0203409D02*
X0095291Y0203409D01*
X0095291Y0203017D02*
X0095685Y0203017D01*
X0095685Y0202625D02*
X0095291Y0202625D01*
X0095291Y0202233D02*
X0095685Y0202233D01*
X0095685Y0201841D02*
X0095291Y0201841D01*
X0095291Y0201448D02*
X0095685Y0201448D01*
X0095685Y0200272D02*
X0095291Y0200272D01*
X0095291Y0199879D02*
X0095685Y0199879D01*
X0095685Y0199487D02*
X0095291Y0199487D01*
X0095291Y0199095D02*
X0095685Y0199095D01*
X0095685Y0198703D02*
X0095291Y0198703D01*
X0095291Y0198311D02*
X0095685Y0198311D01*
X0096663Y0198311D02*
X0097400Y0198311D01*
X0097400Y0197918D02*
X0078415Y0197918D01*
X0078415Y0197526D02*
X0097400Y0197526D01*
X0097562Y0197134D02*
X0096925Y0197134D01*
X0097344Y0196742D02*
X0097725Y0196742D01*
X0097718Y0196350D02*
X0098014Y0196350D01*
X0097881Y0195957D02*
X0098406Y0195957D01*
X0098043Y0195565D02*
X0099172Y0195565D01*
X0099289Y0194781D02*
X0098104Y0194781D01*
X0098104Y0195173D02*
X0102250Y0195173D01*
X0102087Y0195565D02*
X0100860Y0195565D01*
X0101626Y0195957D02*
X0101927Y0195957D01*
X0102632Y0198311D02*
X0102682Y0198311D01*
X0102576Y0198703D02*
X0103092Y0198703D01*
X0101556Y0201841D02*
X0100802Y0201841D01*
X0098550Y0200272D02*
X0098478Y0200272D01*
X0097456Y0198703D02*
X0097365Y0198703D01*
X0098104Y0194389D02*
X0098359Y0194389D01*
X0096974Y0192427D02*
X0096361Y0192427D01*
X0094108Y0190859D02*
X0078415Y0190859D01*
X0078415Y0190466D02*
X0093656Y0190466D01*
X0093268Y0190074D02*
X0078415Y0190074D01*
X0078415Y0189682D02*
X0093105Y0189682D01*
X0092943Y0189290D02*
X0078415Y0189290D01*
X0078415Y0188898D02*
X0092872Y0188898D01*
X0092872Y0188505D02*
X0078415Y0188505D01*
X0078415Y0188113D02*
X0092872Y0188113D01*
X0093020Y0187721D02*
X0078415Y0187721D01*
X0078415Y0187329D02*
X0093182Y0187329D01*
X0093450Y0186936D02*
X0078415Y0186936D01*
X0078415Y0186544D02*
X0093843Y0186544D01*
X0094558Y0186152D02*
X0078415Y0186152D01*
X0078415Y0185760D02*
X0097400Y0185760D01*
X0097400Y0185368D02*
X0096035Y0185368D01*
X0095685Y0185368D02*
X0095291Y0185368D01*
X0095291Y0185415D02*
X0095181Y0185415D01*
X0094579Y0185296D01*
X0094012Y0185061D01*
X0093502Y0184720D01*
X0093068Y0184286D01*
X0092727Y0183775D01*
X0092492Y0183208D01*
X0092372Y0182606D01*
X0092372Y0182496D01*
X0095291Y0182496D01*
X0095291Y0182102D01*
X0095685Y0182102D01*
X0095685Y0182496D01*
X0095291Y0182496D01*
X0095291Y0185415D01*
X0094941Y0185368D02*
X0078415Y0185368D01*
X0078415Y0184975D02*
X0093885Y0184975D01*
X0093365Y0184583D02*
X0078415Y0184583D01*
X0078415Y0184191D02*
X0093004Y0184191D01*
X0092742Y0183799D02*
X0078415Y0183799D01*
X0078415Y0183407D02*
X0092574Y0183407D01*
X0092453Y0183014D02*
X0078415Y0183014D01*
X0078415Y0182622D02*
X0092375Y0182622D01*
X0092372Y0182102D02*
X0092372Y0181992D01*
X0092492Y0181390D01*
X0092727Y0180823D01*
X0093068Y0180313D01*
X0093502Y0179879D01*
X0094012Y0179538D01*
X0094579Y0179303D01*
X0095181Y0179183D01*
X0095291Y0179183D01*
X0095291Y0182102D01*
X0092372Y0182102D01*
X0092403Y0181838D02*
X0078415Y0181838D01*
X0078415Y0182230D02*
X0095291Y0182230D01*
X0095291Y0182622D02*
X0095685Y0182622D01*
X0095685Y0182230D02*
X0101894Y0182230D01*
X0101689Y0182622D02*
X0098601Y0182622D01*
X0098523Y0183014D02*
X0099057Y0183014D01*
X0098574Y0181838D02*
X0102173Y0181838D01*
X0102569Y0181446D02*
X0101309Y0181446D01*
X0101812Y0181053D02*
X0103210Y0181053D01*
X0102204Y0180661D02*
X0106455Y0180661D01*
X0106455Y0180269D02*
X0102384Y0180269D01*
X0102546Y0179877D02*
X0103264Y0179877D01*
X0102753Y0179484D02*
X0102632Y0179484D01*
X0104346Y0181053D02*
X0104740Y0181053D01*
X0104740Y0181446D02*
X0104346Y0181446D01*
X0104346Y0181838D02*
X0104740Y0181838D01*
X0104740Y0182230D02*
X0104346Y0182230D01*
X0104346Y0182622D02*
X0104740Y0182622D01*
X0104740Y0183014D02*
X0104346Y0183014D01*
X0104346Y0183407D02*
X0104740Y0183407D01*
X0105876Y0181053D02*
X0106455Y0181053D01*
X0106518Y0181446D02*
X0106538Y0181446D01*
X0106590Y0179877D02*
X0105822Y0179877D01*
X0106333Y0179484D02*
X0106753Y0179484D01*
X0106726Y0179092D02*
X0107003Y0179092D01*
X0106909Y0178700D02*
X0107395Y0178700D01*
X0107071Y0178308D02*
X0108069Y0178308D01*
X0109468Y0177523D02*
X0377915Y0177523D01*
X0377915Y0177131D02*
X0110630Y0177131D01*
X0111164Y0176739D02*
X0333292Y0176739D01*
X0333650Y0177097D02*
X0332777Y0176224D01*
X0332777Y0174989D01*
X0333341Y0174425D01*
X0332777Y0173861D01*
X0332777Y0172627D01*
X0333650Y0171754D01*
X0334885Y0171754D01*
X0335758Y0172627D01*
X0335758Y0173861D01*
X0335195Y0174425D01*
X0335758Y0174989D01*
X0335758Y0176224D01*
X0334885Y0177097D01*
X0333650Y0177097D01*
X0332900Y0176347D02*
X0111535Y0176347D01*
X0111797Y0175955D02*
X0332777Y0175955D01*
X0332777Y0175562D02*
X0111973Y0175562D01*
X0112100Y0175170D02*
X0332777Y0175170D01*
X0332988Y0174778D02*
X0112178Y0174778D01*
X0112187Y0174228D02*
X0109268Y0174228D01*
X0109268Y0171309D01*
X0109378Y0171309D01*
X0109980Y0171429D01*
X0110547Y0171664D01*
X0111057Y0172005D01*
X0111491Y0172439D01*
X0111832Y0172949D01*
X0112067Y0173516D01*
X0112187Y0174118D01*
X0112187Y0174228D01*
X0112162Y0173993D02*
X0332909Y0173993D01*
X0332777Y0173601D02*
X0112084Y0173601D01*
X0111940Y0173209D02*
X0332777Y0173209D01*
X0332777Y0172817D02*
X0111744Y0172817D01*
X0111477Y0172425D02*
X0332979Y0172425D01*
X0333371Y0172032D02*
X0111085Y0172032D01*
X0110490Y0171640D02*
X0377915Y0171640D01*
X0377915Y0171248D02*
X0107159Y0171248D01*
X0107159Y0171640D02*
X0107652Y0171640D01*
X0108874Y0171640D02*
X0109268Y0171640D01*
X0109268Y0172032D02*
X0108874Y0172032D01*
X0108874Y0172425D02*
X0109268Y0172425D01*
X0109268Y0172817D02*
X0108874Y0172817D01*
X0108874Y0173209D02*
X0109268Y0173209D01*
X0109268Y0173601D02*
X0108874Y0173601D01*
X0108874Y0173993D02*
X0109268Y0173993D01*
X0109268Y0174386D02*
X0333301Y0174386D01*
X0335234Y0174386D02*
X0377915Y0174386D01*
X0377915Y0174778D02*
X0335547Y0174778D01*
X0335758Y0175170D02*
X0377915Y0175170D01*
X0377915Y0175562D02*
X0335758Y0175562D01*
X0335758Y0175955D02*
X0377915Y0175955D01*
X0377915Y0176347D02*
X0335635Y0176347D01*
X0335243Y0176739D02*
X0377915Y0176739D01*
X0377915Y0173993D02*
X0335626Y0173993D01*
X0335758Y0173601D02*
X0377915Y0173601D01*
X0377915Y0173209D02*
X0335758Y0173209D01*
X0335758Y0172817D02*
X0377915Y0172817D01*
X0377915Y0172425D02*
X0335556Y0172425D01*
X0335164Y0172032D02*
X0377915Y0172032D01*
X0377915Y0141832D02*
X0111448Y0141832D01*
X0111281Y0141440D02*
X0377915Y0141440D01*
X0377915Y0141048D02*
X0110889Y0141048D01*
X0110418Y0140655D02*
X0377915Y0140655D01*
X0377915Y0140263D02*
X0107159Y0140263D01*
X0107159Y0139871D02*
X0377915Y0139871D01*
X0377915Y0139479D02*
X0110336Y0139479D01*
X0111003Y0139087D02*
X0377915Y0139087D01*
X0377915Y0138694D02*
X0111413Y0138694D01*
X0111701Y0138302D02*
X0358635Y0138302D01*
X0358243Y0137910D02*
X0111914Y0137910D01*
X0112071Y0137518D02*
X0357974Y0137518D01*
X0357974Y0137126D02*
X0112149Y0137126D01*
X0109268Y0137126D02*
X0108874Y0137126D01*
X0108874Y0137518D02*
X0109268Y0137518D01*
X0109268Y0137910D02*
X0108874Y0137910D01*
X0108874Y0138302D02*
X0109268Y0138302D01*
X0109268Y0138694D02*
X0108874Y0138694D01*
X0108874Y0139087D02*
X0109268Y0139087D01*
X0109268Y0139479D02*
X0108874Y0139479D01*
X0107806Y0139479D02*
X0107159Y0139479D01*
X0107139Y0139087D02*
X0107088Y0139087D01*
X0107012Y0140655D02*
X0107724Y0140655D01*
X0107253Y0141048D02*
X0106850Y0141048D01*
X0106860Y0141440D02*
X0106583Y0141440D01*
X0106694Y0141832D02*
X0106191Y0141832D01*
X0106531Y0142224D02*
X0105477Y0142224D01*
X0107578Y0145362D02*
X0108108Y0145362D01*
X0101927Y0139479D02*
X0101840Y0139479D01*
X0101999Y0139087D02*
X0101377Y0139087D01*
X0102161Y0138694D02*
X0098104Y0138694D01*
X0098104Y0138302D02*
X0102324Y0138302D01*
X0102713Y0137910D02*
X0101266Y0137910D01*
X0101939Y0137518D02*
X0103167Y0137518D01*
X0102352Y0137126D02*
X0105992Y0137126D01*
X0105919Y0137518D02*
X0106070Y0137518D01*
X0105955Y0136341D02*
X0102856Y0136341D01*
X0103015Y0135949D02*
X0103667Y0135949D01*
X0102642Y0136733D02*
X0108874Y0136733D01*
X0106029Y0135949D02*
X0105420Y0135949D01*
X0107159Y0133988D02*
X0107416Y0133988D01*
X0106455Y0130458D02*
X0102013Y0130458D01*
X0102305Y0130066D02*
X0106455Y0130066D01*
X0106511Y0129674D02*
X0102467Y0129674D01*
X0102630Y0129281D02*
X0106674Y0129281D01*
X0106836Y0128889D02*
X0102632Y0128889D01*
X0102632Y0128497D02*
X0107205Y0128497D01*
X0107609Y0128105D02*
X0102578Y0128105D01*
X0102415Y0127712D02*
X0332777Y0127712D01*
X0332777Y0128105D02*
X0110533Y0128105D01*
X0110937Y0128497D02*
X0332777Y0128497D01*
X0333080Y0128889D02*
X0111305Y0128889D01*
X0111468Y0129281D02*
X0333209Y0129281D01*
X0332817Y0129674D02*
X0111630Y0129674D01*
X0111687Y0130066D02*
X0332777Y0130066D01*
X0332777Y0130458D02*
X0111687Y0130458D01*
X0111687Y0130850D02*
X0332777Y0130850D01*
X0333071Y0131242D02*
X0111525Y0131242D01*
X0111362Y0131635D02*
X0333464Y0131635D01*
X0332808Y0127320D02*
X0102253Y0127320D01*
X0101888Y0126928D02*
X0333200Y0126928D01*
X0333592Y0126536D02*
X0101492Y0126536D01*
X0100545Y0126144D02*
X0346557Y0126144D01*
X0346557Y0126536D02*
X0334943Y0126536D01*
X0335335Y0126928D02*
X0346557Y0126928D01*
X0346866Y0127320D02*
X0335727Y0127320D01*
X0335758Y0127712D02*
X0347258Y0127712D01*
X0346582Y0125751D02*
X0078415Y0125751D01*
X0078415Y0125359D02*
X0346974Y0125359D01*
X0347366Y0124967D02*
X0078415Y0124967D01*
X0078415Y0126144D02*
X0099486Y0126144D01*
X0098539Y0126536D02*
X0078415Y0126536D01*
X0078415Y0126928D02*
X0098144Y0126928D01*
X0097779Y0127320D02*
X0078415Y0127320D01*
X0078415Y0127712D02*
X0097616Y0127712D01*
X0097454Y0128105D02*
X0078415Y0128105D01*
X0078415Y0128497D02*
X0097400Y0128497D01*
X0097400Y0128889D02*
X0078415Y0128889D01*
X0078415Y0129281D02*
X0097402Y0129281D01*
X0097564Y0129674D02*
X0096936Y0129674D01*
X0097348Y0130066D02*
X0097727Y0130066D01*
X0097720Y0130458D02*
X0098018Y0130458D01*
X0097883Y0130850D02*
X0098410Y0130850D01*
X0099819Y0132027D02*
X0100213Y0132027D01*
X0100764Y0132027D02*
X0102314Y0132027D01*
X0102151Y0132419D02*
X0101679Y0132419D01*
X0100213Y0135557D02*
X0099819Y0135557D01*
X0099819Y0135949D02*
X0100213Y0135949D01*
X0100213Y0136341D02*
X0099819Y0136341D01*
X0099819Y0136733D02*
X0100213Y0136733D01*
X0100213Y0137126D02*
X0099819Y0137126D01*
X0099819Y0137518D02*
X0100213Y0137518D01*
X0100213Y0137910D02*
X0099819Y0137910D01*
X0098765Y0137910D02*
X0098104Y0137910D01*
X0098092Y0137518D02*
X0098035Y0137518D01*
X0097955Y0139087D02*
X0098654Y0139087D01*
X0098191Y0139479D02*
X0097792Y0139479D01*
X0097799Y0139871D02*
X0097522Y0139871D01*
X0097636Y0140263D02*
X0097129Y0140263D01*
X0097474Y0140655D02*
X0096408Y0140655D01*
X0096057Y0141440D02*
X0097400Y0141440D01*
X0097400Y0141832D02*
X0097098Y0141832D01*
X0097400Y0141048D02*
X0078415Y0141048D01*
X0078415Y0144578D02*
X0095291Y0144578D01*
X0095291Y0144185D02*
X0095685Y0144185D01*
X0095685Y0143793D02*
X0095291Y0143793D01*
X0095291Y0143401D02*
X0095685Y0143401D01*
X0095685Y0143009D02*
X0095291Y0143009D01*
X0095291Y0142617D02*
X0095685Y0142617D01*
X0095685Y0142224D02*
X0095291Y0142224D01*
X0095291Y0141832D02*
X0095685Y0141832D01*
X0095685Y0141440D02*
X0095291Y0141440D01*
X0098495Y0145362D02*
X0098712Y0145362D01*
X0096987Y0153206D02*
X0096523Y0153206D01*
X0093723Y0155167D02*
X0078415Y0155167D01*
X0078415Y0155560D02*
X0093331Y0155560D01*
X0093133Y0155952D02*
X0078415Y0155952D01*
X0078415Y0156344D02*
X0092971Y0156344D01*
X0092872Y0156736D02*
X0078415Y0156736D01*
X0078415Y0157128D02*
X0092872Y0157128D01*
X0092872Y0157521D02*
X0078415Y0157521D01*
X0078415Y0157913D02*
X0092992Y0157913D01*
X0093155Y0158305D02*
X0078415Y0158305D01*
X0078415Y0158697D02*
X0093383Y0158697D01*
X0093775Y0159089D02*
X0078415Y0159089D01*
X0078415Y0159482D02*
X0094396Y0159482D01*
X0093985Y0160658D02*
X0078415Y0160658D01*
X0078415Y0160266D02*
X0097400Y0160266D01*
X0097400Y0159874D02*
X0078415Y0159874D01*
X0078415Y0161050D02*
X0093432Y0161050D01*
X0093049Y0161443D02*
X0078415Y0161443D01*
X0078415Y0161835D02*
X0092787Y0161835D01*
X0092602Y0162227D02*
X0078415Y0162227D01*
X0078415Y0162619D02*
X0092467Y0162619D01*
X0092389Y0163012D02*
X0078415Y0163012D01*
X0095291Y0163012D02*
X0095685Y0163012D01*
X0095685Y0163404D02*
X0101846Y0163404D01*
X0101659Y0163796D02*
X0098587Y0163796D01*
X0098509Y0164188D02*
X0098884Y0164188D01*
X0098588Y0163012D02*
X0102108Y0163012D01*
X0102493Y0162619D02*
X0101137Y0162619D01*
X0101740Y0162227D02*
X0103049Y0162227D01*
X0101523Y0164188D02*
X0101147Y0164188D01*
X0098895Y0162619D02*
X0098510Y0162619D01*
X0097400Y0160658D02*
X0096991Y0160658D01*
X0096580Y0159482D02*
X0097503Y0159482D01*
X0097666Y0159089D02*
X0097201Y0159089D01*
X0097593Y0158697D02*
X0097871Y0158697D01*
X0097822Y0158305D02*
X0098263Y0158305D01*
X0097984Y0157913D02*
X0098827Y0157913D01*
X0098593Y0156736D02*
X0098104Y0156736D01*
X0095685Y0160658D02*
X0095291Y0160658D01*
X0095291Y0161050D02*
X0095685Y0161050D01*
X0095685Y0161443D02*
X0095291Y0161443D01*
X0095291Y0161835D02*
X0095685Y0161835D01*
X0095685Y0162227D02*
X0095291Y0162227D01*
X0095291Y0162619D02*
X0095685Y0162619D01*
X0107564Y0164188D02*
X0107936Y0164188D01*
X0106058Y0173601D02*
X0105765Y0173601D01*
X0097400Y0179092D02*
X0078415Y0179092D01*
X0078415Y0179484D02*
X0094141Y0179484D01*
X0093505Y0179877D02*
X0078415Y0179877D01*
X0078415Y0180269D02*
X0093112Y0180269D01*
X0092835Y0180661D02*
X0078415Y0180661D01*
X0078415Y0181053D02*
X0092631Y0181053D01*
X0092481Y0181446D02*
X0078415Y0181446D01*
X0095291Y0181446D02*
X0095685Y0181446D01*
X0095685Y0181838D02*
X0095291Y0181838D01*
X0095291Y0181053D02*
X0095685Y0181053D01*
X0095685Y0180661D02*
X0095291Y0180661D01*
X0095291Y0180269D02*
X0095685Y0180269D01*
X0095685Y0179877D02*
X0095291Y0179877D01*
X0095291Y0179484D02*
X0095685Y0179484D01*
X0096836Y0179484D02*
X0097400Y0179484D01*
X0097471Y0179877D02*
X0097485Y0179877D01*
X0098496Y0181446D02*
X0098722Y0181446D01*
X0100975Y0183014D02*
X0101537Y0183014D01*
X0097400Y0184975D02*
X0097092Y0184975D01*
X0097475Y0186152D02*
X0096418Y0186152D01*
X0097134Y0186544D02*
X0097638Y0186544D01*
X0097526Y0186936D02*
X0097804Y0186936D01*
X0097794Y0187329D02*
X0098196Y0187329D01*
X0097956Y0187721D02*
X0098665Y0187721D01*
X0098755Y0188898D02*
X0098104Y0188898D01*
X0098086Y0189290D02*
X0098034Y0189290D01*
X0095685Y0184975D02*
X0095291Y0184975D01*
X0095291Y0184583D02*
X0095685Y0184583D01*
X0095685Y0184191D02*
X0095291Y0184191D01*
X0095291Y0183799D02*
X0095685Y0183799D01*
X0095685Y0183407D02*
X0095291Y0183407D01*
X0095291Y0183014D02*
X0095685Y0183014D01*
X0105459Y0187721D02*
X0106528Y0187721D01*
X0106690Y0188113D02*
X0106183Y0188113D01*
X0106575Y0188505D02*
X0106853Y0188505D01*
X0106847Y0188898D02*
X0107245Y0188898D01*
X0107009Y0189290D02*
X0107705Y0189290D01*
X0107824Y0190466D02*
X0107159Y0190466D01*
X0107150Y0190859D02*
X0107091Y0190859D01*
X0112070Y0192427D02*
X0328331Y0192427D01*
X0328053Y0192820D02*
X0112148Y0192820D01*
X0107763Y0183014D02*
X0107549Y0183014D01*
X0092372Y0201448D02*
X0078415Y0201448D01*
X0078415Y0201841D02*
X0092439Y0201841D01*
X0092544Y0202233D02*
X0078415Y0202233D01*
X0078415Y0202625D02*
X0092707Y0202625D01*
X0092957Y0203017D02*
X0078415Y0203017D01*
X0078415Y0203409D02*
X0093294Y0203409D01*
X0093778Y0203802D02*
X0078415Y0203802D01*
X0078415Y0204194D02*
X0094582Y0204194D01*
X0096246Y0204978D02*
X0097446Y0204978D01*
X0097608Y0205370D02*
X0097062Y0205370D01*
X0097455Y0205763D02*
X0097771Y0205763D01*
X0097764Y0206155D02*
X0098124Y0206155D01*
X0097927Y0206547D02*
X0098517Y0206547D01*
X0098089Y0206939D02*
X0099439Y0206939D01*
X0098927Y0207724D02*
X0098104Y0207724D01*
X0098104Y0207332D02*
X0102583Y0207332D01*
X0102270Y0207724D02*
X0101104Y0207724D01*
X0101839Y0208116D02*
X0102107Y0208116D01*
X0100213Y0210861D02*
X0099819Y0210861D01*
X0099819Y0211254D02*
X0100213Y0211254D01*
X0100213Y0211646D02*
X0099819Y0211646D01*
X0099819Y0212038D02*
X0100213Y0212038D01*
X0100213Y0212430D02*
X0099819Y0212430D01*
X0099819Y0212822D02*
X0100213Y0212822D01*
X0100213Y0213215D02*
X0099819Y0213215D01*
X0099819Y0213607D02*
X0100213Y0213607D01*
X0101010Y0213607D02*
X0102607Y0213607D01*
X0102279Y0213999D02*
X0098104Y0213999D01*
X0098104Y0213607D02*
X0099022Y0213607D01*
X0099344Y0214391D02*
X0098073Y0214391D01*
X0097911Y0214784D02*
X0098477Y0214784D01*
X0098085Y0215176D02*
X0097748Y0215176D01*
X0097754Y0215568D02*
X0097415Y0215568D01*
X0097592Y0215960D02*
X0097023Y0215960D01*
X0097429Y0216352D02*
X0096151Y0216352D01*
X0096491Y0217137D02*
X0097400Y0217137D01*
X0097400Y0216745D02*
X0078415Y0216745D01*
X0078415Y0217137D02*
X0094486Y0217137D01*
X0095291Y0217137D02*
X0095685Y0217137D01*
X0095685Y0217529D02*
X0095291Y0217529D01*
X0095291Y0217921D02*
X0095685Y0217921D01*
X0095685Y0218313D02*
X0095291Y0218313D01*
X0095291Y0218706D02*
X0095685Y0218706D01*
X0095685Y0219098D02*
X0095291Y0219098D01*
X0095291Y0219490D02*
X0095685Y0219490D01*
X0095685Y0219882D02*
X0095291Y0219882D01*
X0095291Y0220275D02*
X0078415Y0220275D01*
X0078415Y0220667D02*
X0092425Y0220667D01*
X0092372Y0220401D02*
X0092372Y0220291D01*
X0095291Y0220291D01*
X0095291Y0223211D01*
X0095181Y0223211D01*
X0094579Y0223091D01*
X0094012Y0222856D01*
X0093502Y0222515D01*
X0093068Y0222081D01*
X0092727Y0221571D01*
X0092492Y0221003D01*
X0092372Y0220401D01*
X0092372Y0219882D02*
X0078415Y0219882D01*
X0078415Y0219490D02*
X0092431Y0219490D01*
X0092528Y0219098D02*
X0078415Y0219098D01*
X0078415Y0218706D02*
X0092691Y0218706D01*
X0092930Y0218313D02*
X0078415Y0218313D01*
X0078415Y0217921D02*
X0093255Y0217921D01*
X0093719Y0217529D02*
X0078415Y0217529D01*
X0078415Y0216352D02*
X0094825Y0216352D01*
X0093953Y0215960D02*
X0078415Y0215960D01*
X0078415Y0215568D02*
X0093561Y0215568D01*
X0093228Y0215176D02*
X0078415Y0215176D01*
X0078415Y0214784D02*
X0093066Y0214784D01*
X0092903Y0214391D02*
X0078415Y0214391D01*
X0078415Y0213999D02*
X0092872Y0213999D01*
X0092872Y0213607D02*
X0078415Y0213607D01*
X0078415Y0213215D02*
X0092897Y0213215D01*
X0093059Y0212822D02*
X0078415Y0212822D01*
X0078415Y0212430D02*
X0093222Y0212430D01*
X0093546Y0212038D02*
X0078415Y0212038D01*
X0078415Y0211646D02*
X0093938Y0211646D01*
X0094788Y0211254D02*
X0078415Y0211254D01*
X0078415Y0210861D02*
X0096900Y0210861D01*
X0096959Y0211254D02*
X0096188Y0211254D01*
X0097039Y0211646D02*
X0097057Y0211646D01*
X0096952Y0210077D02*
X0096094Y0210077D01*
X0096999Y0209685D02*
X0097041Y0209685D01*
X0098063Y0208116D02*
X0098193Y0208116D01*
X0097410Y0203802D02*
X0097199Y0203802D01*
X0106263Y0205370D02*
X0106467Y0205370D01*
X0109662Y0208508D02*
X0327660Y0208508D01*
X0327659Y0208116D02*
X0110576Y0208116D01*
X0110968Y0207724D02*
X0327659Y0207724D01*
X0327659Y0207332D02*
X0111318Y0207332D01*
X0111481Y0206939D02*
X0327992Y0206939D01*
X0328384Y0206547D02*
X0111643Y0206547D01*
X0102999Y0213215D02*
X0101780Y0213215D01*
X0102117Y0214391D02*
X0100687Y0214391D01*
X0101554Y0214784D02*
X0101955Y0214784D01*
X0102605Y0217529D02*
X0103002Y0217529D01*
X0102443Y0217921D02*
X0103866Y0217921D01*
X0103555Y0218706D02*
X0101955Y0218706D01*
X0102281Y0218313D02*
X0106455Y0218313D01*
X0106455Y0218706D02*
X0105531Y0218706D01*
X0104740Y0218706D02*
X0104346Y0218706D01*
X0104346Y0219098D02*
X0104740Y0219098D01*
X0104740Y0219490D02*
X0104346Y0219490D01*
X0104346Y0219882D02*
X0104740Y0219882D01*
X0104740Y0220275D02*
X0104346Y0220275D01*
X0104346Y0220667D02*
X0104740Y0220667D01*
X0104740Y0221059D02*
X0104346Y0221059D01*
X0104346Y0221451D02*
X0104740Y0221451D01*
X0104740Y0221843D02*
X0377915Y0221843D01*
X0377915Y0221451D02*
X0107659Y0221451D01*
X0107599Y0221059D02*
X0108365Y0221059D01*
X0107518Y0220667D02*
X0107501Y0220667D01*
X0107659Y0221866D02*
X0104740Y0221866D01*
X0104740Y0224785D01*
X0104850Y0224785D01*
X0105452Y0224666D01*
X0106019Y0224431D01*
X0106530Y0224090D01*
X0106549Y0224070D01*
X0106455Y0224298D01*
X0106455Y0225339D01*
X0106853Y0226301D01*
X0107589Y0227037D01*
X0108550Y0227435D01*
X0109591Y0227435D01*
X0110553Y0227037D01*
X0111289Y0226301D01*
X0111687Y0225339D01*
X0111687Y0224298D01*
X0111289Y0223337D01*
X0110553Y0222601D01*
X0109591Y0222203D01*
X0108550Y0222203D01*
X0107589Y0222601D01*
X0107489Y0222701D01*
X0107540Y0222578D01*
X0107659Y0221976D01*
X0107659Y0221866D01*
X0107608Y0222236D02*
X0108471Y0222236D01*
X0107562Y0222628D02*
X0107519Y0222628D01*
X0106497Y0224197D02*
X0106370Y0224197D01*
X0106455Y0224589D02*
X0105638Y0224589D01*
X0104740Y0224589D02*
X0104346Y0224589D01*
X0104346Y0224197D02*
X0104740Y0224197D01*
X0104740Y0223804D02*
X0104346Y0223804D01*
X0104346Y0223412D02*
X0104740Y0223412D01*
X0104740Y0223020D02*
X0104346Y0223020D01*
X0104346Y0222628D02*
X0104740Y0222628D01*
X0104740Y0222236D02*
X0104346Y0222236D01*
X0103449Y0224589D02*
X0102290Y0224589D01*
X0102453Y0224197D02*
X0102717Y0224197D01*
X0101979Y0224981D02*
X0106455Y0224981D01*
X0106469Y0225373D02*
X0105114Y0225373D01*
X0105064Y0225352D02*
X0106025Y0225751D01*
X0106761Y0226487D01*
X0107159Y0227448D01*
X0107159Y0228489D01*
X0107065Y0228717D01*
X0107084Y0228698D01*
X0107595Y0228357D01*
X0108162Y0228122D01*
X0108764Y0228002D01*
X0108874Y0228002D01*
X0108874Y0230921D01*
X0109268Y0230921D01*
X0109268Y0231315D01*
X0112187Y0231315D01*
X0112187Y0231425D01*
X0112067Y0232027D01*
X0111832Y0232594D01*
X0111491Y0233105D01*
X0111057Y0233539D01*
X0110547Y0233880D01*
X0109980Y0234114D01*
X0109378Y0234234D01*
X0109268Y0234234D01*
X0109268Y0231315D01*
X0108874Y0231315D01*
X0108874Y0234234D01*
X0108764Y0234234D01*
X0108162Y0234114D01*
X0107595Y0233880D01*
X0107084Y0233539D01*
X0107065Y0233519D01*
X0107159Y0233747D01*
X0107159Y0234788D01*
X0106761Y0235750D01*
X0106025Y0236486D01*
X0105064Y0236884D01*
X0104023Y0236884D01*
X0103061Y0236486D01*
X0102325Y0235750D01*
X0101927Y0234788D01*
X0101927Y0233747D01*
X0102325Y0232786D01*
X0103061Y0232050D01*
X0104023Y0231652D01*
X0105064Y0231652D01*
X0106025Y0232050D01*
X0106125Y0232150D01*
X0106074Y0232027D01*
X0105955Y0231425D01*
X0105955Y0231315D01*
X0108874Y0231315D01*
X0108874Y0230921D01*
X0105955Y0230921D01*
X0105955Y0230811D01*
X0106074Y0230209D01*
X0106125Y0230086D01*
X0106025Y0230186D01*
X0105064Y0230585D01*
X0104023Y0230585D01*
X0103065Y0230188D01*
X0103012Y0230452D01*
X0102777Y0231019D01*
X0102436Y0231530D01*
X0102002Y0231964D01*
X0101492Y0232305D01*
X0100925Y0232540D01*
X0100323Y0232659D01*
X0100213Y0232659D01*
X0100213Y0229740D01*
X0099819Y0229740D01*
X0099819Y0229346D01*
X0100213Y0229346D01*
X0100213Y0226427D01*
X0100323Y0226427D01*
X0100925Y0226547D01*
X0101492Y0226782D01*
X0102002Y0227123D01*
X0102044Y0227165D01*
X0102325Y0226487D01*
X0103061Y0225751D01*
X0104023Y0225352D01*
X0105064Y0225352D01*
X0106040Y0225765D02*
X0106631Y0225765D01*
X0106794Y0226158D02*
X0106432Y0226158D01*
X0106787Y0226550D02*
X0107102Y0226550D01*
X0106950Y0226942D02*
X0107494Y0226942D01*
X0107112Y0227334D02*
X0108307Y0227334D01*
X0108177Y0228119D02*
X0107159Y0228119D01*
X0107150Y0228511D02*
X0107364Y0228511D01*
X0107159Y0227727D02*
X0377915Y0227727D01*
X0377915Y0228119D02*
X0109965Y0228119D01*
X0109980Y0228122D02*
X0110547Y0228357D01*
X0111057Y0228698D01*
X0111491Y0229132D01*
X0111832Y0229642D01*
X0112067Y0230209D01*
X0112187Y0230811D01*
X0112187Y0230921D01*
X0109268Y0230921D01*
X0109268Y0228002D01*
X0109378Y0228002D01*
X0109980Y0228122D01*
X0109268Y0228119D02*
X0108874Y0228119D01*
X0108874Y0228511D02*
X0109268Y0228511D01*
X0109268Y0228903D02*
X0108874Y0228903D01*
X0108874Y0229295D02*
X0109268Y0229295D01*
X0109268Y0229688D02*
X0108874Y0229688D01*
X0108874Y0230080D02*
X0109268Y0230080D01*
X0109268Y0230472D02*
X0108874Y0230472D01*
X0108874Y0230864D02*
X0109268Y0230864D01*
X0109268Y0231256D02*
X0377915Y0231256D01*
X0377915Y0230864D02*
X0112187Y0230864D01*
X0112120Y0230472D02*
X0377915Y0230472D01*
X0377915Y0230080D02*
X0112014Y0230080D01*
X0111851Y0229688D02*
X0377915Y0229688D01*
X0377915Y0229295D02*
X0111601Y0229295D01*
X0111263Y0228903D02*
X0377915Y0228903D01*
X0377915Y0228511D02*
X0110778Y0228511D01*
X0109834Y0227334D02*
X0377915Y0227334D01*
X0377915Y0226942D02*
X0110647Y0226942D01*
X0111040Y0226550D02*
X0377915Y0226550D01*
X0377915Y0226158D02*
X0111348Y0226158D01*
X0111510Y0225765D02*
X0377915Y0225765D01*
X0377915Y0225373D02*
X0111673Y0225373D01*
X0111687Y0224981D02*
X0377915Y0224981D01*
X0377915Y0224589D02*
X0111687Y0224589D01*
X0111645Y0224197D02*
X0377915Y0224197D01*
X0377915Y0223804D02*
X0111482Y0223804D01*
X0111320Y0223412D02*
X0377915Y0223412D01*
X0377915Y0223020D02*
X0110972Y0223020D01*
X0110580Y0222628D02*
X0377915Y0222628D01*
X0377915Y0222236D02*
X0109670Y0222236D01*
X0109777Y0221059D02*
X0377915Y0221059D01*
X0377915Y0220667D02*
X0110624Y0220667D01*
X0111016Y0220275D02*
X0377915Y0220275D01*
X0377915Y0219882D02*
X0111338Y0219882D01*
X0111501Y0219490D02*
X0377915Y0219490D01*
X0377915Y0219098D02*
X0111663Y0219098D01*
X0111687Y0218706D02*
X0377915Y0218706D01*
X0377915Y0218313D02*
X0111687Y0218313D01*
X0111655Y0217921D02*
X0377915Y0217921D01*
X0377915Y0217529D02*
X0111492Y0217529D01*
X0111330Y0217137D02*
X0377915Y0217137D01*
X0377915Y0216745D02*
X0110996Y0216745D01*
X0110603Y0216352D02*
X0377915Y0216352D01*
X0377915Y0231649D02*
X0335331Y0231649D01*
X0335279Y0231596D02*
X0336152Y0232469D01*
X0336152Y0233704D01*
X0335555Y0234301D01*
X0336013Y0234760D01*
X0336013Y0235995D01*
X0335140Y0236868D01*
X0333905Y0236868D01*
X0333032Y0235995D01*
X0333032Y0234760D01*
X0333629Y0234163D01*
X0333171Y0233704D01*
X0333171Y0232469D01*
X0334044Y0231596D01*
X0335279Y0231596D01*
X0335724Y0232041D02*
X0377915Y0232041D01*
X0377915Y0232433D02*
X0336116Y0232433D01*
X0336152Y0232825D02*
X0377915Y0232825D01*
X0377915Y0233218D02*
X0355010Y0233218D01*
X0354964Y0233171D02*
X0355837Y0234044D01*
X0355837Y0235279D01*
X0354964Y0236152D01*
X0353729Y0236152D01*
X0352856Y0235279D01*
X0352856Y0234044D01*
X0353729Y0233171D01*
X0354964Y0233171D01*
X0355403Y0233610D02*
X0377915Y0233610D01*
X0377915Y0234002D02*
X0355795Y0234002D01*
X0355837Y0234394D02*
X0377915Y0234394D01*
X0377915Y0234786D02*
X0355837Y0234786D01*
X0355837Y0235179D02*
X0377915Y0235179D01*
X0377915Y0235571D02*
X0355545Y0235571D01*
X0355153Y0235963D02*
X0377915Y0235963D01*
X0377915Y0236355D02*
X0344813Y0236355D01*
X0344813Y0235963D02*
X0353540Y0235963D01*
X0353148Y0235571D02*
X0344765Y0235571D01*
X0344813Y0235619D02*
X0343940Y0234746D01*
X0342705Y0234746D01*
X0341832Y0235619D01*
X0341832Y0236854D01*
X0342705Y0237727D01*
X0343940Y0237727D01*
X0344813Y0236854D01*
X0344813Y0235619D01*
X0344373Y0235179D02*
X0352856Y0235179D01*
X0352856Y0234786D02*
X0343981Y0234786D01*
X0342665Y0234786D02*
X0336013Y0234786D01*
X0336013Y0235179D02*
X0342273Y0235179D01*
X0341880Y0235571D02*
X0336013Y0235571D01*
X0336013Y0235963D02*
X0341832Y0235963D01*
X0341832Y0236355D02*
X0335653Y0236355D01*
X0335261Y0236747D02*
X0341832Y0236747D01*
X0342118Y0237140D02*
X0078415Y0237140D01*
X0078415Y0237532D02*
X0342511Y0237532D01*
X0344135Y0237532D02*
X0377915Y0237532D01*
X0377915Y0237924D02*
X0078415Y0237924D01*
X0078415Y0238316D02*
X0377915Y0238316D01*
X0377915Y0238708D02*
X0078415Y0238708D01*
X0078415Y0239101D02*
X0377915Y0239101D01*
X0377915Y0239493D02*
X0078415Y0239493D01*
X0078415Y0239885D02*
X0377915Y0239885D01*
X0377915Y0240277D02*
X0078415Y0240277D01*
X0078415Y0240670D02*
X0377915Y0240670D01*
X0377915Y0241062D02*
X0102082Y0241062D01*
X0102032Y0241036D02*
X0102697Y0241375D01*
X0103301Y0241814D01*
X0103828Y0242341D01*
X0104267Y0242945D01*
X0104605Y0243610D01*
X0104836Y0244319D01*
X0104953Y0245056D01*
X0104953Y0245232D01*
X0100409Y0245232D01*
X0100409Y0240689D01*
X0100586Y0240689D01*
X0101323Y0240806D01*
X0102032Y0241036D01*
X0102806Y0241454D02*
X0377915Y0241454D01*
X0377915Y0241846D02*
X0349072Y0241846D01*
X0349058Y0241832D02*
X0349931Y0242705D01*
X0349931Y0243940D01*
X0349058Y0244813D01*
X0347824Y0244813D01*
X0346950Y0243940D01*
X0346950Y0242705D01*
X0347824Y0241832D01*
X0349058Y0241832D01*
X0349464Y0242238D02*
X0377915Y0242238D01*
X0377915Y0242631D02*
X0349857Y0242631D01*
X0349931Y0243023D02*
X0377915Y0243023D01*
X0377915Y0243415D02*
X0349931Y0243415D01*
X0349931Y0243807D02*
X0377915Y0243807D01*
X0377915Y0244199D02*
X0349672Y0244199D01*
X0349280Y0244592D02*
X0377915Y0244592D01*
X0377915Y0244984D02*
X0104941Y0244984D01*
X0104879Y0244592D02*
X0347602Y0244592D01*
X0347210Y0244199D02*
X0104797Y0244199D01*
X0104670Y0243807D02*
X0346950Y0243807D01*
X0346950Y0243415D02*
X0104506Y0243415D01*
X0104306Y0243023D02*
X0346950Y0243023D01*
X0347025Y0242631D02*
X0104038Y0242631D01*
X0103725Y0242238D02*
X0347417Y0242238D01*
X0347810Y0241846D02*
X0103333Y0241846D01*
X0100409Y0241846D02*
X0100016Y0241846D01*
X0100016Y0241454D02*
X0100409Y0241454D01*
X0100409Y0241062D02*
X0100016Y0241062D01*
X0100016Y0240689D02*
X0100016Y0245232D01*
X0100409Y0245232D01*
X0100409Y0245626D01*
X0100016Y0245626D01*
X0100016Y0250169D01*
X0099840Y0250169D01*
X0099103Y0250053D01*
X0098393Y0249822D01*
X0097728Y0249483D01*
X0097125Y0249045D01*
X0096597Y0248517D01*
X0096158Y0247914D01*
X0095820Y0247249D01*
X0095589Y0246539D01*
X0095472Y0245802D01*
X0095472Y0245626D01*
X0100016Y0245626D01*
X0100016Y0245232D01*
X0095472Y0245232D01*
X0095472Y0245056D01*
X0095589Y0244319D01*
X0095820Y0243610D01*
X0096158Y0242945D01*
X0096597Y0242341D01*
X0097125Y0241814D01*
X0097728Y0241375D01*
X0098393Y0241036D01*
X0099103Y0240806D01*
X0099840Y0240689D01*
X0100016Y0240689D01*
X0100016Y0242238D02*
X0100409Y0242238D01*
X0100409Y0242631D02*
X0100016Y0242631D01*
X0100016Y0243023D02*
X0100409Y0243023D01*
X0100409Y0243415D02*
X0100016Y0243415D01*
X0100016Y0243807D02*
X0100409Y0243807D01*
X0100409Y0244199D02*
X0100016Y0244199D01*
X0100016Y0244592D02*
X0100409Y0244592D01*
X0100409Y0244984D02*
X0100016Y0244984D01*
X0100016Y0245376D02*
X0078415Y0245376D01*
X0078415Y0244984D02*
X0095484Y0244984D01*
X0095546Y0244592D02*
X0078415Y0244592D01*
X0078415Y0244199D02*
X0095628Y0244199D01*
X0095755Y0243807D02*
X0078415Y0243807D01*
X0078415Y0243415D02*
X0095919Y0243415D01*
X0096119Y0243023D02*
X0078415Y0243023D01*
X0078415Y0242631D02*
X0096387Y0242631D01*
X0096700Y0242238D02*
X0078415Y0242238D01*
X0078415Y0241846D02*
X0097092Y0241846D01*
X0097620Y0241454D02*
X0078415Y0241454D01*
X0078415Y0241062D02*
X0098343Y0241062D01*
X0100409Y0245376D02*
X0377915Y0245376D01*
X0377915Y0245768D02*
X0104953Y0245768D01*
X0104953Y0245802D02*
X0104836Y0246539D01*
X0104605Y0247249D01*
X0104267Y0247914D01*
X0103828Y0248517D01*
X0103301Y0249045D01*
X0102697Y0249483D01*
X0102032Y0249822D01*
X0101323Y0250053D01*
X0100586Y0250169D01*
X0100409Y0250169D01*
X0100409Y0245626D01*
X0104953Y0245626D01*
X0104953Y0245802D01*
X0104896Y0246161D02*
X0377915Y0246161D01*
X0377915Y0246553D02*
X0104832Y0246553D01*
X0104704Y0246945D02*
X0377915Y0246945D01*
X0377915Y0247337D02*
X0335666Y0247337D01*
X0335279Y0246950D02*
X0336152Y0247824D01*
X0336152Y0249058D01*
X0335391Y0249819D01*
X0335758Y0250186D01*
X0335758Y0251421D01*
X0334885Y0252294D01*
X0333650Y0252294D01*
X0332777Y0251421D01*
X0332777Y0250186D01*
X0333538Y0249425D01*
X0333171Y0249058D01*
X0333171Y0247824D01*
X0334044Y0246950D01*
X0335279Y0246950D01*
X0336058Y0247729D02*
X0377915Y0247729D01*
X0377915Y0248122D02*
X0336152Y0248122D01*
X0336152Y0248514D02*
X0377915Y0248514D01*
X0377915Y0248906D02*
X0336152Y0248906D01*
X0335912Y0249298D02*
X0377915Y0249298D01*
X0377915Y0249690D02*
X0335520Y0249690D01*
X0335655Y0250083D02*
X0377915Y0250083D01*
X0377915Y0250475D02*
X0335758Y0250475D01*
X0335758Y0250867D02*
X0377915Y0250867D01*
X0377915Y0251259D02*
X0335758Y0251259D01*
X0335527Y0251651D02*
X0377915Y0251651D01*
X0377915Y0252044D02*
X0335135Y0252044D01*
X0333400Y0252044D02*
X0078415Y0252044D01*
X0078415Y0252436D02*
X0377915Y0252436D01*
X0377915Y0252828D02*
X0078415Y0252828D01*
X0078415Y0253220D02*
X0377915Y0253220D01*
X0377915Y0253613D02*
X0078415Y0253613D01*
X0078415Y0254005D02*
X0377915Y0254005D01*
X0377915Y0254397D02*
X0078415Y0254397D01*
X0078415Y0254789D02*
X0377915Y0254789D01*
X0377915Y0255181D02*
X0078415Y0255181D01*
X0078415Y0255574D02*
X0377915Y0255574D01*
X0377915Y0255966D02*
X0078415Y0255966D01*
X0078415Y0256358D02*
X0377915Y0256358D01*
X0377915Y0256750D02*
X0078415Y0256750D01*
X0078415Y0257142D02*
X0377915Y0257142D01*
X0377915Y0257535D02*
X0078415Y0257535D01*
X0078415Y0257927D02*
X0377915Y0257927D01*
X0377915Y0258319D02*
X0078415Y0258319D01*
X0078415Y0258711D02*
X0377915Y0258711D01*
X0377915Y0259104D02*
X0078415Y0259104D01*
X0078415Y0259496D02*
X0377915Y0259496D01*
X0377915Y0259888D02*
X0078415Y0259888D01*
X0078415Y0260280D02*
X0377915Y0260280D01*
X0377915Y0260672D02*
X0078415Y0260672D01*
X0078415Y0261065D02*
X0377915Y0261065D01*
X0377915Y0261457D02*
X0078415Y0261457D01*
X0078415Y0261849D02*
X0333319Y0261849D01*
X0333650Y0261517D02*
X0334885Y0261517D01*
X0335758Y0262390D01*
X0335758Y0263625D01*
X0335195Y0264189D01*
X0335758Y0264753D01*
X0335758Y0265987D01*
X0334885Y0266861D01*
X0333650Y0266861D01*
X0332777Y0265987D01*
X0332777Y0264753D01*
X0333341Y0264189D01*
X0332777Y0263625D01*
X0332777Y0262390D01*
X0333650Y0261517D01*
X0332926Y0262241D02*
X0091778Y0262241D01*
X0091620Y0262083D02*
X0092831Y0263293D01*
X0092831Y0265006D01*
X0091620Y0266217D01*
X0089908Y0266217D01*
X0088697Y0265006D01*
X0088697Y0263293D01*
X0089908Y0262083D01*
X0091620Y0262083D01*
X0092171Y0262633D02*
X0332777Y0262633D01*
X0332777Y0263026D02*
X0092563Y0263026D01*
X0092831Y0263418D02*
X0332777Y0263418D01*
X0332962Y0263810D02*
X0092831Y0263810D01*
X0092831Y0264202D02*
X0333328Y0264202D01*
X0332935Y0264594D02*
X0092831Y0264594D01*
X0092831Y0264987D02*
X0332777Y0264987D01*
X0332777Y0265379D02*
X0092458Y0265379D01*
X0092065Y0265771D02*
X0332777Y0265771D01*
X0332953Y0266163D02*
X0091673Y0266163D01*
X0089854Y0266163D02*
X0078415Y0266163D01*
X0078415Y0265771D02*
X0089462Y0265771D01*
X0089070Y0265379D02*
X0078415Y0265379D01*
X0078415Y0264987D02*
X0088697Y0264987D01*
X0088697Y0264594D02*
X0078415Y0264594D01*
X0078415Y0264202D02*
X0088697Y0264202D01*
X0088697Y0263810D02*
X0078415Y0263810D01*
X0078415Y0263418D02*
X0088697Y0263418D01*
X0088965Y0263026D02*
X0078415Y0263026D01*
X0078415Y0262633D02*
X0089357Y0262633D01*
X0089749Y0262241D02*
X0078415Y0262241D01*
X0078415Y0266556D02*
X0333345Y0266556D01*
X0335190Y0266556D02*
X0377915Y0266556D01*
X0377915Y0266948D02*
X0078415Y0266948D01*
X0078415Y0267340D02*
X0377915Y0267340D01*
X0377915Y0267732D02*
X0078415Y0267732D01*
X0078415Y0268124D02*
X0377915Y0268124D01*
X0377915Y0268517D02*
X0078415Y0268517D01*
X0078415Y0268909D02*
X0377915Y0268909D01*
X0377915Y0269301D02*
X0078415Y0269301D01*
X0078415Y0269693D02*
X0377915Y0269693D01*
X0377915Y0270085D02*
X0078415Y0270085D01*
X0078415Y0270478D02*
X0377915Y0270478D01*
X0377915Y0270870D02*
X0078415Y0270870D01*
X0078415Y0271262D02*
X0095421Y0271262D01*
X0095080Y0271403D02*
X0095781Y0271113D01*
X0096526Y0270965D01*
X0096709Y0270965D01*
X0096709Y0274622D01*
X0097102Y0274622D01*
X0097102Y0270965D01*
X0097285Y0270965D01*
X0098030Y0271113D01*
X0098731Y0271403D01*
X0099362Y0271825D01*
X0099899Y0272362D01*
X0100321Y0272993D01*
X0100612Y0273695D01*
X0100760Y0274439D01*
X0100760Y0274622D01*
X0097102Y0274622D01*
X0097102Y0275016D01*
X0096709Y0275016D01*
X0096709Y0278673D01*
X0096526Y0278673D01*
X0095781Y0278525D01*
X0095080Y0278235D01*
X0094449Y0277813D01*
X0093912Y0277276D01*
X0093490Y0276645D01*
X0093199Y0275943D01*
X0093051Y0275199D01*
X0093051Y0275016D01*
X0096709Y0275016D01*
X0096709Y0274622D01*
X0093051Y0274622D01*
X0093051Y0274439D01*
X0093199Y0273695D01*
X0093490Y0272993D01*
X0093912Y0272362D01*
X0094449Y0271825D01*
X0095080Y0271403D01*
X0094704Y0271654D02*
X0078415Y0271654D01*
X0078415Y0272047D02*
X0094227Y0272047D01*
X0093860Y0272439D02*
X0078415Y0272439D01*
X0078415Y0272831D02*
X0093598Y0272831D01*
X0093395Y0273223D02*
X0078415Y0273223D01*
X0078415Y0273615D02*
X0093232Y0273615D01*
X0093137Y0274008D02*
X0078415Y0274008D01*
X0078415Y0274400D02*
X0093059Y0274400D01*
X0093051Y0275184D02*
X0078415Y0275184D01*
X0078415Y0274792D02*
X0096709Y0274792D01*
X0096709Y0275184D02*
X0097102Y0275184D01*
X0097102Y0275016D02*
X0097102Y0278673D01*
X0097285Y0278673D01*
X0098030Y0278525D01*
X0098731Y0278235D01*
X0099362Y0277813D01*
X0099899Y0277276D01*
X0100321Y0276645D01*
X0100612Y0275943D01*
X0100760Y0275199D01*
X0100760Y0275016D01*
X0097102Y0275016D01*
X0097102Y0274792D02*
X0103551Y0274792D01*
X0103551Y0275184D02*
X0100760Y0275184D01*
X0100685Y0275576D02*
X0103589Y0275576D01*
X0103551Y0275486D02*
X0103551Y0274152D01*
X0104062Y0272919D01*
X0105005Y0271975D01*
X0106238Y0271465D01*
X0107573Y0271465D01*
X0108806Y0271975D01*
X0109749Y0272919D01*
X0110260Y0274152D01*
X0110260Y0275486D01*
X0109749Y0276719D01*
X0108806Y0277663D01*
X0107573Y0278173D01*
X0106238Y0278173D01*
X0105005Y0277663D01*
X0104062Y0276719D01*
X0103551Y0275486D01*
X0103751Y0275969D02*
X0100601Y0275969D01*
X0100439Y0276361D02*
X0103914Y0276361D01*
X0104096Y0276753D02*
X0100249Y0276753D01*
X0099987Y0277145D02*
X0104488Y0277145D01*
X0104880Y0277537D02*
X0099638Y0277537D01*
X0099187Y0277930D02*
X0105650Y0277930D01*
X0108161Y0277930D02*
X0114624Y0277930D01*
X0114449Y0277813D02*
X0113912Y0277276D01*
X0113490Y0276645D01*
X0113199Y0275943D01*
X0113051Y0275199D01*
X0113051Y0275016D01*
X0116709Y0275016D01*
X0116709Y0278673D01*
X0116526Y0278673D01*
X0115781Y0278525D01*
X0115080Y0278235D01*
X0114449Y0277813D01*
X0114173Y0277537D02*
X0108931Y0277537D01*
X0109323Y0277145D02*
X0113824Y0277145D01*
X0113562Y0276753D02*
X0109715Y0276753D01*
X0109898Y0276361D02*
X0113372Y0276361D01*
X0113210Y0275969D02*
X0110060Y0275969D01*
X0110222Y0275576D02*
X0113126Y0275576D01*
X0113051Y0275184D02*
X0110260Y0275184D01*
X0110260Y0274792D02*
X0116709Y0274792D01*
X0116709Y0274622D02*
X0113051Y0274622D01*
X0113051Y0274439D01*
X0113199Y0273695D01*
X0113490Y0272993D01*
X0113912Y0272362D01*
X0114449Y0271825D01*
X0115080Y0271403D01*
X0115781Y0271113D01*
X0116526Y0270965D01*
X0116709Y0270965D01*
X0116709Y0274622D01*
X0117102Y0274622D01*
X0117102Y0270965D01*
X0117285Y0270965D01*
X0118030Y0271113D01*
X0118731Y0271403D01*
X0119362Y0271825D01*
X0119899Y0272362D01*
X0120321Y0272993D01*
X0120612Y0273695D01*
X0120760Y0274439D01*
X0120760Y0274622D01*
X0117102Y0274622D01*
X0117102Y0275016D01*
X0116709Y0275016D01*
X0116709Y0274622D01*
X0116709Y0274400D02*
X0117102Y0274400D01*
X0117102Y0274792D02*
X0123551Y0274792D01*
X0123551Y0275184D02*
X0120760Y0275184D01*
X0120760Y0275199D02*
X0120612Y0275943D01*
X0120321Y0276645D01*
X0119899Y0277276D01*
X0119362Y0277813D01*
X0118731Y0278235D01*
X0118030Y0278525D01*
X0117285Y0278673D01*
X0117102Y0278673D01*
X0117102Y0275016D01*
X0120760Y0275016D01*
X0120760Y0275199D01*
X0120685Y0275576D02*
X0123589Y0275576D01*
X0123551Y0275486D02*
X0123551Y0274152D01*
X0124062Y0272919D01*
X0125005Y0271975D01*
X0126238Y0271465D01*
X0127573Y0271465D01*
X0128806Y0271975D01*
X0129749Y0272919D01*
X0130260Y0274152D01*
X0130260Y0275486D01*
X0129749Y0276719D01*
X0128806Y0277663D01*
X0127573Y0278173D01*
X0126238Y0278173D01*
X0125005Y0277663D01*
X0124062Y0276719D01*
X0123551Y0275486D01*
X0123751Y0275969D02*
X0120601Y0275969D01*
X0120439Y0276361D02*
X0123914Y0276361D01*
X0124096Y0276753D02*
X0120249Y0276753D01*
X0119987Y0277145D02*
X0124488Y0277145D01*
X0124880Y0277537D02*
X0119638Y0277537D01*
X0119187Y0277930D02*
X0125650Y0277930D01*
X0128161Y0277930D02*
X0377915Y0277930D01*
X0377915Y0278322D02*
X0118520Y0278322D01*
X0117102Y0278322D02*
X0116709Y0278322D01*
X0116709Y0277930D02*
X0117102Y0277930D01*
X0117102Y0277537D02*
X0116709Y0277537D01*
X0116709Y0277145D02*
X0117102Y0277145D01*
X0117102Y0276753D02*
X0116709Y0276753D01*
X0116709Y0276361D02*
X0117102Y0276361D01*
X0117102Y0275969D02*
X0116709Y0275969D01*
X0116709Y0275576D02*
X0117102Y0275576D01*
X0117102Y0275184D02*
X0116709Y0275184D01*
X0116709Y0274008D02*
X0117102Y0274008D01*
X0117102Y0273615D02*
X0116709Y0273615D01*
X0116709Y0273223D02*
X0117102Y0273223D01*
X0117102Y0272831D02*
X0116709Y0272831D01*
X0116709Y0272439D02*
X0117102Y0272439D01*
X0117102Y0272047D02*
X0116709Y0272047D01*
X0116709Y0271654D02*
X0117102Y0271654D01*
X0117102Y0271262D02*
X0116709Y0271262D01*
X0115421Y0271262D02*
X0098390Y0271262D01*
X0099107Y0271654D02*
X0105780Y0271654D01*
X0104934Y0272047D02*
X0099584Y0272047D01*
X0099951Y0272439D02*
X0104542Y0272439D01*
X0104150Y0272831D02*
X0100213Y0272831D01*
X0100416Y0273223D02*
X0103936Y0273223D01*
X0103773Y0273615D02*
X0100579Y0273615D01*
X0100674Y0274008D02*
X0103611Y0274008D01*
X0103551Y0274400D02*
X0100752Y0274400D01*
X0097102Y0274400D02*
X0096709Y0274400D01*
X0096709Y0274008D02*
X0097102Y0274008D01*
X0097102Y0273615D02*
X0096709Y0273615D01*
X0096709Y0273223D02*
X0097102Y0273223D01*
X0097102Y0272831D02*
X0096709Y0272831D01*
X0096709Y0272439D02*
X0097102Y0272439D01*
X0097102Y0272047D02*
X0096709Y0272047D01*
X0096709Y0271654D02*
X0097102Y0271654D01*
X0097102Y0271262D02*
X0096709Y0271262D01*
X0096709Y0275576D02*
X0097102Y0275576D01*
X0097102Y0275969D02*
X0096709Y0275969D01*
X0096709Y0276361D02*
X0097102Y0276361D01*
X0097102Y0276753D02*
X0096709Y0276753D01*
X0096709Y0277145D02*
X0097102Y0277145D01*
X0097102Y0277537D02*
X0096709Y0277537D01*
X0096709Y0277930D02*
X0097102Y0277930D01*
X0097102Y0278322D02*
X0096709Y0278322D01*
X0095291Y0278322D02*
X0078415Y0278322D01*
X0078415Y0278714D02*
X0377915Y0278714D01*
X0377915Y0279106D02*
X0078415Y0279106D01*
X0078415Y0279499D02*
X0377915Y0279499D01*
X0377915Y0279891D02*
X0078415Y0279891D01*
X0078415Y0280283D02*
X0377915Y0280283D01*
X0377915Y0280675D02*
X0078415Y0280675D01*
X0078415Y0281067D02*
X0377915Y0281067D01*
X0377915Y0281460D02*
X0078415Y0281460D01*
X0078415Y0281852D02*
X0377915Y0281852D01*
X0377915Y0282244D02*
X0078415Y0282244D01*
X0078415Y0282636D02*
X0377915Y0282636D01*
X0377915Y0283028D02*
X0078415Y0283028D01*
X0078415Y0283421D02*
X0377915Y0283421D01*
X0377915Y0283813D02*
X0078415Y0283813D01*
X0078415Y0284205D02*
X0377915Y0284205D01*
X0377915Y0284597D02*
X0078415Y0284597D01*
X0078415Y0284990D02*
X0118639Y0284990D01*
X0119288Y0284720D02*
X0122476Y0284720D01*
X0125420Y0285940D01*
X0127674Y0288194D01*
X0128894Y0291139D01*
X0128894Y0294326D01*
X0127674Y0297271D01*
X0125420Y0299524D01*
X0122476Y0300744D01*
X0119288Y0300744D01*
X0116344Y0299524D01*
X0114090Y0297271D01*
X0112870Y0294326D01*
X0112870Y0291139D01*
X0114090Y0288194D01*
X0116344Y0285940D01*
X0119288Y0284720D01*
X0117692Y0285382D02*
X0078415Y0285382D01*
X0078415Y0285774D02*
X0116745Y0285774D01*
X0116118Y0286166D02*
X0078415Y0286166D01*
X0078415Y0286558D02*
X0115725Y0286558D01*
X0115333Y0286951D02*
X0078415Y0286951D01*
X0078415Y0287343D02*
X0114941Y0287343D01*
X0114549Y0287735D02*
X0078415Y0287735D01*
X0078415Y0288127D02*
X0114157Y0288127D01*
X0113955Y0288519D02*
X0078415Y0288519D01*
X0078415Y0288912D02*
X0113793Y0288912D01*
X0113630Y0289304D02*
X0078415Y0289304D01*
X0078415Y0289696D02*
X0113468Y0289696D01*
X0113305Y0290088D02*
X0078415Y0290088D01*
X0078415Y0290480D02*
X0113143Y0290480D01*
X0112980Y0290873D02*
X0078415Y0290873D01*
X0078415Y0291265D02*
X0112870Y0291265D01*
X0112870Y0291657D02*
X0078415Y0291657D01*
X0078415Y0292049D02*
X0112870Y0292049D01*
X0112870Y0292442D02*
X0078415Y0292442D01*
X0078415Y0292834D02*
X0112870Y0292834D01*
X0112870Y0293226D02*
X0078415Y0293226D01*
X0078415Y0293618D02*
X0112870Y0293618D01*
X0112870Y0294010D02*
X0078415Y0294010D01*
X0078415Y0294403D02*
X0112902Y0294403D01*
X0113064Y0294795D02*
X0078415Y0294795D01*
X0078415Y0295187D02*
X0113227Y0295187D01*
X0113389Y0295579D02*
X0078415Y0295579D01*
X0078415Y0295971D02*
X0113552Y0295971D01*
X0113714Y0296364D02*
X0078415Y0296364D01*
X0078415Y0296756D02*
X0113877Y0296756D01*
X0114039Y0297148D02*
X0078415Y0297148D01*
X0078415Y0297540D02*
X0114359Y0297540D01*
X0114752Y0297933D02*
X0078415Y0297933D01*
X0078415Y0298325D02*
X0115144Y0298325D01*
X0115536Y0298717D02*
X0078415Y0298717D01*
X0078415Y0299109D02*
X0115928Y0299109D01*
X0116321Y0299501D02*
X0078415Y0299501D01*
X0078415Y0299894D02*
X0117235Y0299894D01*
X0118182Y0300286D02*
X0078415Y0300286D01*
X0078415Y0300678D02*
X0119129Y0300678D01*
X0120637Y0301070D02*
X0332196Y0301070D01*
X0333143Y0300678D02*
X0122635Y0300678D01*
X0123582Y0300286D02*
X0334090Y0300286D01*
X0334126Y0300271D02*
X0337307Y0300271D01*
X0340246Y0301488D01*
X0342496Y0303738D01*
X0343713Y0306677D01*
X0343713Y0309858D01*
X0342496Y0312798D01*
X0340246Y0315047D01*
X0337307Y0316265D01*
X0334126Y0316265D01*
X0331187Y0315047D01*
X0328937Y0312798D01*
X0327720Y0309858D01*
X0327720Y0306677D01*
X0328937Y0303738D01*
X0331187Y0301488D01*
X0334126Y0300271D01*
X0331249Y0301462D02*
X0121584Y0301462D01*
X0121620Y0301477D02*
X0121620Y0301477D01*
X0121997Y0301855D02*
X0330820Y0301855D01*
X0330428Y0302247D02*
X0122389Y0302247D01*
X0122781Y0302639D02*
X0330036Y0302639D01*
X0329644Y0303031D02*
X0123051Y0303031D01*
X0122964Y0302821D02*
X0122964Y0302821D01*
X0123213Y0303423D02*
X0329252Y0303423D01*
X0328905Y0303816D02*
X0123375Y0303816D01*
X0123538Y0304208D02*
X0328742Y0304208D01*
X0328580Y0304600D02*
X0123691Y0304600D01*
X0123691Y0304992D02*
X0328418Y0304992D01*
X0328255Y0305385D02*
X0123691Y0305385D01*
X0123691Y0305777D02*
X0328093Y0305777D01*
X0327930Y0306169D02*
X0123691Y0306169D01*
X0123691Y0306561D02*
X0327768Y0306561D01*
X0327720Y0306953D02*
X0123691Y0306953D01*
X0123691Y0307346D02*
X0327720Y0307346D01*
X0327720Y0307738D02*
X0123691Y0307738D01*
X0123691Y0308130D02*
X0327720Y0308130D01*
X0327720Y0308522D02*
X0123691Y0308522D01*
X0123691Y0308914D02*
X0327720Y0308914D01*
X0327720Y0309307D02*
X0163081Y0309307D01*
X0164028Y0309699D02*
X0327720Y0309699D01*
X0327816Y0310091D02*
X0164485Y0310091D01*
X0164878Y0310483D02*
X0327979Y0310483D01*
X0328141Y0310876D02*
X0165270Y0310876D01*
X0165483Y0311089D02*
X0165483Y0311089D01*
X0165557Y0311268D02*
X0328303Y0311268D01*
X0328466Y0311660D02*
X0165720Y0311660D01*
X0165882Y0312052D02*
X0328628Y0312052D01*
X0328791Y0312444D02*
X0166045Y0312444D01*
X0166207Y0312837D02*
X0328976Y0312837D01*
X0329368Y0313229D02*
X0166211Y0313229D01*
X0166211Y0313621D02*
X0329761Y0313621D01*
X0330153Y0314013D02*
X0166211Y0314013D01*
X0166211Y0314405D02*
X0330545Y0314405D01*
X0330937Y0314798D02*
X0166211Y0314798D01*
X0166211Y0315190D02*
X0331531Y0315190D01*
X0332478Y0315582D02*
X0166211Y0315582D01*
X0166211Y0315974D02*
X0333425Y0315974D01*
X0338008Y0315974D02*
X0377915Y0315974D01*
X0377915Y0315582D02*
X0338955Y0315582D01*
X0339902Y0315190D02*
X0377915Y0315190D01*
X0377915Y0314798D02*
X0340496Y0314798D01*
X0340888Y0314405D02*
X0377915Y0314405D01*
X0377915Y0314013D02*
X0341280Y0314013D01*
X0341673Y0313621D02*
X0377915Y0313621D01*
X0377915Y0313229D02*
X0342065Y0313229D01*
X0342457Y0312837D02*
X0377915Y0312837D01*
X0377915Y0312444D02*
X0342642Y0312444D01*
X0342805Y0312052D02*
X0377915Y0312052D01*
X0377915Y0311660D02*
X0342967Y0311660D01*
X0343130Y0311268D02*
X0377915Y0311268D01*
X0377915Y0310876D02*
X0343292Y0310876D01*
X0343455Y0310483D02*
X0377915Y0310483D01*
X0377915Y0310091D02*
X0343617Y0310091D01*
X0343713Y0309699D02*
X0377915Y0309699D01*
X0377915Y0309307D02*
X0343713Y0309307D01*
X0343713Y0308914D02*
X0377915Y0308914D01*
X0377915Y0308522D02*
X0343713Y0308522D01*
X0343713Y0308130D02*
X0377915Y0308130D01*
X0377915Y0307738D02*
X0343713Y0307738D01*
X0343713Y0307346D02*
X0377915Y0307346D01*
X0377915Y0306953D02*
X0343713Y0306953D01*
X0343665Y0306561D02*
X0377915Y0306561D01*
X0377915Y0306169D02*
X0343503Y0306169D01*
X0343340Y0305777D02*
X0377915Y0305777D01*
X0377915Y0305385D02*
X0343178Y0305385D01*
X0343016Y0304992D02*
X0377915Y0304992D01*
X0377915Y0304600D02*
X0342853Y0304600D01*
X0342691Y0304208D02*
X0377915Y0304208D01*
X0377915Y0303816D02*
X0342528Y0303816D01*
X0342182Y0303423D02*
X0377915Y0303423D01*
X0377915Y0303031D02*
X0341789Y0303031D01*
X0341397Y0302639D02*
X0377915Y0302639D01*
X0377915Y0302247D02*
X0341005Y0302247D01*
X0340613Y0301855D02*
X0377915Y0301855D01*
X0377915Y0301462D02*
X0340184Y0301462D01*
X0339237Y0301070D02*
X0377915Y0301070D01*
X0377915Y0300678D02*
X0338290Y0300678D01*
X0337343Y0300286D02*
X0377915Y0300286D01*
X0377915Y0299894D02*
X0124529Y0299894D01*
X0125443Y0299501D02*
X0377915Y0299501D01*
X0377915Y0299109D02*
X0125835Y0299109D01*
X0126228Y0298717D02*
X0377915Y0298717D01*
X0377915Y0298325D02*
X0126620Y0298325D01*
X0127012Y0297933D02*
X0377915Y0297933D01*
X0377915Y0297540D02*
X0127404Y0297540D01*
X0127725Y0297148D02*
X0377915Y0297148D01*
X0377915Y0296756D02*
X0127887Y0296756D01*
X0128050Y0296364D02*
X0377915Y0296364D01*
X0377915Y0295971D02*
X0128212Y0295971D01*
X0128375Y0295579D02*
X0377915Y0295579D01*
X0377915Y0295187D02*
X0128537Y0295187D01*
X0128699Y0294795D02*
X0377915Y0294795D01*
X0377915Y0294403D02*
X0332606Y0294403D01*
X0332351Y0294508D02*
X0331082Y0294508D01*
X0329909Y0294023D01*
X0329012Y0293125D01*
X0328526Y0291952D01*
X0328526Y0290683D01*
X0329012Y0289510D01*
X0329909Y0288613D01*
X0331082Y0288127D01*
X0332351Y0288127D01*
X0333524Y0288613D01*
X0334421Y0289510D01*
X0334907Y0290683D01*
X0334907Y0291952D01*
X0334421Y0293125D01*
X0333524Y0294023D01*
X0332351Y0294508D01*
X0333536Y0294010D02*
X0377915Y0294010D01*
X0377915Y0293618D02*
X0333928Y0293618D01*
X0334320Y0293226D02*
X0377915Y0293226D01*
X0377915Y0292834D02*
X0334542Y0292834D01*
X0334704Y0292442D02*
X0377915Y0292442D01*
X0377915Y0292049D02*
X0334867Y0292049D01*
X0334907Y0291657D02*
X0377915Y0291657D01*
X0377915Y0291265D02*
X0334907Y0291265D01*
X0334907Y0290873D02*
X0377915Y0290873D01*
X0377915Y0290480D02*
X0334823Y0290480D01*
X0334661Y0290088D02*
X0377915Y0290088D01*
X0377915Y0289696D02*
X0334498Y0289696D01*
X0334215Y0289304D02*
X0377915Y0289304D01*
X0377915Y0288912D02*
X0333823Y0288912D01*
X0333298Y0288519D02*
X0377915Y0288519D01*
X0377915Y0288127D02*
X0332351Y0288127D01*
X0331082Y0288127D02*
X0127607Y0288127D01*
X0127809Y0288519D02*
X0330135Y0288519D01*
X0329610Y0288912D02*
X0127971Y0288912D01*
X0128134Y0289304D02*
X0329218Y0289304D01*
X0328935Y0289696D02*
X0128296Y0289696D01*
X0128459Y0290088D02*
X0328772Y0290088D01*
X0328610Y0290480D02*
X0128621Y0290480D01*
X0128784Y0290873D02*
X0328526Y0290873D01*
X0328526Y0291265D02*
X0128894Y0291265D01*
X0128894Y0291657D02*
X0328526Y0291657D01*
X0328566Y0292049D02*
X0128894Y0292049D01*
X0128894Y0292442D02*
X0328729Y0292442D01*
X0328891Y0292834D02*
X0128894Y0292834D01*
X0128894Y0293226D02*
X0329113Y0293226D01*
X0329505Y0293618D02*
X0128894Y0293618D01*
X0128894Y0294010D02*
X0329897Y0294010D01*
X0330827Y0294403D02*
X0128862Y0294403D01*
X0127215Y0287735D02*
X0377915Y0287735D01*
X0377915Y0287343D02*
X0126823Y0287343D01*
X0126431Y0286951D02*
X0377915Y0286951D01*
X0377915Y0286558D02*
X0126038Y0286558D01*
X0125646Y0286166D02*
X0377915Y0286166D01*
X0377915Y0285774D02*
X0125019Y0285774D01*
X0124072Y0285382D02*
X0377915Y0285382D01*
X0377915Y0284990D02*
X0123125Y0284990D01*
X0128931Y0277537D02*
X0377915Y0277537D01*
X0377915Y0277145D02*
X0129323Y0277145D01*
X0129715Y0276753D02*
X0377915Y0276753D01*
X0377915Y0276361D02*
X0129898Y0276361D01*
X0130060Y0275969D02*
X0377915Y0275969D01*
X0377915Y0275576D02*
X0130222Y0275576D01*
X0130260Y0275184D02*
X0377915Y0275184D01*
X0377915Y0274792D02*
X0130260Y0274792D01*
X0130260Y0274400D02*
X0377915Y0274400D01*
X0377915Y0274008D02*
X0130200Y0274008D01*
X0130038Y0273615D02*
X0377915Y0273615D01*
X0377915Y0273223D02*
X0129875Y0273223D01*
X0129661Y0272831D02*
X0377915Y0272831D01*
X0377915Y0272439D02*
X0129269Y0272439D01*
X0128877Y0272047D02*
X0377915Y0272047D01*
X0377915Y0271654D02*
X0128031Y0271654D01*
X0125780Y0271654D02*
X0119107Y0271654D01*
X0119584Y0272047D02*
X0124934Y0272047D01*
X0124542Y0272439D02*
X0119951Y0272439D01*
X0120213Y0272831D02*
X0124150Y0272831D01*
X0123936Y0273223D02*
X0120416Y0273223D01*
X0120579Y0273615D02*
X0123773Y0273615D01*
X0123611Y0274008D02*
X0120674Y0274008D01*
X0120752Y0274400D02*
X0123551Y0274400D01*
X0118390Y0271262D02*
X0377915Y0271262D01*
X0377915Y0266163D02*
X0335582Y0266163D01*
X0335758Y0265771D02*
X0377915Y0265771D01*
X0377915Y0265379D02*
X0335758Y0265379D01*
X0335758Y0264987D02*
X0377915Y0264987D01*
X0377915Y0264594D02*
X0335600Y0264594D01*
X0335208Y0264202D02*
X0377915Y0264202D01*
X0377915Y0263810D02*
X0335573Y0263810D01*
X0335758Y0263418D02*
X0377915Y0263418D01*
X0377915Y0263026D02*
X0335758Y0263026D01*
X0335758Y0262633D02*
X0377915Y0262633D01*
X0377915Y0262241D02*
X0335609Y0262241D01*
X0335217Y0261849D02*
X0377915Y0261849D01*
X0377915Y0237140D02*
X0344527Y0237140D01*
X0344813Y0236747D02*
X0377915Y0236747D01*
X0353682Y0233218D02*
X0336152Y0233218D01*
X0336152Y0233610D02*
X0353290Y0233610D01*
X0352898Y0234002D02*
X0335854Y0234002D01*
X0335648Y0234394D02*
X0352856Y0234394D01*
X0333991Y0231649D02*
X0112143Y0231649D01*
X0112062Y0232041D02*
X0333599Y0232041D01*
X0333207Y0232433D02*
X0111899Y0232433D01*
X0111678Y0232825D02*
X0333171Y0232825D01*
X0333171Y0233218D02*
X0111378Y0233218D01*
X0110951Y0233610D02*
X0333171Y0233610D01*
X0333469Y0234002D02*
X0110252Y0234002D01*
X0109268Y0234002D02*
X0108874Y0234002D01*
X0108874Y0233610D02*
X0109268Y0233610D01*
X0109268Y0233218D02*
X0108874Y0233218D01*
X0108874Y0232825D02*
X0109268Y0232825D01*
X0109268Y0232433D02*
X0108874Y0232433D01*
X0108874Y0232041D02*
X0109268Y0232041D01*
X0109268Y0231649D02*
X0108874Y0231649D01*
X0108874Y0231256D02*
X0102619Y0231256D01*
X0102841Y0230864D02*
X0105955Y0230864D01*
X0106022Y0230472D02*
X0105336Y0230472D01*
X0105999Y0231649D02*
X0102317Y0231649D01*
X0101887Y0232041D02*
X0103083Y0232041D01*
X0102678Y0232433D02*
X0101182Y0232433D01*
X0100213Y0232433D02*
X0099819Y0232433D01*
X0099819Y0232659D02*
X0099709Y0232659D01*
X0099107Y0232540D01*
X0098540Y0232305D01*
X0098029Y0231964D01*
X0098010Y0231944D01*
X0098104Y0232173D01*
X0098104Y0233213D01*
X0097706Y0234175D01*
X0096970Y0234911D01*
X0096009Y0235309D01*
X0094968Y0235309D01*
X0094006Y0234911D01*
X0093270Y0234175D01*
X0092872Y0233213D01*
X0092872Y0232173D01*
X0093270Y0231211D01*
X0094006Y0230475D01*
X0094968Y0230077D01*
X0096009Y0230077D01*
X0096970Y0230475D01*
X0097070Y0230575D01*
X0097019Y0230452D01*
X0096900Y0229850D01*
X0096900Y0229740D01*
X0099819Y0229740D01*
X0099819Y0232659D01*
X0099819Y0232041D02*
X0100213Y0232041D01*
X0100213Y0231649D02*
X0099819Y0231649D01*
X0099819Y0231256D02*
X0100213Y0231256D01*
X0100213Y0230864D02*
X0099819Y0230864D01*
X0099819Y0230472D02*
X0100213Y0230472D01*
X0100213Y0230080D02*
X0099819Y0230080D01*
X0099819Y0229688D02*
X0078415Y0229688D01*
X0078415Y0230080D02*
X0094960Y0230080D01*
X0094014Y0230472D02*
X0078415Y0230472D01*
X0078415Y0230864D02*
X0093617Y0230864D01*
X0093251Y0231256D02*
X0078415Y0231256D01*
X0078415Y0231649D02*
X0093089Y0231649D01*
X0092927Y0232041D02*
X0078415Y0232041D01*
X0078415Y0232433D02*
X0092872Y0232433D01*
X0092872Y0232825D02*
X0078415Y0232825D01*
X0078415Y0233218D02*
X0092874Y0233218D01*
X0093036Y0233610D02*
X0078415Y0233610D01*
X0078415Y0234002D02*
X0093199Y0234002D01*
X0093490Y0234394D02*
X0078415Y0234394D01*
X0078415Y0234786D02*
X0093882Y0234786D01*
X0094653Y0235179D02*
X0078415Y0235179D01*
X0078415Y0235571D02*
X0102251Y0235571D01*
X0102089Y0235179D02*
X0096324Y0235179D01*
X0097095Y0234786D02*
X0101927Y0234786D01*
X0101927Y0234394D02*
X0097487Y0234394D01*
X0097778Y0234002D02*
X0101927Y0234002D01*
X0101984Y0233610D02*
X0097940Y0233610D01*
X0098103Y0233218D02*
X0102147Y0233218D01*
X0102309Y0232825D02*
X0098104Y0232825D01*
X0098104Y0232433D02*
X0098849Y0232433D01*
X0098145Y0232041D02*
X0098050Y0232041D01*
X0097028Y0230472D02*
X0096963Y0230472D01*
X0096945Y0230080D02*
X0096016Y0230080D01*
X0096009Y0229010D02*
X0094968Y0229010D01*
X0094006Y0228612D01*
X0093270Y0227876D01*
X0092872Y0226914D01*
X0092872Y0225873D01*
X0093270Y0224912D01*
X0094006Y0224176D01*
X0094968Y0223778D01*
X0096009Y0223778D01*
X0096970Y0224176D01*
X0097706Y0224912D01*
X0098104Y0225873D01*
X0098104Y0226914D01*
X0098010Y0227142D01*
X0098029Y0227123D01*
X0098540Y0226782D01*
X0099107Y0226547D01*
X0099709Y0226427D01*
X0099819Y0226427D01*
X0099819Y0229346D01*
X0096900Y0229346D01*
X0096900Y0229236D01*
X0097019Y0228634D01*
X0097070Y0228511D01*
X0096970Y0228612D01*
X0096009Y0229010D01*
X0096266Y0228903D02*
X0096966Y0228903D01*
X0096900Y0229295D02*
X0078415Y0229295D01*
X0078415Y0228903D02*
X0094710Y0228903D01*
X0093906Y0228511D02*
X0078415Y0228511D01*
X0078415Y0228119D02*
X0093513Y0228119D01*
X0093209Y0227727D02*
X0078415Y0227727D01*
X0078415Y0227334D02*
X0093046Y0227334D01*
X0092884Y0226942D02*
X0078415Y0226942D01*
X0078415Y0226550D02*
X0092872Y0226550D01*
X0092872Y0226158D02*
X0078415Y0226158D01*
X0078415Y0225765D02*
X0092917Y0225765D01*
X0093079Y0225373D02*
X0078415Y0225373D01*
X0078415Y0224981D02*
X0093242Y0224981D01*
X0093593Y0224589D02*
X0078415Y0224589D01*
X0078415Y0224197D02*
X0093985Y0224197D01*
X0094903Y0223804D02*
X0078415Y0223804D01*
X0078415Y0223412D02*
X0097400Y0223412D01*
X0097400Y0223020D02*
X0096568Y0223020D01*
X0097306Y0222628D02*
X0097439Y0222628D01*
X0097416Y0223804D02*
X0096073Y0223804D01*
X0095685Y0223020D02*
X0095291Y0223020D01*
X0095291Y0222628D02*
X0095685Y0222628D01*
X0095685Y0222236D02*
X0095291Y0222236D01*
X0095291Y0221843D02*
X0095685Y0221843D01*
X0095685Y0221451D02*
X0095291Y0221451D01*
X0095291Y0221059D02*
X0095685Y0221059D01*
X0095685Y0220667D02*
X0095291Y0220667D01*
X0095685Y0220275D02*
X0101748Y0220275D01*
X0101586Y0220667D02*
X0100630Y0220667D01*
X0100707Y0219490D02*
X0102316Y0219490D01*
X0101990Y0219882D02*
X0098604Y0219882D01*
X0098545Y0219490D02*
X0099324Y0219490D01*
X0098469Y0219098D02*
X0098448Y0219098D01*
X0098552Y0220667D02*
X0099402Y0220667D01*
X0098501Y0221059D02*
X0098462Y0221059D01*
X0097579Y0224197D02*
X0096991Y0224197D01*
X0097383Y0224589D02*
X0097741Y0224589D01*
X0097735Y0224981D02*
X0098053Y0224981D01*
X0097897Y0225373D02*
X0098445Y0225373D01*
X0098060Y0225765D02*
X0099267Y0225765D01*
X0099100Y0226550D02*
X0098104Y0226550D01*
X0098093Y0226942D02*
X0098300Y0226942D01*
X0098104Y0226158D02*
X0102654Y0226158D01*
X0102299Y0226550D02*
X0100932Y0226550D01*
X0100213Y0226550D02*
X0099819Y0226550D01*
X0099819Y0226942D02*
X0100213Y0226942D01*
X0100213Y0227334D02*
X0099819Y0227334D01*
X0099819Y0227727D02*
X0100213Y0227727D01*
X0100213Y0228119D02*
X0099819Y0228119D01*
X0099819Y0228511D02*
X0100213Y0228511D01*
X0100213Y0228903D02*
X0099819Y0228903D01*
X0099819Y0229295D02*
X0100213Y0229295D01*
X0101732Y0226942D02*
X0102137Y0226942D01*
X0103047Y0225765D02*
X0100765Y0225765D01*
X0101586Y0225373D02*
X0103972Y0225373D01*
X0102783Y0219098D02*
X0101563Y0219098D01*
X0105221Y0217921D02*
X0106487Y0217921D01*
X0106650Y0217529D02*
X0106084Y0217529D01*
X0106476Y0217137D02*
X0106812Y0217137D01*
X0106806Y0216745D02*
X0107146Y0216745D01*
X0106968Y0216352D02*
X0107538Y0216352D01*
X0107131Y0215960D02*
X0108414Y0215960D01*
X0107298Y0214784D02*
X0107132Y0214784D01*
X0106479Y0219098D02*
X0106304Y0219098D01*
X0097426Y0217529D02*
X0097258Y0217529D01*
X0098079Y0213215D02*
X0098252Y0213215D01*
X0092515Y0221059D02*
X0078415Y0221059D01*
X0078415Y0221451D02*
X0092677Y0221451D01*
X0092909Y0221843D02*
X0078415Y0221843D01*
X0078415Y0222236D02*
X0093222Y0222236D01*
X0093671Y0222628D02*
X0078415Y0222628D01*
X0078415Y0223020D02*
X0094408Y0223020D01*
X0103004Y0230472D02*
X0103751Y0230472D01*
X0106004Y0232041D02*
X0106080Y0232041D01*
X0107102Y0233610D02*
X0107191Y0233610D01*
X0107159Y0234002D02*
X0107890Y0234002D01*
X0107159Y0234394D02*
X0333398Y0234394D01*
X0333032Y0234786D02*
X0107159Y0234786D01*
X0106998Y0235179D02*
X0333032Y0235179D01*
X0333032Y0235571D02*
X0106835Y0235571D01*
X0106548Y0235963D02*
X0333032Y0235963D01*
X0333393Y0236355D02*
X0106156Y0236355D01*
X0105393Y0236747D02*
X0333785Y0236747D01*
X0333657Y0247337D02*
X0104560Y0247337D01*
X0104361Y0247729D02*
X0333265Y0247729D01*
X0333171Y0248122D02*
X0104116Y0248122D01*
X0103831Y0248514D02*
X0333171Y0248514D01*
X0333171Y0248906D02*
X0103439Y0248906D01*
X0102952Y0249298D02*
X0333411Y0249298D01*
X0333272Y0249690D02*
X0102290Y0249690D01*
X0101133Y0250083D02*
X0332880Y0250083D01*
X0332777Y0250475D02*
X0078415Y0250475D01*
X0078415Y0250867D02*
X0332777Y0250867D01*
X0332777Y0251259D02*
X0078415Y0251259D01*
X0078415Y0251651D02*
X0333008Y0251651D01*
X0377915Y0316366D02*
X0166211Y0316366D01*
X0166211Y0316759D02*
X0377915Y0316759D01*
X0377915Y0317151D02*
X0166211Y0317151D01*
X0166211Y0317543D02*
X0377915Y0317543D01*
X0377915Y0317935D02*
X0166211Y0317935D01*
X0166211Y0318328D02*
X0377915Y0318328D01*
X0377915Y0318720D02*
X0166211Y0318720D01*
X0166211Y0319112D02*
X0377915Y0319112D01*
X0115291Y0278322D02*
X0098520Y0278322D01*
X0094624Y0277930D02*
X0078415Y0277930D01*
X0078415Y0277537D02*
X0094173Y0277537D01*
X0093824Y0277145D02*
X0078415Y0277145D01*
X0078415Y0276753D02*
X0093562Y0276753D01*
X0093372Y0276361D02*
X0078415Y0276361D01*
X0078415Y0275969D02*
X0093210Y0275969D01*
X0093126Y0275576D02*
X0078415Y0275576D01*
X0108031Y0271654D02*
X0114704Y0271654D01*
X0114227Y0272047D02*
X0108877Y0272047D01*
X0109269Y0272439D02*
X0113860Y0272439D01*
X0113598Y0272831D02*
X0109661Y0272831D01*
X0109875Y0273223D02*
X0113395Y0273223D01*
X0113232Y0273615D02*
X0110038Y0273615D01*
X0110200Y0274008D02*
X0113137Y0274008D01*
X0113059Y0274400D02*
X0110260Y0274400D01*
X0100409Y0250083D02*
X0100016Y0250083D01*
X0100016Y0249690D02*
X0100409Y0249690D01*
X0100409Y0249298D02*
X0100016Y0249298D01*
X0100016Y0248906D02*
X0100409Y0248906D01*
X0100409Y0248514D02*
X0100016Y0248514D01*
X0100016Y0248122D02*
X0100409Y0248122D01*
X0100409Y0247729D02*
X0100016Y0247729D01*
X0100016Y0247337D02*
X0100409Y0247337D01*
X0100409Y0246945D02*
X0100016Y0246945D01*
X0100016Y0246553D02*
X0100409Y0246553D01*
X0100409Y0246161D02*
X0100016Y0246161D01*
X0100016Y0245768D02*
X0100409Y0245768D01*
X0099292Y0250083D02*
X0078415Y0250083D01*
X0078415Y0249690D02*
X0098135Y0249690D01*
X0097473Y0249298D02*
X0078415Y0249298D01*
X0078415Y0248906D02*
X0096986Y0248906D01*
X0096595Y0248514D02*
X0078415Y0248514D01*
X0078415Y0248122D02*
X0096310Y0248122D01*
X0096065Y0247729D02*
X0078415Y0247729D01*
X0078415Y0247337D02*
X0095865Y0247337D01*
X0095721Y0246945D02*
X0078415Y0246945D01*
X0078415Y0246553D02*
X0095594Y0246553D01*
X0095529Y0246161D02*
X0078415Y0246161D01*
X0078415Y0245768D02*
X0095472Y0245768D01*
X0102931Y0236355D02*
X0078415Y0236355D01*
X0078415Y0235963D02*
X0102539Y0235963D01*
X0103694Y0236747D02*
X0078415Y0236747D01*
X0096878Y0135949D02*
X0097016Y0135949D01*
X0094626Y0134380D02*
X0078415Y0134380D01*
X0078415Y0133988D02*
X0093871Y0133988D01*
X0093479Y0133596D02*
X0078415Y0133596D01*
X0078415Y0133203D02*
X0093194Y0133203D01*
X0093032Y0132811D02*
X0078415Y0132811D01*
X0078415Y0132419D02*
X0092872Y0132419D01*
X0092872Y0132027D02*
X0078415Y0132027D01*
X0078415Y0131635D02*
X0092872Y0131635D01*
X0092931Y0131242D02*
X0078415Y0131242D01*
X0078415Y0130850D02*
X0093094Y0130850D01*
X0093256Y0130458D02*
X0078415Y0130458D01*
X0078415Y0130066D02*
X0093628Y0130066D01*
X0094040Y0129674D02*
X0078415Y0129674D01*
X0078415Y0122221D02*
X0098003Y0122221D01*
X0097381Y0121829D02*
X0078415Y0121829D01*
X0078415Y0121437D02*
X0096919Y0121437D01*
X0096546Y0121045D02*
X0078415Y0121045D01*
X0078415Y0120653D02*
X0096261Y0120653D01*
X0096030Y0120260D02*
X0078415Y0120260D01*
X0078415Y0119868D02*
X0095830Y0119868D01*
X0095699Y0119476D02*
X0078415Y0119476D01*
X0078415Y0119084D02*
X0095581Y0119084D01*
X0095519Y0118692D02*
X0078415Y0118692D01*
X0078415Y0118299D02*
X0095472Y0118299D01*
X0101437Y0122614D02*
X0377915Y0122614D01*
X0377915Y0122221D02*
X0349603Y0122221D01*
X0349452Y0122372D02*
X0348217Y0122372D01*
X0347344Y0121499D01*
X0347344Y0120264D01*
X0348217Y0119391D01*
X0349452Y0119391D01*
X0350325Y0120264D01*
X0350325Y0121499D01*
X0349452Y0122372D01*
X0349995Y0121829D02*
X0377915Y0121829D01*
X0377915Y0121437D02*
X0350325Y0121437D01*
X0350325Y0121045D02*
X0377915Y0121045D01*
X0377915Y0120653D02*
X0350325Y0120653D01*
X0350321Y0120260D02*
X0377915Y0120260D01*
X0377915Y0119868D02*
X0349929Y0119868D01*
X0349537Y0119476D02*
X0377915Y0119476D01*
X0377915Y0119084D02*
X0104845Y0119084D01*
X0104907Y0118692D02*
X0377915Y0118692D01*
X0377915Y0116731D02*
X0335015Y0116731D01*
X0335407Y0116338D02*
X0377915Y0116338D01*
X0377915Y0115946D02*
X0335758Y0115946D01*
X0335758Y0115554D02*
X0377915Y0115554D01*
X0377915Y0115162D02*
X0335758Y0115162D01*
X0335758Y0114769D02*
X0377915Y0114769D01*
X0377915Y0114377D02*
X0335383Y0114377D01*
X0335398Y0113985D02*
X0377915Y0113985D01*
X0377915Y0113593D02*
X0335758Y0113593D01*
X0335758Y0113201D02*
X0377915Y0113201D01*
X0377915Y0112808D02*
X0335758Y0112808D01*
X0335758Y0112416D02*
X0377915Y0112416D01*
X0377915Y0112024D02*
X0335392Y0112024D01*
X0335000Y0111632D02*
X0377915Y0111632D01*
X0377915Y0100258D02*
X0091713Y0100258D01*
X0091925Y0099865D02*
X0377915Y0099865D01*
X0377915Y0099473D02*
X0091925Y0099473D01*
X0091925Y0099081D02*
X0377915Y0099081D01*
X0377915Y0098689D02*
X0091925Y0098689D01*
X0091889Y0098297D02*
X0377915Y0098297D01*
X0377915Y0097904D02*
X0091497Y0097904D01*
X0091104Y0097512D02*
X0377915Y0097512D01*
X0348133Y0119476D02*
X0104726Y0119476D01*
X0104595Y0119868D02*
X0347740Y0119868D01*
X0347348Y0120260D02*
X0104395Y0120260D01*
X0104165Y0120653D02*
X0347344Y0120653D01*
X0347344Y0121045D02*
X0103880Y0121045D01*
X0103507Y0121437D02*
X0347344Y0121437D01*
X0347674Y0121829D02*
X0103044Y0121829D01*
X0102423Y0122221D02*
X0348066Y0122221D01*
X0360106Y0135557D02*
X0377915Y0135557D01*
X0377915Y0135949D02*
X0360498Y0135949D01*
X0360890Y0136341D02*
X0377915Y0136341D01*
X0377915Y0136733D02*
X0360955Y0136733D01*
X0360955Y0137126D02*
X0377915Y0137126D01*
X0377915Y0137518D02*
X0360955Y0137518D01*
X0360686Y0137910D02*
X0377915Y0137910D01*
X0377915Y0138302D02*
X0360294Y0138302D01*
X0341357Y0079470D02*
X0269068Y0079470D01*
X0269460Y0079078D02*
X0340992Y0079078D01*
X0340830Y0078686D02*
X0269651Y0078686D01*
X0269814Y0078294D02*
X0340667Y0078294D01*
X0340526Y0077902D02*
X0269976Y0077902D01*
X0270139Y0077509D02*
X0340526Y0077509D01*
X0340526Y0077117D02*
X0270301Y0077117D01*
X0270323Y0076725D02*
X0340526Y0076725D01*
X0340671Y0076333D02*
X0270323Y0076333D01*
X0270323Y0075940D02*
X0340834Y0075940D01*
X0340996Y0075548D02*
X0270323Y0075548D01*
X0270323Y0075156D02*
X0341366Y0075156D01*
X0341758Y0074764D02*
X0270252Y0074764D01*
X0270089Y0074372D02*
X0342492Y0074372D01*
X0260885Y0079470D02*
X0229698Y0079470D01*
X0229305Y0079863D02*
X0234584Y0079863D01*
X0235409Y0079863D02*
X0235803Y0079863D01*
X0235803Y0080255D02*
X0235409Y0080255D01*
X0235409Y0080647D02*
X0235803Y0080647D01*
X0235803Y0081039D02*
X0235409Y0081039D01*
X0235409Y0081431D02*
X0235803Y0081431D01*
X0235803Y0081824D02*
X0235409Y0081824D01*
X0235409Y0082216D02*
X0235803Y0082216D01*
X0235803Y0082608D02*
X0235409Y0082608D01*
X0235409Y0083000D02*
X0235803Y0083000D01*
X0235803Y0083392D02*
X0235409Y0083392D01*
X0235409Y0083785D02*
X0235803Y0083785D01*
X0235803Y0084177D02*
X0235409Y0084177D01*
X0235409Y0084569D02*
X0235803Y0084569D01*
X0235803Y0084961D02*
X0235409Y0084961D01*
X0235409Y0085354D02*
X0235803Y0085354D01*
X0235803Y0085746D02*
X0235409Y0085746D01*
X0235409Y0086922D02*
X0235803Y0086922D01*
X0235803Y0087315D02*
X0235409Y0087315D01*
X0235409Y0087707D02*
X0235803Y0087707D01*
X0235803Y0088099D02*
X0235409Y0088099D01*
X0235409Y0088491D02*
X0235803Y0088491D01*
X0235803Y0088883D02*
X0235409Y0088883D01*
X0235409Y0089276D02*
X0235803Y0089276D01*
X0235803Y0089668D02*
X0235409Y0089668D01*
X0235409Y0090060D02*
X0235803Y0090060D01*
X0235803Y0090452D02*
X0235409Y0090452D01*
X0235409Y0090845D02*
X0235803Y0090845D01*
X0235803Y0091237D02*
X0235409Y0091237D01*
X0235409Y0091629D02*
X0235803Y0091629D01*
X0235803Y0092021D02*
X0235409Y0092021D01*
X0237209Y0092021D02*
X0253373Y0092021D01*
X0252319Y0091629D02*
X0238264Y0091629D01*
X0238984Y0091237D02*
X0251599Y0091237D01*
X0251059Y0090845D02*
X0239524Y0090845D01*
X0239953Y0090452D02*
X0250630Y0090452D01*
X0250237Y0090060D02*
X0240345Y0090060D01*
X0240632Y0089668D02*
X0249951Y0089668D01*
X0249666Y0089276D02*
X0240917Y0089276D01*
X0241120Y0088883D02*
X0249463Y0088883D01*
X0249263Y0088491D02*
X0241320Y0088491D01*
X0241466Y0088099D02*
X0249116Y0088099D01*
X0248989Y0087707D02*
X0241594Y0087707D01*
X0241697Y0087315D02*
X0248885Y0087315D01*
X0248823Y0086922D02*
X0241760Y0086922D01*
X0241822Y0086530D02*
X0248761Y0086530D01*
X0248755Y0085746D02*
X0241828Y0085746D01*
X0241803Y0085354D02*
X0248779Y0085354D01*
X0248841Y0084961D02*
X0241741Y0084961D01*
X0241679Y0084569D02*
X0248904Y0084569D01*
X0249027Y0084177D02*
X0241556Y0084177D01*
X0241429Y0083785D02*
X0249154Y0083785D01*
X0249322Y0083392D02*
X0241261Y0083392D01*
X0241061Y0083000D02*
X0249522Y0083000D01*
X0249750Y0082608D02*
X0240833Y0082608D01*
X0240548Y0082216D02*
X0250035Y0082216D01*
X0250354Y0081824D02*
X0240229Y0081824D01*
X0239837Y0081431D02*
X0250746Y0081431D01*
X0251219Y0081039D02*
X0239364Y0081039D01*
X0238805Y0080647D02*
X0251777Y0080647D01*
X0252547Y0080255D02*
X0238035Y0080255D01*
X0236629Y0079863D02*
X0253954Y0079863D01*
X0233177Y0080255D02*
X0228913Y0080255D01*
X0228359Y0080647D02*
X0232407Y0080647D01*
X0231849Y0081039D02*
X0227413Y0081039D01*
X0230665Y0082216D02*
X0220548Y0082216D01*
X0220229Y0081824D02*
X0230984Y0081824D01*
X0231376Y0081431D02*
X0219837Y0081431D01*
X0215803Y0081431D02*
X0215409Y0081431D01*
X0215409Y0081039D02*
X0215803Y0081039D01*
X0215803Y0080647D02*
X0215409Y0080647D01*
X0215409Y0080255D02*
X0215803Y0080255D01*
X0215803Y0079863D02*
X0215409Y0079863D01*
X0214584Y0079863D02*
X0078415Y0079863D01*
X0078415Y0080255D02*
X0213177Y0080255D01*
X0212407Y0080647D02*
X0078415Y0080647D01*
X0078415Y0081039D02*
X0211849Y0081039D01*
X0211376Y0081431D02*
X0078415Y0081431D01*
X0078415Y0081824D02*
X0210984Y0081824D01*
X0210665Y0082216D02*
X0078415Y0082216D01*
X0078415Y0082608D02*
X0210380Y0082608D01*
X0210152Y0083000D02*
X0078415Y0083000D01*
X0078415Y0083392D02*
X0209952Y0083392D01*
X0209784Y0083785D02*
X0078415Y0083785D01*
X0078415Y0084177D02*
X0209657Y0084177D01*
X0209534Y0084569D02*
X0118200Y0084569D01*
X0118989Y0084961D02*
X0125970Y0084961D01*
X0125024Y0085354D02*
X0119505Y0085354D01*
X0119897Y0085746D02*
X0124621Y0085746D01*
X0124229Y0086138D02*
X0120160Y0086138D01*
X0120384Y0086530D02*
X0123968Y0086530D01*
X0123806Y0086922D02*
X0120546Y0086922D01*
X0120658Y0087315D02*
X0123644Y0087315D01*
X0127841Y0084961D02*
X0209471Y0084961D01*
X0209409Y0085354D02*
X0128787Y0085354D01*
X0129190Y0085746D02*
X0209384Y0085746D01*
X0215409Y0085746D02*
X0215803Y0085746D01*
X0215803Y0085354D02*
X0215409Y0085354D01*
X0215409Y0084961D02*
X0215803Y0084961D01*
X0215803Y0084569D02*
X0215409Y0084569D01*
X0215409Y0084177D02*
X0215803Y0084177D01*
X0215803Y0083785D02*
X0215409Y0083785D01*
X0215409Y0083392D02*
X0215803Y0083392D01*
X0215803Y0083000D02*
X0215409Y0083000D01*
X0215409Y0082608D02*
X0215803Y0082608D01*
X0215803Y0082216D02*
X0215409Y0082216D01*
X0215409Y0081824D02*
X0215803Y0081824D01*
X0118794Y0077902D02*
X0078415Y0077902D01*
X0078415Y0077509D02*
X0117847Y0077509D01*
X0116900Y0077117D02*
X0078415Y0077117D01*
X0078415Y0076725D02*
X0116182Y0076725D01*
X0115790Y0076333D02*
X0078415Y0076333D01*
X0078415Y0075940D02*
X0115397Y0075940D01*
X0115005Y0075548D02*
X0078415Y0075548D01*
X0078415Y0075156D02*
X0114613Y0075156D01*
X0114221Y0074764D02*
X0078415Y0074764D01*
X0078415Y0074372D02*
X0113982Y0074372D01*
X0113819Y0073979D02*
X0078415Y0073979D01*
X0078415Y0073587D02*
X0113657Y0073587D01*
X0113494Y0073195D02*
X0078415Y0073195D01*
X0078415Y0072803D02*
X0113332Y0072803D01*
X0113169Y0072411D02*
X0078415Y0072411D01*
X0078415Y0072018D02*
X0113007Y0072018D01*
X0112870Y0071626D02*
X0078415Y0071626D01*
X0078415Y0071234D02*
X0112870Y0071234D01*
X0112870Y0070842D02*
X0078415Y0070842D01*
X0078415Y0070449D02*
X0112870Y0070449D01*
X0112870Y0070057D02*
X0078415Y0070057D01*
X0078415Y0069665D02*
X0112870Y0069665D01*
X0112870Y0069273D02*
X0078415Y0069273D01*
X0078415Y0068881D02*
X0112870Y0068881D01*
X0112875Y0068488D02*
X0078415Y0068488D01*
X0078415Y0068096D02*
X0113038Y0068096D01*
X0113200Y0067704D02*
X0078415Y0067704D01*
X0078415Y0067312D02*
X0113363Y0067312D01*
X0113525Y0066920D02*
X0078415Y0066920D01*
X0078415Y0066527D02*
X0113688Y0066527D01*
X0113850Y0066135D02*
X0078415Y0066135D01*
X0078415Y0065743D02*
X0114012Y0065743D01*
X0114295Y0065351D02*
X0078415Y0065351D01*
X0078415Y0064959D02*
X0114687Y0064959D01*
X0115080Y0064566D02*
X0078415Y0064566D01*
X0078415Y0064174D02*
X0115472Y0064174D01*
X0115864Y0063782D02*
X0078415Y0063782D01*
X0078415Y0063390D02*
X0116256Y0063390D01*
X0117080Y0062997D02*
X0078415Y0062997D01*
X0078415Y0062605D02*
X0118027Y0062605D01*
X0097102Y0084569D02*
X0096709Y0084569D01*
X0096709Y0084961D02*
X0097102Y0084961D01*
X0095611Y0084569D02*
X0078415Y0084569D01*
X0078415Y0084961D02*
X0094822Y0084961D01*
X0094306Y0085354D02*
X0078415Y0085354D01*
X0078415Y0085746D02*
X0093914Y0085746D01*
X0093651Y0086138D02*
X0078415Y0086138D01*
X0078415Y0086530D02*
X0093427Y0086530D01*
X0093265Y0086922D02*
X0078415Y0086922D01*
X0078415Y0087315D02*
X0093153Y0087315D01*
X0099305Y0091237D02*
X0105460Y0091237D01*
X0104802Y0090845D02*
X0099717Y0090845D01*
X0100039Y0090452D02*
X0104409Y0090452D01*
X0104043Y0090060D02*
X0100301Y0090060D01*
X0100471Y0089668D02*
X0103881Y0089668D01*
X0103718Y0089276D02*
X0100622Y0089276D01*
X0100700Y0088883D02*
X0103556Y0088883D01*
X0103551Y0088491D02*
X0100760Y0088491D01*
M02*
