G75*
%MOIN*%
%OFA0B0*%
%FSLAX25Y25*%
%IPPOS*%
%LPD*%
%AMOC8*
5,1,8,0,0,1.08239X$1,22.5*
%
%ADD10R,0.96457X0.28346*%
%ADD11C,0.00500*%
%ADD12C,0.00700*%
%ADD13C,0.00800*%
%ADD14C,0.01200*%
%ADD15C,0.01000*%
D10*
X0251787Y0300409D03*
D11*
X0159334Y0277019D02*
X0159334Y0272619D01*
X0150934Y0272619D01*
X0150934Y0277019D01*
X0159334Y0277019D01*
X0147523Y0277019D02*
X0147523Y0272619D01*
X0139123Y0272619D01*
X0139123Y0277019D01*
X0147523Y0277019D01*
X0111827Y0268913D02*
X0111827Y0094110D01*
X0077575Y0094110D01*
X0077575Y0268913D01*
X0111827Y0268913D01*
X0347996Y0301783D02*
X0347996Y0314783D01*
X0366996Y0314783D01*
X0366996Y0301783D01*
X0347996Y0301783D01*
X0311302Y0092767D02*
X0302902Y0092767D01*
X0302902Y0088367D01*
X0311302Y0088367D01*
X0311302Y0092767D01*
X0348390Y0066752D02*
X0367390Y0066752D01*
X0367390Y0053752D01*
X0348390Y0053752D01*
X0348390Y0066752D01*
X0160121Y0086005D02*
X0151721Y0086005D01*
X0151721Y0090405D01*
X0160121Y0090405D01*
X0160121Y0086005D01*
X0145554Y0086005D02*
X0137154Y0086005D01*
X0137154Y0090405D01*
X0145554Y0090405D01*
X0145554Y0086005D01*
D12*
X0142539Y0091555D02*
X0142539Y0094858D01*
X0140887Y0093206D01*
X0143089Y0093206D01*
X0139406Y0093206D02*
X0138856Y0092656D01*
X0137204Y0092656D01*
X0138305Y0092656D02*
X0139406Y0091555D01*
X0139406Y0093206D02*
X0139406Y0094307D01*
X0138856Y0094858D01*
X0137204Y0094858D01*
X0137204Y0091555D01*
X0128198Y0095374D02*
X0125996Y0095374D01*
X0128198Y0097575D01*
X0128198Y0098126D01*
X0127647Y0098676D01*
X0126546Y0098676D01*
X0125996Y0098126D01*
X0124514Y0098126D02*
X0123964Y0098676D01*
X0122313Y0098676D01*
X0122313Y0095374D01*
X0123964Y0095374D01*
X0124514Y0095924D01*
X0124514Y0098126D01*
X0151771Y0094858D02*
X0153423Y0094858D01*
X0153973Y0094307D01*
X0153973Y0093206D01*
X0153423Y0092656D01*
X0151771Y0092656D01*
X0152872Y0092656D02*
X0153973Y0091555D01*
X0155454Y0092105D02*
X0156005Y0091555D01*
X0157106Y0091555D01*
X0157656Y0092105D01*
X0157656Y0092656D01*
X0157106Y0093206D01*
X0156555Y0093206D01*
X0157106Y0093206D02*
X0157656Y0093757D01*
X0157656Y0094307D01*
X0157106Y0094858D01*
X0156005Y0094858D01*
X0155454Y0094307D01*
X0151771Y0094858D02*
X0151771Y0091555D01*
X0214956Y0094900D02*
X0215507Y0094350D01*
X0216057Y0094350D01*
X0216608Y0094900D01*
X0216608Y0097653D01*
X0217158Y0097653D02*
X0216057Y0097653D01*
X0218639Y0096552D02*
X0219740Y0097653D01*
X0219740Y0094350D01*
X0218639Y0094350D02*
X0220841Y0094350D01*
X0254326Y0094900D02*
X0254877Y0094350D01*
X0255427Y0094350D01*
X0255978Y0094900D01*
X0255978Y0097653D01*
X0256528Y0097653D02*
X0255427Y0097653D01*
X0258010Y0097102D02*
X0258560Y0097653D01*
X0259661Y0097653D01*
X0260211Y0097102D01*
X0260211Y0096552D01*
X0259661Y0096001D01*
X0260211Y0095451D01*
X0260211Y0094900D01*
X0259661Y0094350D01*
X0258560Y0094350D01*
X0258010Y0094900D01*
X0259110Y0096001D02*
X0259661Y0096001D01*
X0302952Y0095018D02*
X0304604Y0095018D01*
X0305154Y0095568D01*
X0305154Y0096669D01*
X0304604Y0097220D01*
X0302952Y0097220D01*
X0302952Y0093917D01*
X0304053Y0095018D02*
X0305154Y0093917D01*
X0306636Y0093917D02*
X0306636Y0094467D01*
X0308837Y0096669D01*
X0308837Y0097220D01*
X0306636Y0097220D01*
X0322564Y0080719D02*
X0325867Y0080719D01*
X0325867Y0079618D02*
X0325867Y0081820D01*
X0323665Y0079618D02*
X0322564Y0080719D01*
X0329564Y0079978D02*
X0332867Y0079978D01*
X0331215Y0079978D02*
X0331215Y0077776D01*
X0329564Y0077776D02*
X0332867Y0077776D01*
X0334564Y0078327D02*
X0335114Y0077776D01*
X0337316Y0077776D01*
X0337867Y0078327D01*
X0337867Y0079428D01*
X0337316Y0079978D01*
X0336215Y0079978D01*
X0336215Y0078877D01*
X0335114Y0079978D02*
X0334564Y0079428D01*
X0334564Y0078327D01*
X0349564Y0077776D02*
X0349564Y0079428D01*
X0350114Y0079978D01*
X0352316Y0079978D01*
X0352867Y0079428D01*
X0352867Y0077776D01*
X0349564Y0077776D01*
X0354564Y0078327D02*
X0354564Y0079428D01*
X0355114Y0079978D01*
X0354564Y0078327D02*
X0355114Y0077776D01*
X0357316Y0077776D01*
X0357867Y0078327D01*
X0357867Y0079428D01*
X0357316Y0079978D01*
X0362564Y0079952D02*
X0362564Y0078851D01*
X0363114Y0078301D01*
X0362564Y0079952D02*
X0363114Y0080503D01*
X0363665Y0080503D01*
X0365867Y0078301D01*
X0365867Y0080503D01*
X0365867Y0081984D02*
X0365867Y0084186D01*
X0365867Y0083085D02*
X0362564Y0083085D01*
X0363665Y0081984D01*
X0365867Y0076820D02*
X0365867Y0074618D01*
X0365867Y0075719D02*
X0362564Y0075719D01*
X0363665Y0074618D01*
X0370161Y0066652D02*
X0369611Y0066102D01*
X0369611Y0065001D01*
X0370161Y0064450D01*
X0371262Y0062969D02*
X0371262Y0060767D01*
X0369611Y0062419D01*
X0372914Y0062419D01*
X0372914Y0064450D02*
X0370712Y0066652D01*
X0370161Y0066652D01*
X0372914Y0066652D02*
X0372914Y0064450D01*
X0372914Y0059286D02*
X0372914Y0057084D01*
X0372914Y0058185D02*
X0369611Y0058185D01*
X0370712Y0057084D01*
X0370161Y0055603D02*
X0369611Y0055052D01*
X0369611Y0053951D01*
X0370161Y0053401D01*
X0372363Y0053401D01*
X0372914Y0053951D01*
X0372914Y0055052D01*
X0372363Y0055603D01*
X0311981Y0181053D02*
X0312532Y0181603D01*
X0312532Y0182154D01*
X0311981Y0182704D01*
X0309229Y0182704D01*
X0309229Y0182154D02*
X0309229Y0183255D01*
X0310880Y0184736D02*
X0309229Y0186387D01*
X0312532Y0186387D01*
X0310880Y0186938D02*
X0310880Y0184736D01*
X0156869Y0278169D02*
X0154667Y0278169D01*
X0155768Y0278169D02*
X0155768Y0281472D01*
X0154667Y0280371D01*
X0153186Y0280921D02*
X0153186Y0279820D01*
X0152635Y0279270D01*
X0150984Y0279270D01*
X0152085Y0279270D02*
X0153186Y0278169D01*
X0150984Y0278169D02*
X0150984Y0281472D01*
X0152635Y0281472D01*
X0153186Y0280921D01*
X0145058Y0280921D02*
X0144507Y0281472D01*
X0143406Y0281472D01*
X0142856Y0280921D01*
X0141375Y0280921D02*
X0141375Y0279820D01*
X0140824Y0279270D01*
X0139173Y0279270D01*
X0140274Y0279270D02*
X0141375Y0278169D01*
X0142856Y0278169D02*
X0145058Y0280371D01*
X0145058Y0280921D01*
X0145058Y0278169D02*
X0142856Y0278169D01*
X0141375Y0280921D02*
X0140824Y0281472D01*
X0139173Y0281472D01*
X0139173Y0278169D01*
X0129459Y0267180D02*
X0129459Y0263878D01*
X0128358Y0263878D02*
X0130560Y0263878D01*
X0128358Y0266079D02*
X0129459Y0267180D01*
X0126877Y0266630D02*
X0126326Y0267180D01*
X0124675Y0267180D01*
X0124675Y0263878D01*
X0126326Y0263878D01*
X0126877Y0264428D01*
X0126877Y0266630D01*
X0118626Y0186680D02*
X0118626Y0184478D01*
X0116425Y0186680D01*
X0115874Y0186680D01*
X0115324Y0186129D01*
X0115324Y0185028D01*
X0115874Y0184478D01*
X0115324Y0182997D02*
X0115324Y0181896D01*
X0115324Y0182446D02*
X0118076Y0182446D01*
X0118626Y0181896D01*
X0118626Y0181345D01*
X0118076Y0180795D01*
X0322564Y0288769D02*
X0324215Y0287118D01*
X0324215Y0289320D01*
X0322564Y0288769D02*
X0325867Y0288769D01*
X0325316Y0290801D02*
X0323114Y0293003D01*
X0325316Y0293003D01*
X0325867Y0292452D01*
X0325867Y0291351D01*
X0325316Y0290801D01*
X0323114Y0290801D01*
X0322564Y0291351D01*
X0322564Y0292452D01*
X0323114Y0293003D01*
X0368824Y0301983D02*
X0369374Y0301432D01*
X0371576Y0301432D01*
X0372126Y0301983D01*
X0372126Y0303084D01*
X0371576Y0303634D01*
X0372126Y0305116D02*
X0372126Y0307317D01*
X0372126Y0306216D02*
X0368824Y0306216D01*
X0369925Y0305116D01*
X0369374Y0303634D02*
X0368824Y0303084D01*
X0368824Y0301983D01*
X0370475Y0308799D02*
X0370475Y0311001D01*
X0369925Y0312482D02*
X0368824Y0313583D01*
X0372126Y0313583D01*
X0372126Y0312482D02*
X0372126Y0314684D01*
X0372126Y0310450D02*
X0368824Y0310450D01*
X0370475Y0308799D01*
D13*
X0070748Y0080811D02*
X0063748Y0075811D01*
X0076354Y0083280D02*
X0077343Y0083283D01*
X0131906Y0083283D01*
X0131906Y0093126D01*
X0077343Y0093126D01*
X0076354Y0093130D01*
X0077343Y0093126D02*
X0077343Y0083283D01*
X0076354Y0083280D02*
X0076215Y0083282D01*
X0076075Y0083288D01*
X0075936Y0083298D01*
X0075798Y0083312D01*
X0075659Y0083329D01*
X0075522Y0083351D01*
X0075385Y0083376D01*
X0075248Y0083406D01*
X0075113Y0083439D01*
X0074979Y0083476D01*
X0074845Y0083517D01*
X0074713Y0083561D01*
X0074583Y0083610D01*
X0074453Y0083662D01*
X0074325Y0083717D01*
X0074199Y0083776D01*
X0074075Y0083839D01*
X0073952Y0083905D01*
X0073831Y0083975D01*
X0073713Y0084048D01*
X0073596Y0084125D01*
X0073482Y0084204D01*
X0073370Y0084287D01*
X0073260Y0084373D01*
X0073153Y0084462D01*
X0073048Y0084554D01*
X0072946Y0084649D01*
X0072847Y0084747D01*
X0072750Y0084848D01*
X0072657Y0084951D01*
X0072566Y0085057D01*
X0072479Y0085166D01*
X0072394Y0085276D01*
X0072313Y0085390D01*
X0072235Y0085505D01*
X0072160Y0085623D01*
X0072089Y0085742D01*
X0072021Y0085864D01*
X0071956Y0085988D01*
X0071895Y0086113D01*
X0071838Y0086240D01*
X0071784Y0086369D01*
X0071734Y0086499D01*
X0071688Y0086630D01*
X0071645Y0086763D01*
X0071606Y0086897D01*
X0071571Y0087032D01*
X0071540Y0087167D01*
X0071512Y0087304D01*
X0071489Y0087441D01*
X0071469Y0087579D01*
X0071453Y0087718D01*
X0071441Y0087857D01*
X0071433Y0087996D01*
X0071429Y0088135D01*
X0071429Y0088275D01*
X0071433Y0088414D01*
X0071441Y0088553D01*
X0071453Y0088692D01*
X0071469Y0088831D01*
X0071489Y0088969D01*
X0071512Y0089106D01*
X0071540Y0089243D01*
X0071571Y0089378D01*
X0071606Y0089513D01*
X0071645Y0089647D01*
X0071688Y0089780D01*
X0071734Y0089911D01*
X0071784Y0090041D01*
X0071838Y0090170D01*
X0071895Y0090297D01*
X0071956Y0090422D01*
X0072021Y0090546D01*
X0072089Y0090667D01*
X0072160Y0090787D01*
X0072235Y0090905D01*
X0072313Y0091020D01*
X0072394Y0091134D01*
X0072479Y0091244D01*
X0072566Y0091353D01*
X0072657Y0091459D01*
X0072750Y0091562D01*
X0072847Y0091663D01*
X0072946Y0091761D01*
X0073048Y0091856D01*
X0073153Y0091948D01*
X0073260Y0092037D01*
X0073370Y0092123D01*
X0073482Y0092206D01*
X0073596Y0092285D01*
X0073713Y0092362D01*
X0073831Y0092435D01*
X0073952Y0092505D01*
X0074075Y0092571D01*
X0074199Y0092634D01*
X0074325Y0092693D01*
X0074453Y0092748D01*
X0074583Y0092800D01*
X0074713Y0092849D01*
X0074845Y0092893D01*
X0074979Y0092934D01*
X0075113Y0092971D01*
X0075248Y0093004D01*
X0075385Y0093034D01*
X0075522Y0093059D01*
X0075659Y0093081D01*
X0075798Y0093098D01*
X0075936Y0093112D01*
X0076075Y0093122D01*
X0076215Y0093128D01*
X0076354Y0093130D01*
X0070248Y0094311D02*
X0063748Y0100811D01*
X0061748Y0087811D02*
X0068748Y0087811D01*
X0063748Y0262425D02*
X0070748Y0267425D01*
X0076354Y0269894D02*
X0077343Y0269898D01*
X0131906Y0269898D01*
X0131906Y0279740D01*
X0077343Y0279740D01*
X0076354Y0279744D01*
X0077343Y0279740D02*
X0077343Y0269898D01*
X0076354Y0269894D02*
X0076215Y0269896D01*
X0076075Y0269902D01*
X0075936Y0269912D01*
X0075798Y0269926D01*
X0075659Y0269943D01*
X0075522Y0269965D01*
X0075385Y0269990D01*
X0075248Y0270020D01*
X0075113Y0270053D01*
X0074979Y0270090D01*
X0074845Y0270131D01*
X0074713Y0270175D01*
X0074583Y0270224D01*
X0074453Y0270276D01*
X0074325Y0270331D01*
X0074199Y0270390D01*
X0074075Y0270453D01*
X0073952Y0270519D01*
X0073831Y0270589D01*
X0073713Y0270662D01*
X0073596Y0270739D01*
X0073482Y0270818D01*
X0073370Y0270901D01*
X0073260Y0270987D01*
X0073153Y0271076D01*
X0073048Y0271168D01*
X0072946Y0271263D01*
X0072847Y0271361D01*
X0072750Y0271462D01*
X0072657Y0271565D01*
X0072566Y0271671D01*
X0072479Y0271780D01*
X0072394Y0271890D01*
X0072313Y0272004D01*
X0072235Y0272119D01*
X0072160Y0272237D01*
X0072089Y0272357D01*
X0072021Y0272478D01*
X0071956Y0272602D01*
X0071895Y0272727D01*
X0071838Y0272854D01*
X0071784Y0272983D01*
X0071734Y0273113D01*
X0071688Y0273244D01*
X0071645Y0273377D01*
X0071606Y0273511D01*
X0071571Y0273646D01*
X0071540Y0273781D01*
X0071512Y0273918D01*
X0071489Y0274055D01*
X0071469Y0274193D01*
X0071453Y0274332D01*
X0071441Y0274471D01*
X0071433Y0274610D01*
X0071429Y0274749D01*
X0071429Y0274889D01*
X0071433Y0275028D01*
X0071441Y0275167D01*
X0071453Y0275306D01*
X0071469Y0275445D01*
X0071489Y0275583D01*
X0071512Y0275720D01*
X0071540Y0275857D01*
X0071571Y0275992D01*
X0071606Y0276127D01*
X0071645Y0276261D01*
X0071688Y0276394D01*
X0071734Y0276525D01*
X0071784Y0276655D01*
X0071838Y0276784D01*
X0071895Y0276911D01*
X0071956Y0277036D01*
X0072021Y0277160D01*
X0072089Y0277282D01*
X0072160Y0277401D01*
X0072235Y0277519D01*
X0072313Y0277634D01*
X0072394Y0277748D01*
X0072479Y0277858D01*
X0072566Y0277967D01*
X0072657Y0278073D01*
X0072750Y0278176D01*
X0072847Y0278277D01*
X0072946Y0278375D01*
X0073048Y0278470D01*
X0073153Y0278562D01*
X0073260Y0278651D01*
X0073370Y0278737D01*
X0073482Y0278820D01*
X0073596Y0278899D01*
X0073713Y0278976D01*
X0073831Y0279049D01*
X0073952Y0279119D01*
X0074075Y0279185D01*
X0074199Y0279248D01*
X0074325Y0279307D01*
X0074453Y0279362D01*
X0074583Y0279414D01*
X0074713Y0279463D01*
X0074845Y0279507D01*
X0074979Y0279548D01*
X0075113Y0279585D01*
X0075248Y0279618D01*
X0075385Y0279648D01*
X0075522Y0279673D01*
X0075659Y0279695D01*
X0075798Y0279712D01*
X0075936Y0279726D01*
X0076075Y0279736D01*
X0076215Y0279742D01*
X0076354Y0279744D01*
X0070248Y0280925D02*
X0063748Y0287425D01*
X0061748Y0274425D02*
X0068748Y0274425D01*
D14*
X0220106Y0090500D02*
X0220433Y0090631D01*
X0220764Y0090754D01*
X0221098Y0090868D01*
X0221434Y0090975D01*
X0221773Y0091073D01*
X0222114Y0091163D01*
X0222457Y0091244D01*
X0222802Y0091317D01*
X0223149Y0091382D01*
X0223497Y0091438D01*
X0223847Y0091485D01*
X0224197Y0091524D01*
X0224549Y0091554D01*
X0224901Y0091576D01*
X0225253Y0091589D01*
X0225606Y0091593D01*
X0225959Y0091589D01*
X0226311Y0091576D01*
X0226663Y0091554D01*
X0227015Y0091524D01*
X0227365Y0091485D01*
X0227715Y0091438D01*
X0228063Y0091382D01*
X0228410Y0091317D01*
X0228755Y0091244D01*
X0229098Y0091163D01*
X0229439Y0091073D01*
X0229778Y0090975D01*
X0230114Y0090868D01*
X0230448Y0090754D01*
X0230779Y0090631D01*
X0231106Y0090500D01*
X0240106Y0081500D02*
X0240236Y0081160D01*
X0240358Y0080818D01*
X0240471Y0080473D01*
X0240576Y0080125D01*
X0240672Y0079774D01*
X0240759Y0079422D01*
X0240838Y0079067D01*
X0240909Y0078710D01*
X0240970Y0078352D01*
X0241023Y0077993D01*
X0241067Y0077632D01*
X0241103Y0077270D01*
X0241129Y0076908D01*
X0241147Y0076545D01*
X0241156Y0076182D01*
X0241156Y0075818D01*
X0241147Y0075455D01*
X0241129Y0075092D01*
X0241103Y0074730D01*
X0241067Y0074368D01*
X0241023Y0074007D01*
X0240970Y0073648D01*
X0240909Y0073290D01*
X0240838Y0072933D01*
X0240759Y0072578D01*
X0240672Y0072226D01*
X0240576Y0071875D01*
X0240471Y0071527D01*
X0240358Y0071182D01*
X0240236Y0070840D01*
X0240106Y0070500D01*
X0231106Y0061500D02*
X0230779Y0061369D01*
X0230448Y0061246D01*
X0230114Y0061132D01*
X0229778Y0061025D01*
X0229439Y0060927D01*
X0229098Y0060837D01*
X0228755Y0060756D01*
X0228410Y0060683D01*
X0228063Y0060618D01*
X0227715Y0060562D01*
X0227365Y0060515D01*
X0227015Y0060476D01*
X0226663Y0060446D01*
X0226311Y0060424D01*
X0225959Y0060411D01*
X0225606Y0060407D01*
X0225253Y0060411D01*
X0224901Y0060424D01*
X0224549Y0060446D01*
X0224197Y0060476D01*
X0223847Y0060515D01*
X0223497Y0060562D01*
X0223149Y0060618D01*
X0222802Y0060683D01*
X0222457Y0060756D01*
X0222114Y0060837D01*
X0221773Y0060927D01*
X0221434Y0061025D01*
X0221098Y0061132D01*
X0220764Y0061246D01*
X0220433Y0061369D01*
X0220106Y0061500D01*
X0211107Y0070500D02*
X0210977Y0070840D01*
X0210855Y0071182D01*
X0210742Y0071527D01*
X0210637Y0071875D01*
X0210541Y0072226D01*
X0210454Y0072578D01*
X0210375Y0072933D01*
X0210304Y0073290D01*
X0210243Y0073648D01*
X0210190Y0074007D01*
X0210146Y0074368D01*
X0210110Y0074730D01*
X0210084Y0075092D01*
X0210066Y0075455D01*
X0210057Y0075818D01*
X0210057Y0076182D01*
X0210066Y0076545D01*
X0210084Y0076908D01*
X0210110Y0077270D01*
X0210146Y0077632D01*
X0210190Y0077993D01*
X0210243Y0078352D01*
X0210304Y0078710D01*
X0210375Y0079067D01*
X0210454Y0079422D01*
X0210541Y0079774D01*
X0210637Y0080125D01*
X0210742Y0080473D01*
X0210855Y0080818D01*
X0210977Y0081160D01*
X0211107Y0081500D01*
X0250477Y0081500D02*
X0250347Y0081160D01*
X0250225Y0080818D01*
X0250112Y0080473D01*
X0250007Y0080125D01*
X0249911Y0079774D01*
X0249824Y0079422D01*
X0249745Y0079067D01*
X0249674Y0078710D01*
X0249613Y0078352D01*
X0249560Y0077993D01*
X0249516Y0077632D01*
X0249480Y0077270D01*
X0249454Y0076908D01*
X0249436Y0076545D01*
X0249427Y0076182D01*
X0249427Y0075818D01*
X0249436Y0075455D01*
X0249454Y0075092D01*
X0249480Y0074730D01*
X0249516Y0074368D01*
X0249560Y0074007D01*
X0249613Y0073648D01*
X0249674Y0073290D01*
X0249745Y0072933D01*
X0249824Y0072578D01*
X0249911Y0072226D01*
X0250007Y0071875D01*
X0250112Y0071527D01*
X0250225Y0071182D01*
X0250347Y0070840D01*
X0250477Y0070500D01*
X0259476Y0061500D02*
X0259803Y0061369D01*
X0260134Y0061246D01*
X0260468Y0061132D01*
X0260804Y0061025D01*
X0261143Y0060927D01*
X0261484Y0060837D01*
X0261827Y0060756D01*
X0262172Y0060683D01*
X0262519Y0060618D01*
X0262867Y0060562D01*
X0263217Y0060515D01*
X0263567Y0060476D01*
X0263919Y0060446D01*
X0264271Y0060424D01*
X0264623Y0060411D01*
X0264976Y0060407D01*
X0265329Y0060411D01*
X0265681Y0060424D01*
X0266033Y0060446D01*
X0266385Y0060476D01*
X0266735Y0060515D01*
X0267085Y0060562D01*
X0267433Y0060618D01*
X0267780Y0060683D01*
X0268125Y0060756D01*
X0268468Y0060837D01*
X0268809Y0060927D01*
X0269148Y0061025D01*
X0269484Y0061132D01*
X0269818Y0061246D01*
X0270149Y0061369D01*
X0270476Y0061500D01*
X0279476Y0070500D02*
X0279606Y0070840D01*
X0279728Y0071182D01*
X0279841Y0071527D01*
X0279946Y0071875D01*
X0280042Y0072226D01*
X0280129Y0072578D01*
X0280208Y0072933D01*
X0280279Y0073290D01*
X0280340Y0073648D01*
X0280393Y0074007D01*
X0280437Y0074368D01*
X0280473Y0074730D01*
X0280499Y0075092D01*
X0280517Y0075455D01*
X0280526Y0075818D01*
X0280526Y0076182D01*
X0280517Y0076545D01*
X0280499Y0076908D01*
X0280473Y0077270D01*
X0280437Y0077632D01*
X0280393Y0077993D01*
X0280340Y0078352D01*
X0280279Y0078710D01*
X0280208Y0079067D01*
X0280129Y0079422D01*
X0280042Y0079774D01*
X0279946Y0080125D01*
X0279841Y0080473D01*
X0279728Y0080818D01*
X0279606Y0081160D01*
X0279476Y0081500D01*
X0270476Y0090500D02*
X0270149Y0090631D01*
X0269818Y0090754D01*
X0269484Y0090868D01*
X0269148Y0090975D01*
X0268809Y0091073D01*
X0268468Y0091163D01*
X0268125Y0091244D01*
X0267780Y0091317D01*
X0267433Y0091382D01*
X0267085Y0091438D01*
X0266735Y0091485D01*
X0266385Y0091524D01*
X0266033Y0091554D01*
X0265681Y0091576D01*
X0265329Y0091589D01*
X0264976Y0091593D01*
X0264623Y0091589D01*
X0264271Y0091576D01*
X0263919Y0091554D01*
X0263567Y0091524D01*
X0263217Y0091485D01*
X0262867Y0091438D01*
X0262519Y0091382D01*
X0262172Y0091317D01*
X0261827Y0091244D01*
X0261484Y0091163D01*
X0261143Y0091073D01*
X0260804Y0090975D01*
X0260468Y0090868D01*
X0260134Y0090754D01*
X0259803Y0090631D01*
X0259476Y0090500D01*
D15*
X0314717Y0074268D02*
X0314717Y0294268D01*
X0372717Y0294268D01*
X0372717Y0074268D01*
X0346717Y0074268D01*
X0346717Y0069268D01*
X0340717Y0069268D01*
X0340717Y0074268D01*
X0314717Y0074268D01*
X0318717Y0074268D02*
X0340717Y0074268D01*
X0340717Y0069268D01*
X0346717Y0069268D01*
X0346717Y0074268D01*
X0368717Y0074268D01*
X0368717Y0294268D02*
X0318717Y0294268D01*
M02*
